<svg width="56" height="31" viewBox="0 0 56 31" fill="none" xmlns="http://www.w3.org/2000/svg">
<path d="M33.5394 2.06236C33.8303 1.82733 34.083 1.45934 34.4653 1.39624C36.2448 2.37001 37.7672 3.73589 39.1805 5.17492C38.248 6.75934 36.9786 8.1057 35.6965 9.40455C35.4437 9.62153 35.1317 10.0275 34.7709 9.80218C34.0012 9.36932 33.2715 8.86995 32.59 8.30966C31.723 7.60028 30.8015 6.93108 30.1228 6.01887C31.057 4.54226 32.2994 3.30227 33.5394 2.06236ZM35.4737 4.58666C34.8399 5.26613 34.154 5.89499 33.4224 6.46729C33.2043 6.0148 33.142 5.50063 33.245 5.00381L33.7023 5.12998C33.569 5.32619 33.2816 5.4796 33.3195 5.74441C33.5965 5.83585 33.7223 5.47209 33.9142 5.33625L34.2381 5.51002L34.4298 5.22076C33.9455 4.90612 33.4389 4.55628 32.8409 4.47076C32.7318 5.28111 32.7951 6.10248 33.0266 6.88081C33.0804 7.09236 33.3486 6.93479 33.4601 6.86635C34.2976 6.21756 34.9326 5.34302 35.797 4.7245C36.0172 5.18889 36.0715 5.71716 35.951 6.22233C35.6736 6.08762 35.4047 5.93651 35.1457 5.76978C34.9949 5.63338 34.8811 5.85771 34.777 5.93549C35.2519 6.29931 35.7964 6.56315 36.3783 6.71146C36.5012 5.8418 36.4245 4.95888 36.1539 4.1301C35.8986 4.2358 35.667 4.39289 35.4738 4.59146L35.4737 4.58666Z" fill="black"/>
<path d="M4.65911 4.22444C5.09864 3.85021 5.66109 3.66605 6.18954 3.45425C6.77509 4.24013 7.44823 4.96077 8.0054 5.76917C7.39419 6.19467 6.87297 6.84729 6.83766 7.61553C6.83848 7.82053 6.89449 8.02059 6.99981 8.19466C7.10512 8.36874 7.25584 8.51039 7.43613 8.60473C8.41858 9.19279 9.58326 9.35049 10.6894 9.59404C12.2765 9.9414 13.9086 10.1099 15.4666 10.5781C15.4412 12.6859 15.3393 14.794 15.3499 16.9031C15.2609 19.5116 15.3684 22.1185 15.2841 24.7245C13.7619 24.8256 12.2405 24.9795 10.7152 25.0399C10.4328 24.1864 10.2435 23.3058 9.99689 22.4415C9.2043 22.1405 8.39085 21.8954 7.56242 21.7077C7.37359 21.7356 7.33909 21.9693 7.23816 22.0973C6.71961 23.059 6.23506 24.0484 5.67522 24.9756C5.54744 25.2196 5.23435 25.1221 5.01929 25.1581C3.78317 25.173 2.54822 25.2597 1.31253 25.3009C0.92246 25.3307 0.655887 25.0016 0.365097 24.8028C2.04866 20.952 3.71287 17.09 5.22519 13.1706C5.33526 12.8697 5.4544 12.5373 5.34381 12.2222C5.16706 11.672 4.66552 11.334 4.21236 11.0231C3.33898 10.4625 2.47181 9.8906 1.61084 9.30727C1.9921 8.44838 2.27902 7.53511 2.78104 6.73451C3.15344 6.65018 3.38511 7.04276 3.64226 7.23554C3.59784 6.69418 3.66517 6.14757 3.84009 5.62961C4.01501 5.11165 4.29378 4.63337 4.65911 4.22444ZM8.90521 14.757C8.64427 15.5016 8.38094 16.2463 8.13928 16.9974C8.09936 17.1929 7.97232 17.4824 8.19237 17.6045C8.86917 17.8492 9.56738 18.0329 10.2788 18.1533C10.4608 18.0034 10.7157 17.911 10.8345 17.7033C10.8859 16.7326 10.8651 15.7606 10.7724 14.7953C10.7361 14.6264 10.7533 14.3645 10.525 14.3242C10.1497 14.1892 9.75129 14.126 9.35031 14.138C9.09517 14.2137 9.01893 14.5326 8.91718 14.7566L8.90521 14.757Z" fill="black"/>
<path d="M47.2981 5.30923C47.8425 5.0435 48.4162 4.84485 49.0064 4.71769C49.2754 5.48777 49.2579 6.32014 49.3693 7.12184C49.4654 7.66408 49.5193 8.21366 49.5305 8.76565C49.1028 9.12989 48.5823 9.39176 48.2033 9.80232C47.5307 10.4312 47.0888 11.2442 46.6126 12.0128C45.9094 11.7965 45.2541 11.4348 44.5302 11.2696C44.3752 11.7542 44.2331 12.2935 44.4376 12.7805C44.629 13.2461 44.9654 13.6356 45.3975 13.8919C45.9135 13.5079 46.2785 12.9708 46.7507 12.5451C47.1177 12.5664 47.4282 12.7982 47.7657 12.9211C48.7 13.3526 49.7474 13.3704 50.7536 13.5094C50.6824 14.2788 50.6231 15.0503 50.5135 15.8162C50.5004 16.042 50.2521 16.091 50.0907 16.1851C49.0652 16.6268 48.0299 17.0521 47.0119 17.5103C47.1269 17.8037 47.2427 18.0963 47.3593 18.3881C49.6452 18.3861 51.9297 18.4513 54.2132 18.3104C54.5109 18.636 55.1553 18.9238 54.9365 19.4584C54.6405 20.4055 54.2482 21.3223 53.8897 22.25C53.8423 22.4289 53.7159 22.613 53.7693 22.8005C54.2707 23.1266 54.8326 23.3499 55.3153 23.7078L55.3167 23.794C55.2131 24.0516 55.1176 24.364 54.822 24.4554C53.6316 24.9217 52.4405 25.3426 51.2718 25.8179C50.8484 25.996 50.4039 26.1165 49.9503 26.176C49.8314 25.0653 49.9592 23.9464 49.9888 22.8308C47.7668 22.9265 45.5636 23.2877 43.3452 23.4552C43.1057 23.4631 42.7537 23.4749 42.7129 23.1766C42.2285 21.697 41.923 20.1635 41.4911 18.6629C40.6393 15.6686 39.9282 12.6337 39.1861 9.60938C39.1554 9.46679 39.141 9.32093 39.143 9.17455C39.6461 8.73109 40.2844 8.49166 40.8762 8.20104C43.0169 7.2379 45.1326 6.21807 47.2981 5.30923Z" fill="black"/>
<path d="M23.8192 14.2187C25.3749 12.9467 26.8646 11.593 28.4105 10.3069C29.5416 11.3335 30.7766 12.2751 31.7166 13.4902C30.3441 14.6866 28.9668 15.8784 27.5992 17.0818C27.8133 17.6534 28.1467 18.1712 28.5774 18.601C29.0082 19.0307 29.5266 19.3628 30.0985 19.5752C30.9273 19.8568 31.7442 19.4053 32.4491 18.9958C32.7997 19.9765 33.0797 20.9821 33.2868 22.005C32.3085 22.8406 31.2644 23.609 30.2104 24.3513C30.1006 24.4536 29.9588 24.5142 29.8101 24.5222C29.6615 24.5302 29.5157 24.4852 29.3988 24.3951C27.9577 23.502 26.5642 22.5401 25.2183 21.5095C24.8979 21.258 24.5603 21.029 24.2079 20.8241C22.7671 22.2385 21.3263 23.6529 19.844 25.0208C19.6404 25.0275 19.5197 24.8278 19.3599 24.7253C18.2693 23.7725 17.1856 22.8107 16.109 21.8398C15.8912 21.7056 16.1536 21.486 16.2401 21.356C17.2891 20.1608 18.3454 18.9678 19.375 17.7589C18.3816 16.3538 17.4828 14.876 16.5627 13.4181C16.4259 13.2597 16.6854 13.1575 16.7798 13.0681C17.9312 12.2722 19.1122 11.5209 20.3078 10.793C21.491 11.9305 22.5985 13.1328 23.8192 14.2187Z" fill="black"/>
<path d="M32.0664 11.0094C34.1108 10.6056 36.158 10.2256 38.2158 9.9053C38.4819 11.524 38.4947 13.1776 38.6532 14.8095C38.8349 17.5058 39.0332 20.2014 39.2484 22.8966C39.2762 23.1353 39.2844 23.4874 38.9404 23.4054C37.423 23.2163 35.9032 23.0274 34.4034 22.7418C34.101 22.7111 34.0688 22.3598 34.0195 22.1242C33.8074 20.88 33.4616 19.6642 33.259 18.4197C33.1936 18.0839 33.4334 17.8002 33.5531 17.5062C34.2068 16.2372 34.3543 14.7741 33.9653 13.4174C33.4543 13.3817 32.9375 13.4277 32.4308 13.3559C32.2111 12.5938 32.0887 11.8054 32.0664 11.0094Z" fill="black"/>
<path d="M30.1396 15.2207C30.2041 15.0627 30.3526 14.7677 30.5658 14.9092C31.0532 15.4083 31.0921 16.1741 31.1126 16.8398C31.0841 17.2938 31.1302 17.9083 30.6406 18.1547C30.3393 17.7396 30.1376 17.2597 30.0508 16.7513C29.964 16.2429 29.9944 15.7195 30.1396 15.2207Z" fill="black"/>
<path d="M27.2113 26.3068L28.0279 26.2795C28.3934 26.7995 28.7377 27.3369 29.1009 27.8593C29.092 27.3203 29.0832 26.7788 29.1126 26.2385L29.9532 26.2105C29.9693 27.1951 30.0023 28.1792 30.028 29.166L29.1875 29.194C28.859 28.7423 28.5258 28.298 28.1926 27.8489C28.2001 28.3089 28.1958 28.7717 28.1986 29.2342L27.1999 29.2675C27.2148 28.277 27.2107 27.292 27.2113 26.3068Z" fill="black"/>
<path d="M16.1356 26.676L17.2036 26.6404C17.2198 27.6251 17.224 28.6101 17.2353 29.5949L16.1625 29.6307C16.1511 28.6483 16.1374 27.6636 16.1356 26.676Z" fill="black"/>
<path d="M18.2119 26.6068L19.0453 26.579C19.4037 27.1064 19.7504 27.6414 20.1112 28.1639C20.1023 27.6248 20.1054 27.0806 20.1037 26.5389L20.9538 26.5106C20.9843 27.4947 20.9861 28.4799 21.0262 29.4637L20.2024 29.4912C19.8717 29.0516 19.56 28.597 19.1986 28.1847C19.1915 28.6308 19.1965 29.0789 19.2014 29.527L18.2124 29.56C18.2155 28.5771 18.2113 27.5921 18.2119 26.6068Z" fill="black"/>
<path d="M21.9716 26.4816L24.1652 26.4084C24.1696 26.6767 24.174 26.945 24.1784 27.2133C23.7665 27.2271 23.3546 27.2408 22.9451 27.2545C22.9282 27.3917 22.9113 27.5289 22.8944 27.6685L23.5867 27.6622L23.6458 28.1971L22.9609 28.22C22.9674 28.6145 22.9795 29.0096 22.9971 29.4053L21.965 29.4398C21.956 28.4525 21.9542 27.4673 21.9716 26.4816Z" fill="black"/>
<path d="M25.1285 26.4074C25.4755 26.3593 25.8252 26.338 26.1745 26.3437C26.1907 27.3283 26.2068 28.313 26.2086 29.2981L25.1334 29.334C25.1413 28.3581 25.0678 27.3826 25.1285 26.4074Z" fill="black"/>
<path d="M30.9688 26.1812L32.0368 26.1455C32.053 27.1302 32.0572 28.1153 32.0709 29.1L30.9957 29.1359C30.9891 28.1533 30.9754 27.1685 30.9688 26.1812Z" fill="black"/>
<path d="M33.0401 26.1025C33.9645 26.0717 34.8888 26.0408 35.8132 26.01C35.8357 26.3568 35.8462 26.7064 35.8304 27.0569L34.9036 27.0879C34.9141 27.7275 34.9246 28.3672 34.9351 29.0045L33.8527 29.0406C33.8773 28.4005 33.8979 27.7606 33.9146 27.1209L33.0527 27.1616L33.0401 26.1025Z" fill="black"/>
<path d="M36.2514 25.9954L37.3649 25.9582C37.6091 26.2377 37.8534 26.522 38.0737 26.8095C38.2174 26.5123 38.3611 26.215 38.512 25.9223C38.888 25.9098 39.264 25.8972 39.6424 25.8846C39.1908 26.8905 38.7361 27.8948 38.2781 28.8977L37.0807 28.9377C37.2731 28.5405 37.4631 28.1459 37.6603 27.751C37.1977 27.1599 36.7234 26.5789 36.2514 25.9954Z" fill="black"/>
</svg>
