<svg width="30" height="28" viewBox="0 0 30 28" fill="none" xmlns="http://www.w3.org/2000/svg">
<g filter="url(#filter0_d_418_516)">
<path d="M21.73 5.4101L20.45 6.4101L15 10.4601L9.55001 6.3701L8.27001 5.3701C7.96847 5.12064 7.60036 4.96514 7.2113 4.92285C6.82224 4.88056 6.42932 4.95334 6.08122 5.13218C5.73312 5.31102 5.44514 5.58806 5.25295 5.92897C5.06077 6.26988 4.97282 6.65969 5.00001 7.0501V18.6401C5.00001 19.0008 5.1433 19.3467 5.39835 19.6018C5.6534 19.8568 5.99932 20.0001 6.36001 20.0001H9.55001V12.2801L15 16.3701L20.45 12.2801V20.0001H23.64C24.0007 20.0001 24.3466 19.8568 24.6017 19.6018C24.8567 19.3467 25 19.0008 25 18.6401V7.0501C25.0188 6.66306 24.9247 6.2789 24.7293 5.94432C24.5338 5.60974 24.2453 5.33914 23.899 5.16543C23.5526 4.99171 23.1632 4.92235 22.7782 4.96579C22.3931 5.00923 22.029 5.16358 21.73 5.4101Z" fill="white"/>
</g>
<defs>
<filter id="filter0_d_418_516" x="-1" y="0" width="32" height="32" filterUnits="userSpaceOnUse" color-interpolation-filters="sRGB">
<feFlood flood-opacity="0" result="BackgroundImageFix"/>
<feColorMatrix in="SourceAlpha" type="matrix" values="0 0 0 0 0 0 0 0 0 0 0 0 0 0 0 0 0 0 127 0" result="hardAlpha"/>
<feOffset dy="4"/>
<feGaussianBlur stdDeviation="2"/>
<feComposite in2="hardAlpha" operator="out"/>
<feColorMatrix type="matrix" values="0 0 0 0 0 0 0 0 0 0 0 0 0 0 0 0 0 0 0.25 0"/>
<feBlend mode="normal" in2="BackgroundImageFix" result="effect1_dropShadow_418_516"/>
<feBlend mode="normal" in="SourceGraphic" in2="effect1_dropShadow_418_516" result="shape"/>
</filter>
</defs>
</svg>
