<svg width="188" height="82" viewBox="0 0 188 82" fill="none" xmlns="http://www.w3.org/2000/svg">
<path opacity="0.7" d="M52.1202 27.4525L51.3108 27.6709L51.4781 28.2908H52.1202V27.4525ZM50.2149 23.2228L49.5195 23.6911L49.5241 23.6977L50.2149 23.2228ZM42.9367 18.1166L42.703 18.9218L42.7151 18.9251L42.9367 18.1166ZM27.9232 20.1743L27.4611 19.4748L27.4582 19.4768L27.9232 20.1743ZM21.5596 28.1765L22.3295 28.5081L22.3304 28.506L21.5596 28.1765ZM21.4833 53.6691L22.259 53.351L22.259 53.351L21.4833 53.6691ZM27.7708 61.7475L28.2402 61.0529L28.2402 61.0529L27.7708 61.7475ZM46.5187 62.8525L46.8741 63.6118L46.8775 63.6101L46.5187 62.8525ZM52.0059 58.0131L51.2862 57.5831L51.2862 57.5831L52.0059 58.0131ZM53.873 50.6587L53.9726 49.8264L53.0347 49.7142V50.6587H53.873ZM57.3787 51.0779V51.9162L57.4783 50.2455L57.3787 51.0779ZM38.4022 51.0779H37.5639V51.9162H38.4022V51.0779ZM38.4022 37.3218V36.4835H37.5639V37.3218H38.4022ZM72.0494 37.3218H72.8877V36.4835H72.0494V37.3218ZM67.591 65.5961L66.8712 65.1664L66.8696 65.1691L67.591 65.5961ZM55.3973 77.0659L55.0136 76.3205L55.0121 76.3213L55.3973 77.0659ZM17.9776 76.2276L18.3939 75.4999L18.3939 75.4999L17.9776 76.2276ZM4.79312 62.4334L4.051 62.8233L4.05169 62.8246L4.79312 62.4334ZM2.92595 24.0611L3.70839 24.362L3.70891 24.3607L2.92595 24.0611ZM10.89 11.4101L10.295 10.8195L10.2928 10.8217L10.89 11.4101ZM22.7789 3.56032L22.4721 2.78015L22.4706 2.78075L22.7789 3.56032ZM49.9863 2.83631L49.7212 3.63162L49.7227 3.63213L49.9863 2.83631ZM60.351 8.32351L59.832 8.98193L59.8348 8.98405L60.351 8.32351ZM67.7053 16.7448L66.9796 17.1644L66.9796 17.1644L67.7053 16.7448ZM71.2111 27.4525V28.2908H72.1538L72.0436 27.3545L71.2111 27.4525ZM52.9296 27.2341C52.4759 25.553 51.8038 24.0542 50.9057 22.7478L49.5241 23.6977C50.3026 24.8301 50.9007 26.1511 51.3108 27.6709L52.9296 27.2341ZM50.9102 22.7545C50.0155 21.426 48.9154 20.2985 47.6129 19.3759L46.6438 20.7441C47.7801 21.549 48.7376 22.53 49.5196 23.6911L50.9102 22.7545ZM47.6129 19.3759C46.3067 18.4507 44.8189 17.7634 43.1584 17.3081L42.7151 18.9251C44.2046 19.3335 45.5112 19.9419 46.6438 20.7441L47.6129 19.3759ZM43.1705 17.3116C41.5094 16.8293 39.702 16.5924 37.7544 16.5924V18.269C39.5665 18.269 41.2141 18.4894 42.703 18.9217L43.1705 17.3116ZM37.7544 16.5924C33.8287 16.5924 30.3858 17.5429 27.4611 19.4748L28.3852 20.8738C30.9986 19.1476 34.1098 18.269 37.7544 18.269V16.5924ZM27.4582 19.4768C24.5589 21.4097 22.3413 24.2154 20.7887 27.8469L22.3304 28.506C23.7754 25.1261 25.8003 22.5971 28.3882 20.8719L27.4582 19.4768ZM20.7896 27.8449C19.2339 31.4573 18.473 35.8066 18.473 40.8656H20.1496C20.1496 35.9665 20.8876 31.8563 22.3295 28.5081L20.7896 27.8449ZM18.473 40.8656C18.473 45.947 19.2076 50.329 20.7077 53.9872L22.259 53.351C20.8631 49.9469 20.1496 45.7933 20.1496 40.8656H18.473ZM20.7077 53.9872C22.2086 57.6472 24.4008 60.4815 27.3013 62.442L28.2402 61.0529C25.6535 59.3045 23.6541 56.7531 22.259 53.351L20.7077 53.9872ZM27.3013 62.442C30.2071 64.4061 33.7059 65.3675 37.7544 65.3675V63.6908C33.9786 63.6908 30.8215 62.7977 28.2402 61.0529L27.3013 62.442ZM37.7544 65.3675C41.2956 65.3675 44.346 64.7951 46.8741 63.6118L46.1633 62.0933C43.9155 63.1454 41.123 63.6908 37.7544 63.6908V65.3675ZM46.8775 63.6101C49.4252 62.4033 51.3871 60.683 52.7255 58.4431L51.2862 57.5831C50.1351 59.5095 48.4388 61.0154 46.1598 62.0949L46.8775 63.6101ZM52.7255 58.4431C54.0598 56.2102 54.7114 53.6051 54.7114 50.6587H53.0347C53.0347 53.352 52.4415 55.6498 51.2862 57.5831L52.7255 58.4431ZM53.7735 51.4911L57.2792 51.9103L57.4783 50.2455L53.9726 49.8264L53.7735 51.4911ZM57.3787 50.2396H38.4022V51.9162H57.3787V50.2396ZM39.2405 51.0779V37.3218H37.5639V51.0779H39.2405ZM38.4022 38.1601H72.0494V36.4835H38.4022V38.1601ZM71.2111 37.3218V47.6484H72.8877V37.3218H71.2111ZM71.2111 47.6484C71.2111 54.5142 69.7514 60.3415 66.8712 65.1664L68.3108 66.0258C71.3751 60.8925 72.8877 54.7547 72.8877 47.6484H71.2111ZM66.8696 65.1691C64.0038 70.0114 60.0567 73.7248 55.0136 76.3205L55.7809 77.8113C61.1025 75.0722 65.2846 71.1391 68.3125 66.0231L66.8696 65.1691ZM55.0121 76.3213C49.9915 78.9182 44.1954 80.2286 37.602 80.2286V81.9053C44.4217 81.9053 50.4892 80.5484 55.7824 77.8105L55.0121 76.3213ZM37.602 80.2286C30.2832 80.2286 23.8893 78.6436 18.3939 75.4999L17.5614 76.9552C23.3452 80.264 30.0342 81.9053 37.602 81.9053V80.2286ZM18.3939 75.4999C12.898 72.3558 8.61339 67.877 5.53456 62.0421L4.05169 62.8246C7.27296 68.9294 11.7781 73.6468 17.5614 76.9552L18.3939 75.4999ZM5.53524 62.0434C2.46058 56.1917 0.906356 49.2181 0.906356 41.0943H-0.770287C-0.770287 49.432 0.825542 56.6845 4.051 62.8233L5.53524 62.0434ZM0.906356 41.0943C0.906356 34.7748 1.8468 29.2022 3.70839 24.362L2.14351 23.7602C0.194543 28.8275 -0.770287 34.6103 -0.770287 41.0943H0.906356ZM3.70891 24.3607C5.57697 19.4788 8.172 15.3631 11.4872 11.9984L10.2928 10.8217C6.79982 14.3668 4.08548 18.6851 2.14299 23.7615L3.70891 24.3607ZM11.485 12.0006C14.8335 8.62727 18.6991 6.07531 23.0872 4.33989L22.4706 2.78075C17.8659 4.60184 13.8055 7.28304 10.295 10.8195L11.485 12.0006ZM23.0857 4.34048C27.503 2.60334 32.263 1.73125 37.3733 1.73125V0.0546097C32.0682 0.0546097 27.0985 0.960779 22.4721 2.78015L23.0857 4.34048ZM37.3733 1.73125C41.8144 1.73125 45.9283 2.36731 49.7212 3.63162L50.2514 2.04101C46.2707 0.714137 41.976 0.0546097 37.3733 0.0546097V1.73125ZM49.7227 3.63213C53.5498 4.89955 56.9168 6.68431 59.8321 8.98192L60.8699 7.6651C57.7899 5.23763 54.2471 3.36426 50.2498 2.0405L49.7227 3.63213ZM59.8348 8.98405C62.775 11.2819 65.1546 14.0078 66.9796 17.1644L68.4311 16.3253C66.4963 12.9786 63.973 10.0902 60.8672 7.66298L59.8348 8.98405ZM66.9796 17.1644C68.7999 20.3131 69.934 23.7722 70.3785 27.5504L72.0436 27.3545C71.5736 23.3593 70.3705 19.6799 68.4311 16.3252L66.9796 17.1644ZM71.2111 26.6142H52.1202V28.2908H71.2111V26.6142ZM130.379 1.95989V1.12156H129.541V1.95989H130.379ZM149.204 1.95989H150.042V1.12156H149.204V1.95989ZM145.05 67.5014L145.755 67.9558L145.756 67.9539L145.05 67.5014ZM133.466 77.485L133.824 78.2432L133.827 78.2417L133.466 77.485ZM98.828 77.485L98.4671 78.2417L98.4703 78.2432L98.828 77.485ZM87.2821 67.5014L86.5744 67.9509L86.5757 67.9528L87.2821 67.5014ZM83.1667 1.95989V1.12156H82.3283V1.95989H83.1667ZM102.029 1.95989H102.867V1.12156H102.029V1.95989ZM103.782 57.8607L103.048 58.2671L103.052 58.2738L103.782 57.8607ZM108.774 62.8144L109.183 62.0828L109.183 62.0828L108.774 62.8144ZM123.597 62.8144L123.187 62.0828L123.184 62.0849L123.597 62.8144ZM130.379 2.79821H149.204V1.12156H130.379V2.79821ZM148.365 1.95989V52.2973H150.042V1.95989H148.365ZM148.365 52.2973C148.365 57.9764 147.016 62.8828 144.344 67.0489L145.756 67.9539C148.623 63.4827 150.042 58.253 150.042 52.2973H148.365ZM144.346 67.047C141.667 71.1998 137.929 74.4276 133.105 76.7284L133.827 78.2417C138.91 75.8174 142.895 72.3894 145.755 67.9558L144.346 67.047ZM133.108 76.7269C128.286 79.0019 122.659 80.1524 116.204 80.1524V81.8291C122.858 81.8291 128.738 80.6425 133.824 78.2432L133.108 76.7269ZM116.204 80.1524C109.672 80.1524 104.007 79.0013 99.1857 76.7269L98.4703 78.2432C103.557 80.6431 109.476 81.8291 116.204 81.8291V80.1524ZM99.1889 76.7284C94.3653 74.4279 90.6411 71.2009 87.9885 67.05L86.5757 67.9528C89.4102 72.3883 93.3834 75.8171 98.4672 78.2417L99.1889 76.7284ZM87.9897 67.0519C85.3427 62.8853 84.005 57.9779 84.005 52.2973H82.3283C82.3283 58.2516 83.7342 63.4802 86.5745 67.9509L87.9897 67.0519ZM84.005 52.2973V1.95989H82.3283V52.2973H84.005ZM83.1667 2.79821H102.029V1.12156H83.1667V2.79821ZM101.191 1.95989V50.6587H102.867V1.95989H101.191ZM101.191 50.6587C101.191 53.4768 101.803 56.0202 103.049 58.2671L104.515 57.4543C103.423 55.4842 102.867 53.2263 102.867 50.6587H101.191ZM103.052 58.2738C104.323 60.517 106.098 62.2779 108.364 63.546L109.183 62.0828C107.182 60.963 105.629 59.4214 104.511 57.4476L103.052 58.2738ZM108.364 63.546C110.641 64.82 113.263 65.4437 116.204 65.4437V63.767C113.505 63.767 111.174 63.1967 109.183 62.0828L108.364 63.546ZM116.204 65.4437C119.145 65.4437 121.756 64.8201 124.01 63.5439L123.184 62.0849C121.22 63.1966 118.903 63.767 116.204 63.767V65.4437ZM124.006 63.546C126.272 62.2779 128.048 60.517 129.318 58.2738L127.859 57.4476C126.741 59.4214 125.189 60.963 123.187 62.0828L124.006 63.546ZM129.318 58.2738C130.591 56.0257 131.218 53.4798 131.218 50.6587H129.541C129.541 53.2232 128.974 55.4787 127.859 57.4476L129.318 58.2738ZM131.218 50.6587V1.95989H129.541V50.6587H131.218ZM179.888 1.95989H180.726V1.12156H179.888V1.95989ZM179.888 80V80.8383H180.726V80H179.888ZM161.026 80H160.187V80.8383H161.026V80ZM161.026 1.95989V1.12156H160.187V1.95989H161.026ZM179.05 1.95989V80H180.726V1.95989H179.05ZM179.888 79.1617H161.026V80.8383H179.888V79.1617ZM161.864 80V1.95989H160.187V80H161.864ZM161.026 2.79821H179.888V1.12156H161.026V2.79821ZM191.729 80H190.891V80.8383H191.729V80ZM191.729 1.95989V1.12156H190.891V1.95989H191.729ZM210.592 1.95989H211.43V1.12156H210.592V1.95989ZM210.592 64.6816H209.753V65.5199H210.592V64.6816ZM243.057 64.6816H243.896V63.8433H243.057V64.6816ZM243.057 80V80.8383H243.896V80H243.057ZM192.568 80V1.95989H190.891V80H192.568ZM191.729 2.79821H210.592V1.12156H191.729V2.79821ZM209.753 1.95989V64.6816H211.43V1.95989H209.753ZM210.592 65.5199H243.057V63.8433H210.592V65.5199ZM242.219 64.6816V80H243.896V64.6816H242.219ZM243.057 79.1617H191.729V80.8383H243.057V79.1617ZM252.822 80H251.984V80.8383H252.822V80ZM252.822 1.95989V1.12156H251.984V1.95989H252.822ZM302.169 6.64687L301.768 7.38321L301.772 7.3853L302.169 6.64687ZM315.506 20.06L314.766 20.4554L314.767 20.4567L315.506 20.06ZM315.506 61.8999L314.766 61.5045L314.765 61.507L315.506 61.8999ZM302.207 75.3511L302.604 76.0896L302.606 76.0882L302.207 75.3511ZM271.684 63.9195H270.846V64.7578H271.684V63.9195ZM292.033 61.7093L292.4 62.4629L292.402 62.4617L292.033 61.7093ZM298.93 54.4312L298.17 54.077L298.169 54.0795L298.93 54.4312ZM298.93 27.5287L298.171 27.8851L298.172 27.8873L298.93 27.5287ZM291.956 20.2886L291.586 21.041L291.594 21.0446L291.956 20.2886ZM271.684 18.0404V17.2021H270.846V18.0404H271.684ZM281.668 79.1617H252.822V80.8383H281.668V79.1617ZM253.66 80V1.95989H251.984V80H253.66ZM252.822 2.79821H281.63V1.12156H252.822V2.79821ZM281.63 2.79821C289.471 2.79821 296.174 4.3385 301.768 7.3832L302.569 5.91054C296.681 2.70592 289.691 1.12156 281.63 1.12156V2.79821ZM301.772 7.3853C307.391 10.4054 311.719 14.7562 314.766 20.4554L316.245 19.6647C313.043 13.6781 308.479 9.08684 302.565 5.90844L301.772 7.3853ZM314.767 20.4567C317.813 26.1275 319.354 32.9454 319.354 40.9418H321.031C321.031 32.7307 319.448 25.6275 316.244 19.6633L314.767 20.4567ZM319.354 40.9418C319.354 48.964 317.813 55.8079 314.766 61.5045L316.245 62.2952C319.448 56.3061 321.031 49.178 321.031 40.9418H319.354ZM314.765 61.507C311.742 67.2054 307.428 71.5688 301.807 74.6141L302.606 76.0882C308.519 72.8842 313.07 68.2801 316.246 62.2927L314.765 61.507ZM301.81 74.6127C296.188 77.6339 289.484 79.1617 281.668 79.1617V80.8383C289.703 80.8383 296.692 79.2668 302.604 76.0896L301.81 74.6127ZM271.684 64.7578H280.944V63.0811H271.684V64.7578ZM280.944 64.7578C285.404 64.7578 289.233 64.0062 292.4 62.4629L291.665 60.9558C288.786 62.3593 285.223 63.0811 280.944 63.0811V64.7578ZM292.402 62.4617C295.639 60.8705 298.068 58.2943 299.691 54.7829L298.169 54.0795C296.692 57.2747 294.523 59.5506 291.663 60.957L292.402 62.4617ZM299.689 54.7854C301.336 51.2541 302.131 46.6221 302.131 40.9418H300.454C300.454 46.49 299.674 50.8509 298.17 54.077L299.689 54.7854ZM302.131 40.9418C302.131 35.2626 301.336 30.6534 299.687 27.1701L298.172 27.8873C299.673 31.0598 300.454 35.3926 300.454 40.9418H302.131ZM299.688 27.1723C298.039 23.6604 295.582 21.0971 292.319 19.5327L291.594 21.0446C294.478 22.4271 296.67 24.6904 298.171 27.8851L299.688 27.1723ZM292.326 19.5363C289.132 17.966 285.238 17.2021 280.677 17.2021V18.8787C285.059 18.8787 288.684 19.6137 291.586 21.041L292.326 19.5363ZM280.677 17.2021H271.684V18.8787H280.677V17.2021ZM270.846 18.0404V63.9195H272.523V18.0404H270.846Z" fill="#1DAEFF"/>
</svg>
