<svg width="132" height="82" viewBox="0 0 132 82" fill="none" xmlns="http://www.w3.org/2000/svg">
<path opacity="0.7" d="M-136.88 27.4525L-137.689 27.6709L-137.522 28.2908H-136.88V27.4525ZM-138.785 23.2228L-139.48 23.6911L-139.476 23.6977L-138.785 23.2228ZM-146.063 18.1166L-146.297 18.9218L-146.285 18.9251L-146.063 18.1166ZM-161.077 20.1743L-161.539 19.4748L-161.542 19.4768L-161.077 20.1743ZM-167.44 28.1765L-166.67 28.5081L-166.67 28.506L-167.44 28.1765ZM-167.517 53.6691L-166.741 53.351L-166.741 53.351L-167.517 53.6691ZM-161.229 61.7475L-160.76 61.0529L-160.76 61.0529L-161.229 61.7475ZM-142.481 62.8525L-142.126 63.6118L-142.122 63.6101L-142.481 62.8525ZM-136.994 58.0131L-137.714 57.5831L-137.714 57.5831L-136.994 58.0131ZM-135.127 50.6587L-135.027 49.8264L-135.965 49.7142V50.6587H-135.127ZM-131.621 51.0779V51.9162L-131.522 50.2455L-131.621 51.0779ZM-150.598 51.0779H-151.436V51.9162H-150.598V51.0779ZM-150.598 37.3218V36.4835H-151.436V37.3218H-150.598ZM-116.951 37.3218H-116.112V36.4835H-116.951V37.3218ZM-121.409 65.5961L-122.129 65.1664L-122.13 65.1691L-121.409 65.5961ZM-133.603 77.0659L-133.986 76.3205L-133.988 76.3213L-133.603 77.0659ZM-171.022 76.2276L-170.606 75.4999L-170.606 75.4999L-171.022 76.2276ZM-184.207 62.4334L-184.949 62.8233L-184.948 62.8246L-184.207 62.4334ZM-186.074 24.0611L-185.292 24.362L-185.291 24.3607L-186.074 24.0611ZM-178.11 11.4101L-178.705 10.8195L-178.707 10.8217L-178.11 11.4101ZM-166.221 3.56032L-166.528 2.78015L-166.529 2.78075L-166.221 3.56032ZM-139.014 2.83631L-139.279 3.63162L-139.277 3.63213L-139.014 2.83631ZM-128.649 8.32351L-129.168 8.98193L-129.165 8.98405L-128.649 8.32351ZM-121.295 16.7448L-122.02 17.1644L-122.02 17.1644L-121.295 16.7448ZM-117.789 27.4525V28.2908H-116.846L-116.956 27.3545L-117.789 27.4525ZM-136.07 27.2341C-136.524 25.553 -137.196 24.0542 -138.094 22.7478L-139.476 23.6977C-138.697 24.8301 -138.099 26.1511 -137.689 27.6709L-136.07 27.2341ZM-138.09 22.7545C-138.984 21.426 -140.085 20.2985 -141.387 19.3759L-142.356 20.7441C-141.22 21.549 -140.262 22.53 -139.48 23.6911L-138.09 22.7545ZM-141.387 19.3759C-142.693 18.4507 -144.181 17.7634 -145.842 17.3081L-146.285 18.9251C-144.795 19.3335 -143.489 19.9419 -142.356 20.7441L-141.387 19.3759ZM-145.83 17.3116C-147.491 16.8293 -149.298 16.5924 -151.246 16.5924V18.269C-149.434 18.269 -147.786 18.4894 -146.297 18.9217L-145.83 17.3116ZM-151.246 16.5924C-155.171 16.5924 -158.614 17.5429 -161.539 19.4748L-160.615 20.8738C-158.001 19.1476 -154.89 18.269 -151.246 18.269V16.5924ZM-161.542 19.4768C-164.441 21.4097 -166.659 24.2154 -168.211 27.8469L-166.67 28.506C-165.225 25.1261 -163.2 22.5971 -160.612 20.8719L-161.542 19.4768ZM-168.21 27.8449C-169.766 31.4573 -170.527 35.8066 -170.527 40.8656H-168.85C-168.85 35.9665 -168.112 31.8563 -166.67 28.5081L-168.21 27.8449ZM-170.527 40.8656C-170.527 45.947 -169.792 50.329 -168.292 53.9872L-166.741 53.351C-168.137 49.9469 -168.85 45.7933 -168.85 40.8656H-170.527ZM-168.292 53.9872C-166.791 57.6472 -164.599 60.4815 -161.699 62.442L-160.76 61.0529C-163.346 59.3045 -165.346 56.7531 -166.741 53.351L-168.292 53.9872ZM-161.699 62.442C-158.793 64.4061 -155.294 65.3675 -151.246 65.3675V63.6908C-155.021 63.6908 -158.178 62.7977 -160.76 61.0529L-161.699 62.442ZM-151.246 65.3675C-147.704 65.3675 -144.654 64.7951 -142.126 63.6118L-142.837 62.0933C-145.085 63.1454 -147.877 63.6908 -151.246 63.6908V65.3675ZM-142.122 63.6101C-139.575 62.4033 -137.613 60.683 -136.275 58.4431L-137.714 57.5831C-138.865 59.5095 -140.561 61.0154 -142.84 62.0949L-142.122 63.6101ZM-136.275 58.4431C-134.94 56.2102 -134.289 53.6051 -134.289 50.6587H-135.965C-135.965 53.352 -136.559 55.6498 -137.714 57.5831L-136.275 58.4431ZM-135.226 51.4911L-131.721 51.9103L-131.522 50.2455L-135.027 49.8264L-135.226 51.4911ZM-131.621 50.2396H-150.598V51.9162H-131.621V50.2396ZM-149.759 51.0779V37.3218H-151.436V51.0779H-149.759ZM-150.598 38.1601H-116.951V36.4835H-150.598V38.1601ZM-117.789 37.3218V47.6484H-116.112V37.3218H-117.789ZM-117.789 47.6484C-117.789 54.5142 -119.249 60.3415 -122.129 65.1664L-120.689 66.0258C-117.625 60.8925 -116.112 54.7547 -116.112 47.6484H-117.789ZM-122.13 65.1691C-124.996 70.0114 -128.943 73.7248 -133.986 76.3205L-133.219 77.8113C-127.898 75.0722 -123.715 71.1391 -120.688 66.0231L-122.13 65.1691ZM-133.988 76.3213C-139.009 78.9182 -144.805 80.2286 -151.398 80.2286V81.9053C-144.578 81.9053 -138.511 80.5484 -133.218 77.8105L-133.988 76.3213ZM-151.398 80.2286C-158.717 80.2286 -165.111 78.6436 -170.606 75.4999L-171.439 76.9552C-165.655 80.264 -158.966 81.9053 -151.398 81.9053V80.2286ZM-170.606 75.4999C-176.102 72.3558 -180.387 67.877 -183.465 62.0421L-184.948 62.8246C-181.727 68.9294 -177.222 73.6468 -171.439 76.9552L-170.606 75.4999ZM-183.465 62.0434C-186.539 56.1917 -188.094 49.2181 -188.094 41.0943H-189.77C-189.77 49.432 -188.174 56.6845 -184.949 62.8233L-183.465 62.0434ZM-188.094 41.0943C-188.094 34.7748 -187.153 29.2022 -185.292 24.362L-186.856 23.7602C-188.805 28.8275 -189.77 34.6103 -189.77 41.0943H-188.094ZM-185.291 24.3607C-183.423 19.4788 -180.828 15.3631 -177.513 11.9984L-178.707 10.8217C-182.2 14.3668 -184.915 18.6851 -186.857 23.7615L-185.291 24.3607ZM-177.515 12.0006C-174.166 8.62727 -170.301 6.07531 -165.913 4.33989L-166.529 2.78075C-171.134 4.60184 -175.195 7.28304 -178.705 10.8195L-177.515 12.0006ZM-165.914 4.34048C-161.497 2.60334 -156.737 1.73125 -151.627 1.73125V0.0546097C-156.932 0.0546097 -161.901 0.960779 -166.528 2.78015L-165.914 4.34048ZM-151.627 1.73125C-147.186 1.73125 -143.072 2.36731 -139.279 3.63162L-138.749 2.04101C-142.729 0.714137 -147.024 0.0546097 -151.627 0.0546097V1.73125ZM-139.277 3.63213C-135.45 4.89955 -132.083 6.68431 -129.168 8.98192L-128.13 7.6651C-131.21 5.23763 -134.753 3.36426 -138.75 2.0405L-139.277 3.63213ZM-129.165 8.98405C-126.225 11.2819 -123.845 14.0078 -122.02 17.1644L-120.569 16.3253C-122.504 12.9786 -125.027 10.0902 -128.133 7.66298L-129.165 8.98405ZM-122.02 17.1644C-120.2 20.3131 -119.066 23.7722 -118.622 27.5504L-116.956 27.3545C-117.426 23.3593 -118.629 19.6799 -120.569 16.3252L-122.02 17.1644ZM-117.789 26.6142H-136.88V28.2908H-117.789V26.6142ZM-58.6206 1.95989V1.12156H-59.4589V1.95989H-58.6206ZM-39.7965 1.95989H-38.9581V1.12156H-39.7965V1.95989ZM-43.95 67.5014L-43.2455 67.9558L-43.2443 67.9539L-43.95 67.5014ZM-55.5341 77.485L-55.1763 78.2432L-55.1732 78.2417L-55.5341 77.485ZM-90.172 77.485L-90.5329 78.2417L-90.5297 78.2432L-90.172 77.485ZM-101.718 67.5014L-102.426 67.9509L-102.424 67.9528L-101.718 67.5014ZM-105.833 1.95989V1.12156H-106.672V1.95989H-105.833ZM-86.9711 1.95989H-86.1328V1.12156H-86.9711V1.95989ZM-85.2183 57.8607L-85.9515 58.2671L-85.9477 58.2738L-85.2183 57.8607ZM-80.2264 62.8144L-79.8171 62.0828L-79.8171 62.0828L-80.2264 62.8144ZM-65.4034 62.8144L-65.8127 62.0828L-65.8165 62.0849L-65.4034 62.8144ZM-58.6206 2.79821H-39.7965V1.12156H-58.6206V2.79821ZM-40.6348 1.95989V52.2973H-38.9581V1.95989H-40.6348ZM-40.6348 52.2973C-40.6348 57.9764 -41.9845 62.8828 -44.6557 67.0489L-43.2443 67.9539C-40.3775 63.4827 -38.9581 58.253 -38.9581 52.2973H-40.6348ZM-44.6545 67.047C-47.3329 71.1998 -51.0707 74.4276 -55.8949 76.7284L-55.1732 78.2417C-50.0899 75.8174 -46.105 72.3894 -43.2455 67.9558L-44.6545 67.047ZM-55.8918 76.7269C-60.7138 79.0019 -66.3414 80.1524 -72.7959 80.1524V81.8291C-66.142 81.8291 -60.2618 80.6425 -55.1763 78.2432L-55.8918 76.7269ZM-72.7959 80.1524C-79.3281 80.1524 -84.9935 79.0013 -89.8143 76.7269L-90.5297 78.2432C-85.443 80.6431 -79.5243 81.8291 -72.7959 81.8291V80.1524ZM-89.8111 76.7284C-94.6347 74.4279 -98.3589 71.2009 -101.012 67.05L-102.424 67.9528C-99.5898 72.3883 -95.6166 75.8171 -90.5328 78.2417L-89.8111 76.7284ZM-101.01 67.0519C-103.657 62.8853 -104.995 57.9779 -104.995 52.2973H-106.672C-106.672 58.2516 -105.266 63.4802 -102.426 67.9509L-101.01 67.0519ZM-104.995 52.2973V1.95989H-106.672V52.2973H-104.995ZM-105.833 2.79821H-86.9711V1.12156H-105.833V2.79821ZM-87.8094 1.95989V50.6587H-86.1328V1.95989H-87.8094ZM-87.8094 50.6587C-87.8094 53.4768 -87.1968 56.0202 -85.9515 58.2671L-84.485 57.4543C-85.5769 55.4842 -86.1328 53.2263 -86.1328 50.6587H-87.8094ZM-85.9477 58.2738C-84.6775 60.517 -82.9022 62.2779 -80.6358 63.546L-79.8171 62.0828C-81.8185 60.963 -83.3711 59.4214 -84.4888 57.4476L-85.9477 58.2738ZM-80.6358 63.546C-78.3588 64.82 -75.7368 65.4437 -72.7959 65.4437V63.767C-75.4945 63.767 -77.8263 63.1967 -79.8171 62.0828L-80.6358 63.546ZM-72.7959 65.4437C-69.8552 65.4437 -67.2441 64.8201 -64.9903 63.5439L-65.8165 62.0849C-67.7797 63.1966 -70.0969 63.767 -72.7959 63.767V65.4437ZM-64.994 63.546C-62.7276 62.2779 -60.9523 60.517 -59.6821 58.2738L-61.141 57.4476C-62.2587 59.4214 -63.8114 60.963 -65.8127 62.0828L-64.994 63.546ZM-59.6821 58.2738C-58.4091 56.0257 -57.7823 53.4798 -57.7823 50.6587H-59.4589C-59.4589 53.2232 -60.0261 55.4787 -61.141 57.4476L-59.6821 58.2738ZM-57.7823 50.6587V1.95989H-59.4589V50.6587H-57.7823ZM-9.11199 1.95989H-8.27367V1.12156H-9.11199V1.95989ZM-9.11199 80V80.8383H-8.27367V80H-9.11199ZM-27.9742 80H-28.8125V80.8383H-27.9742V80ZM-27.9742 1.95989V1.12156H-28.8125V1.95989H-27.9742ZM-9.95032 1.95989V80H-8.27367V1.95989H-9.95032ZM-9.11199 79.1617H-27.9742V80.8383H-9.11199V79.1617ZM-27.1359 80V1.95989H-28.8125V80H-27.1359ZM-27.9742 2.79821H-9.11199V1.12156H-27.9742V2.79821ZM2.72929 80H1.89097V80.8383H2.72929V80ZM2.72929 1.95989V1.12156H1.89097V1.95989H2.72929ZM21.5915 1.95989H22.4298V1.12156H21.5915V1.95989ZM21.5915 64.6816H20.7532V65.5199H21.5915V64.6816ZM54.0574 64.6816H54.8958V63.8433H54.0574V64.6816ZM54.0574 80V80.8383H54.8958V80H54.0574ZM3.56761 80V1.95989H1.89097V80H3.56761ZM2.72929 2.79821H21.5915V1.12156H2.72929V2.79821ZM20.7532 1.95989V64.6816H22.4298V1.95989H20.7532ZM21.5915 65.5199H54.0574V63.8433H21.5915V65.5199ZM53.2191 64.6816V80H54.8958V64.6816H53.2191ZM54.0574 79.1617H2.72929V80.8383H54.0574V79.1617ZM63.822 80H62.9837V80.8383H63.822V80ZM63.822 1.95989V1.12156H62.9837V1.95989H63.822ZM113.169 6.64687L112.768 7.38321L112.772 7.3853L113.169 6.64687ZM126.506 20.06L125.766 20.4554L125.767 20.4567L126.506 20.06ZM126.506 61.8999L125.766 61.5045L125.765 61.507L126.506 61.8999ZM113.207 75.3511L113.604 76.0896L113.606 76.0882L113.207 75.3511ZM82.6842 63.9195H81.8459V64.7578H82.6842V63.9195ZM103.033 61.7093L103.4 62.4629L103.402 62.4617L103.033 61.7093ZM109.93 54.4312L109.17 54.077L109.169 54.0795L109.93 54.4312ZM109.93 27.5287L109.171 27.8851L109.172 27.8873L109.93 27.5287ZM102.956 20.2886L102.586 21.041L102.594 21.0446L102.956 20.2886ZM82.6842 18.0404V17.2021H81.8459V18.0404H82.6842ZM92.6679 79.1617H63.822V80.8383H92.6679V79.1617ZM64.6603 80V1.95989H62.9837V80H64.6603ZM63.822 2.79821H92.6298V1.12156H63.822V2.79821ZM92.6298 2.79821C100.471 2.79821 107.174 4.3385 112.768 7.3832L113.569 5.91054C107.681 2.70592 100.691 1.12156 92.6298 1.12156V2.79821ZM112.772 7.3853C118.391 10.4054 122.719 14.7562 125.766 20.4554L127.245 19.6647C124.043 13.6781 119.479 9.08684 113.565 5.90844L112.772 7.3853ZM125.767 20.4567C128.813 26.1275 130.354 32.9454 130.354 40.9418H132.031C132.031 32.7307 130.448 25.6275 127.244 19.6633L125.767 20.4567ZM130.354 40.9418C130.354 48.964 128.813 55.8079 125.766 61.5045L127.245 62.2952C130.448 56.3061 132.031 49.178 132.031 40.9418H130.354ZM125.765 61.507C122.742 67.2054 118.428 71.5688 112.807 74.6141L113.606 76.0882C119.519 72.8842 124.07 68.2801 127.246 62.2927L125.765 61.507ZM112.81 74.6127C107.188 77.6339 100.484 79.1617 92.6679 79.1617V80.8383C100.703 80.8383 107.692 79.2668 113.604 76.0896L112.81 74.6127ZM82.6842 64.7578H91.9439V63.0811H82.6842V64.7578ZM91.9439 64.7578C96.4039 64.7578 100.233 64.0062 103.4 62.4629L102.665 60.9558C99.7856 62.3593 96.2227 63.0811 91.9439 63.0811V64.7578ZM103.402 62.4617C106.639 60.8705 109.068 58.2943 110.691 54.7829L109.169 54.0795C107.692 57.2747 105.523 59.5506 102.663 60.957L103.402 62.4617ZM110.689 54.7854C112.336 51.2541 113.131 46.6221 113.131 40.9418H111.454C111.454 46.49 110.674 50.8509 109.17 54.077L110.689 54.7854ZM113.131 40.9418C113.131 35.2626 112.336 30.6534 110.687 27.1701L109.172 27.8873C110.673 31.0598 111.454 35.3926 111.454 40.9418H113.131ZM110.688 27.1723C109.039 23.6604 106.582 21.0971 103.319 19.5327L102.594 21.0446C105.478 22.4271 107.67 24.6904 109.171 27.8851L110.688 27.1723ZM103.326 19.5363C100.132 17.966 96.2375 17.2021 91.6771 17.2021V18.8787C96.0588 18.8787 99.6836 19.6137 102.586 21.041L103.326 19.5363ZM91.6771 17.2021H82.6842V18.8787H91.6771V17.2021ZM81.8459 18.0404V63.9195H83.5225V18.0404H81.8459Z" fill="#1DAEFF"/>
</svg>
