<svg width="1933" height="1447" viewBox="0 0 1933 1447" fill="none" xmlns="http://www.w3.org/2000/svg">
<path opacity="0.0144928" d="M1424.13 1220.45L1599.15 1057.35C1602.07 1054.63 1603.71 1050.81 1603.7 1046.76L1602.65 710.868C1602.64 707.619 1601.56 704.413 1599.59 701.726L1418.99 455.843C1415.6 451.225 1409.99 448.722 1404.4 449.335L1188.44 473C1182.85 473.613 1178.2 477.241 1176.34 482.434L1077.41 758.949C1076.33 761.971 1076.28 765.299 1077.27 768.442L1179.5 1093.25C1180.74 1097.17 1183.49 1100.5 1187.15 1102.5L1406.42 1222.39C1412.3 1225.61 1419.43 1224.82 1424.13 1220.45Z" stroke="url(#paint0_linear_604_268)" stroke-width="2.64516"/>
<path opacity="0.0289855" d="M1385.35 1218.81L1568.44 1066.27C1571.53 1063.7 1573.39 1059.96 1573.6 1055.9L1591.08 724.15C1591.25 720.879 1590.34 717.599 1588.5 714.801L1422.48 463.106C1419.34 458.346 1413.89 455.583 1408.3 455.914L1192.14 468.698C1186.55 469.029 1181.72 472.401 1179.57 477.472L1065.95 745.706C1064.69 748.688 1064.45 752.036 1065.27 755.247L1149.01 1081.01C1150.04 1085 1152.62 1088.47 1156.18 1090.65L1367.67 1219.86C1373.34 1223.32 1380.45 1222.9 1385.35 1218.81Z" stroke="url(#paint1_linear_604_268)" stroke-width="2.64516"/>
<path opacity="0.0434783" d="M1346.84 1216.05L1537.33 1074.39C1540.57 1071.98 1542.65 1068.33 1543.09 1064.27L1578.7 737.56C1579.06 734.281 1578.33 730.936 1576.62 728.035L1425.38 471.315C1422.5 466.427 1417.22 463.413 1411.63 463.464L1195.9 465.45C1190.31 465.502 1185.31 468.61 1182.88 473.547L1055.16 732.835C1053.72 735.765 1053.29 739.121 1053.95 742.391L1119.29 1068.17C1120.11 1072.22 1122.51 1075.83 1125.97 1078.18L1329.21 1216.22C1334.66 1219.92 1341.73 1219.85 1346.84 1216.05Z" stroke="url(#paint2_linear_604_268)" stroke-width="2.64516"/>
<path opacity="0.057971" d="M1308.65 1212.21L1505.87 1081.7C1509.25 1079.46 1511.54 1075.91 1512.22 1071.87L1565.52 751.057C1566.06 747.78 1565.51 744.381 1563.94 741.384L1427.63 480.428C1425.02 475.425 1419.93 472.17 1414.36 471.944L1199.64 463.247C1194.08 463.022 1188.92 465.862 1186.22 470.649L1045.02 720.365C1043.4 723.233 1042.78 726.585 1043.26 729.903L1090.39 1054.78C1090.98 1058.88 1093.2 1062.61 1096.54 1065.12L1291.11 1211.5C1296.33 1215.43 1303.36 1215.71 1308.65 1212.21Z" stroke="url(#paint3_linear_604_268)" stroke-width="2.64516"/>
<path opacity="0.0724638" d="M1270.84 1207.3L1474.1 1088.19C1477.62 1086.13 1480.12 1082.7 1481.02 1078.68L1551.53 764.597C1552.26 761.334 1551.89 757.893 1550.47 754.809L1429.19 490.402C1426.85 485.297 1421.95 481.812 1416.41 481.312L1203.32 462.078C1197.79 461.578 1192.5 464.144 1189.52 468.769L1035.5 708.326C1033.71 711.12 1032.9 714.455 1033.2 717.811L1062.31 1040.89C1062.69 1045.02 1064.71 1048.86 1067.92 1051.53L1253.43 1205.73C1258.42 1209.88 1265.38 1210.5 1270.84 1207.3Z" stroke="url(#paint4_linear_604_268)" stroke-width="2.64516"/>
<path opacity="0.0869565" d="M1233.47 1201.37L1442.08 1093.86C1445.72 1091.98 1448.42 1088.68 1449.55 1084.71L1536.73 778.137C1537.65 774.901 1537.46 771.429 1536.21 768.268L1430.01 501.191C1427.94 495.998 1423.25 492.293 1417.76 491.522L1206.87 461.926C1201.38 461.155 1195.97 463.441 1192.74 467.891L1026.58 696.745C1024.61 699.453 1023.61 702.759 1023.73 706.141L1035.1 1026.54C1035.25 1030.69 1037.07 1034.63 1040.15 1037.45L1216.23 1198.95C1220.97 1203.3 1227.85 1204.27 1233.47 1201.37Z" stroke="url(#paint5_linear_604_268)" stroke-width="2.64516"/>
<path opacity="0.101449" d="M1196.59 1194.45L1409.84 1098.7C1413.6 1097.01 1416.49 1093.85 1417.85 1089.93L1521.12 791.636C1522.23 788.439 1522.24 784.949 1521.14 781.72L1430.04 512.748C1428.26 507.479 1423.78 503.566 1418.34 502.527L1210.24 462.775C1204.81 461.737 1199.28 463.738 1195.8 468.001L1018.21 685.647C1016.08 688.259 1014.89 691.523 1014.82 694.919L1008.76 1011.79C1008.68 1015.94 1010.3 1019.97 1013.23 1022.94L1179.56 1191.2C1184.05 1195.74 1190.84 1197.04 1196.59 1194.45Z" stroke="url(#paint6_linear_604_268)" stroke-width="2.64516"/>
<path opacity="0.115942" d="M1160.27 1186.58L1377.44 1102.72C1381.31 1101.22 1384.39 1098.21 1385.96 1094.37L1504.73 805.052C1506.02 801.906 1506.22 798.41 1505.29 795.124L1429.26 525.022C1427.76 519.692 1423.5 515.58 1418.13 514.278L1213.38 464.602C1208.01 463.301 1202.38 465.014 1198.67 469.078L1010.38 675.055C1008.09 677.561 1006.71 680.77 1006.46 684.168L983.328 996.683C983.021 1000.83 984.42 1004.94 987.202 1008.04L1143.47 1182.5C1147.7 1187.22 1154.39 1188.85 1160.27 1186.58Z" stroke="url(#paint7_linear_604_268)" stroke-width="2.64516"/>
<path opacity="0.130435" d="M1124.55 1177.79L1344.93 1105.9C1348.89 1104.61 1352.14 1101.76 1353.94 1098L1487.54 818.345C1489.01 815.262 1489.41 811.773 1488.65 808.44L1427.62 537.963C1426.4 532.586 1422.37 528.286 1417.09 526.724L1216.22 467.386C1210.93 465.825 1205.21 467.245 1201.27 471.1L1003.06 664.991C1000.61 667.38 999.048 670.522 998.609 673.911L958.804 981.274C958.269 985.402 959.45 989.569 962.071 992.803L1108.01 1172.91C1111.98 1177.8 1118.56 1179.74 1124.55 1177.79Z" stroke="url(#paint8_linear_604_268)" stroke-width="2.64516"/>
<path opacity="0.144928" d="M1089.48 1168.13L1312.35 1108.27C1316.39 1107.18 1319.81 1104.5 1321.82 1100.84L1469.58 831.474C1471.23 828.467 1471.82 824.997 1471.24 821.629L1425.08 551.518C1424.16 546.107 1420.37 541.631 1415.17 539.813L1218.72 471.101C1213.52 469.283 1207.73 470.409 1203.58 474.043L996.199 655.476C993.613 657.739 991.865 660.801 991.239 664.167L935.205 965.614C934.444 969.708 935.402 973.925 937.854 977.28L1073.24 1162.45C1076.94 1167.51 1083.39 1169.77 1089.48 1168.13Z" stroke="url(#paint9_linear_604_268)" stroke-width="2.64516"/>
<path opacity="0.15942" d="M1055.1 1157.65L1279.75 1109.81C1283.86 1108.94 1287.43 1106.43 1289.65 1102.88L1450.86 844.402C1452.69 841.482 1453.46 838.044 1453.06 834.651L1421.63 565.633C1420.99 560.202 1417.45 555.56 1412.35 553.492L1220.82 475.717C1215.73 473.648 1209.88 474.475 1205.52 477.88L989.776 646.527C987.055 648.654 985.132 651.625 984.321 654.957L912.538 949.754C911.553 953.801 912.285 958.055 914.563 961.521L1039.19 1151.19C1042.62 1156.4 1048.93 1158.96 1055.1 1157.65Z" stroke="url(#paint10_linear_604_268)" stroke-width="2.64516"/>
<path opacity="0.173913" d="M1021.46 1146.39L1247.18 1110.55C1251.34 1109.89 1255.06 1107.57 1257.47 1104.15L1431.4 857.091C1433.39 854.268 1434.35 850.876 1434.14 847.469L1417.23 580.253C1416.89 574.816 1413.59 570.02 1408.61 567.705L1222.48 481.204C1217.5 478.889 1211.61 479.415 1207.06 482.581L983.755 638.159C980.908 640.143 978.816 643.012 977.822 646.296L890.811 933.745C889.604 937.731 890.108 942.01 892.205 945.579L1005.91 1139.17C1009.06 1144.51 1015.22 1147.38 1021.46 1146.39Z" stroke="url(#paint11_linear_604_268)" stroke-width="2.64516"/>
<path opacity="0.188406" d="M988.595 1134.4L1214.67 1110.49C1218.87 1110.04 1222.73 1107.92 1225.33 1104.63L1411.21 869.506C1413.35 866.791 1414.5 863.455 1414.47 860.046L1411.86 595.323C1411.81 589.894 1408.77 584.954 1403.91 582.398L1223.65 487.53C1218.8 484.974 1212.87 485.197 1208.16 488.115L978.1 630.389C975.136 632.221 972.883 634.977 971.709 638.203L870.024 917.639C868.6 921.551 868.875 925.841 870.784 929.503L973.443 1126.43C976.298 1131.91 982.308 1135.07 988.595 1134.4Z" stroke="url(#paint12_linear_604_268)" stroke-width="2.64516"/>
<path opacity="0.202899" d="M956.542 1121.74L1182.28 1109.64C1186.51 1109.41 1190.49 1107.5 1193.27 1104.35L1390.31 881.61C1392.61 879.013 1393.94 875.746 1394.09 872.345L1405.51 610.786C1405.74 605.378 1402.97 600.306 1398.24 597.514L1224.3 494.659C1219.57 491.866 1213.63 491.786 1208.75 494.449L972.776 623.226C969.707 624.901 967.3 627.533 965.951 630.69L850.178 901.485C848.542 905.311 848.588 909.6 850.305 913.346L941.814 1113.03C944.377 1118.62 950.218 1122.07 956.542 1121.74Z" stroke="url(#paint13_linear_604_268)" stroke-width="2.64516"/>
<path opacity="0.217391" d="M925.332 1108.44L1150.04 1108.02C1154.29 1108.01 1158.38 1106.31 1161.33 1103.32L1368.73 893.371C1371.16 890.901 1372.67 887.713 1373 884.331L1398.15 626.586C1398.67 621.212 1396.16 616.019 1391.59 612.996L1224.36 502.554C1219.78 499.531 1213.85 499.146 1208.82 501.547L967.746 616.682C964.583 618.193 962.032 620.692 960.512 623.769L831.268 885.334C829.427 889.062 829.244 893.338 830.763 897.157L911.06 1099.01C913.327 1104.72 918.986 1108.45 925.332 1108.44Z" stroke="url(#paint14_linear_604_268)" stroke-width="2.64516"/>
<path opacity="0.231884" d="M894.995 1094.57L1118 1105.65C1122.26 1105.86 1126.44 1104.38 1129.56 1101.55L1346.48 904.756C1349.05 902.421 1350.73 899.324 1351.24 895.972L1389.77 642.664C1390.58 637.338 1388.35 632.036 1383.93 628.789L1223.81 511.176C1219.39 507.929 1213.47 507.239 1208.31 509.371L962.976 610.765C959.73 612.107 957.043 614.465 955.358 617.452L813.29 869.235C811.249 872.853 810.839 877.103 812.157 880.986L881.21 1084.45C883.177 1090.24 888.642 1094.26 894.995 1094.57Z" stroke="url(#paint15_linear_604_268)" stroke-width="2.64516"/>
<path opacity="0.246377" d="M865.554 1080.18L1086.21 1102.55C1090.45 1102.98 1094.71 1101.72 1097.98 1099.06L1323.6 915.735C1326.29 913.544 1328.14 910.546 1328.83 907.234L1380.37 658.964C1381.46 653.699 1379.51 648.3 1375.25 644.835L1222.62 520.485C1218.36 517.02 1212.47 516.026 1207.19 517.884L958.429 605.481C955.111 606.65 952.299 608.859 950.455 611.746L796.234 853.237C794 856.735 793.365 860.948 794.478 864.884L852.29 1069.37C853.952 1075.25 859.212 1079.54 865.554 1080.18Z" stroke="url(#paint16_linear_604_268)" stroke-width="2.64516"/>
<path opacity="0.26087" d="M837.033 1065.32L1054.68 1098.73C1058.91 1099.38 1063.24 1098.34 1066.64 1095.87L1300.1 926.28C1302.92 924.238 1304.92 921.349 1305.78 918.087L1369.94 675.429C1371.31 670.239 1369.64 664.754 1365.56 661.078L1220.73 530.439C1216.66 526.763 1210.81 525.466 1205.43 527.044L954.069 600.835C950.69 601.827 947.763 603.881 945.767 606.66L780.087 837.387C777.669 840.755 776.811 844.918 777.716 848.898L824.323 1053.86C825.675 1059.8 830.716 1064.35 837.033 1065.32Z" stroke="url(#paint17_linear_604_268)" stroke-width="2.64516"/>
<path opacity="0.275362" d="M809.449 1050.05L1023.48 1094.22C1027.67 1095.09 1032.05 1094.28 1035.58 1091.99L1276.03 936.363C1278.95 934.476 1281.1 931.703 1282.13 928.501L1358.47 692.002C1360.12 686.898 1358.73 681.341 1354.85 677.462L1218.13 540.993C1214.25 537.114 1208.46 535.516 1203 536.811L949.859 596.829C946.43 597.642 943.398 599.535 941.258 602.198L764.836 821.732C762.241 824.961 761.164 829.063 761.859 833.076L797.326 1037.95C798.365 1043.95 803.175 1048.75 809.449 1050.05Z" stroke="url(#paint18_linear_604_268)" stroke-width="2.64516"/>
<path opacity="0.289855" d="M782.818 1034.42L992.621 1089.05C996.766 1090.12 1001.18 1089.55 1004.84 1087.45L1251.4 945.958C1254.41 944.231 1256.71 941.583 1257.91 938.448L1345.98 708.626C1347.89 703.621 1346.8 698.004 1343.11 693.93L1214.79 552.103C1211.1 548.029 1205.4 546.133 1199.86 547.141L945.762 593.465C942.296 594.097 939.17 595.823 936.893 598.363L750.462 806.316C747.7 809.398 746.408 813.429 746.891 817.465L771.314 1021.7C772.038 1027.75 776.603 1032.8 782.818 1034.42Z" stroke="url(#paint19_linear_604_268)" stroke-width="2.64516"/>
<path opacity="0.304348" d="M757.151 1018.48L962.149 1083.23C966.236 1084.52 970.68 1084.18 974.439 1082.28L1226.25 955.042C1229.35 953.478 1231.78 950.962 1233.14 947.904L1332.45 725.246C1334.64 720.353 1333.84 714.688 1330.36 710.428L1210.67 563.723C1207.2 559.464 1201.59 557.273 1196 557.992L941.745 590.741C938.252 591.191 935.042 592.747 932.636 595.157L736.948 791.185C734.027 794.111 732.525 798.061 732.794 802.109L746.3 1005.18C746.705 1011.26 751.013 1016.54 757.151 1018.48Z" stroke="url(#paint20_linear_604_268)" stroke-width="2.64516"/>
<path opacity="0.318841" d="M732.455 1002.3L932.095 1076.8C936.111 1078.3 940.566 1078.19 944.418 1076.49L1200.61 963.592C1203.78 962.196 1206.34 959.817 1207.86 956.842L1317.92 741.806C1320.36 737.036 1319.85 731.337 1316.6 726.902L1205.76 575.806C1202.51 571.37 1197.01 568.889 1191.38 569.318L937.769 588.654C934.261 588.922 930.977 590.305 928.451 592.579L724.269 776.379C721.199 779.143 719.492 783.002 719.547 787.053L722.291 988.444C722.374 994.541 726.411 1000.04 732.455 1002.3Z" stroke="url(#paint21_linear_604_268)" stroke-width="2.64516"/>
<path opacity="0.333333" d="M708.737 985.922L902.489 1069.78C906.422 1071.49 910.875 1071.61 914.809 1070.11L1174.52 971.588C1177.75 970.362 1180.42 968.125 1182.1 965.242L1302.37 758.252C1305.06 753.619 1304.86 747.899 1301.84 743.298L1200.04 588.304C1197.01 583.702 1191.65 580.937 1186 581.074L933.801 587.201C930.288 587.286 926.941 588.493 924.303 590.627L712.402 761.941C709.193 764.536 707.285 768.294 707.126 772.338L699.292 971.542C699.052 977.64 702.805 983.354 708.737 985.922Z" stroke="url(#paint22_linear_604_268)" stroke-width="2.64516"/>
<path opacity="0.347826" d="M685.996 969.403L873.359 1062.21C877.197 1064.12 881.636 1064.46 885.64 1063.18L1148 979.012C1151.29 977.957 1154.07 975.868 1155.89 973.082L1285.83 774.533C1288.77 770.046 1288.87 764.32 1286.09 759.564L1193.48 601.168C1190.7 596.412 1185.48 593.37 1179.83 593.216L929.807 586.375C926.299 586.279 922.899 587.308 920.156 589.296L701.321 747.909C697.981 750.33 695.88 753.979 695.507 758.005L677.303 954.533C676.739 960.618 680.195 966.53 685.996 969.403Z" stroke="url(#paint23_linear_604_268)" stroke-width="2.64516"/>
<path opacity="0.362319" d="M664.232 952.797L844.733 1054.12C848.465 1056.22 852.876 1056.79 856.938 1055.72L1121.09 985.847C1124.42 984.965 1127.31 983.027 1129.27 980.345L1268.32 790.597C1271.5 786.268 1271.89 780.549 1269.37 775.651L1186.08 614.352C1183.55 609.453 1178.49 606.141 1172.86 605.696L925.75 586.168C922.257 585.892 918.814 586.742 915.975 588.581L690.995 734.322C687.535 736.563 685.246 740.094 684.66 744.092L656.321 937.474C655.433 943.53 658.58 949.624 664.232 952.797Z" stroke="url(#paint24_linear_604_268)" stroke-width="2.64516"/>
<path opacity="0.376812" d="M643.439 936.154L816.635 1045.53C820.25 1047.82 824.62 1048.62 828.729 1047.76L1093.83 992.077C1097.2 991.369 1100.17 989.586 1102.28 987.013L1249.86 806.393C1253.26 802.232 1253.96 796.536 1251.69 791.508L1177.83 627.804C1175.56 622.775 1170.68 619.203 1165.07 618.468L921.599 586.571C918.131 586.117 914.654 586.787 911.726 588.474L681.394 721.214C677.824 723.271 675.353 726.677 674.555 730.638L636.34 920.42C635.129 926.43 637.954 932.691 643.439 936.154Z" stroke="url(#paint25_linear_604_268)" stroke-width="2.64516"/>
<path opacity="0.391304" d="M623.61 919.528L789.088 1036.49C792.575 1038.95 796.893 1039.98 801.037 1039.33L1066.25 997.691C1069.65 997.158 1072.71 995.532 1074.94 993.074L1230.47 821.874C1234.09 817.892 1235.09 812.233 1233.09 807.089L1168.71 641.477C1166.71 636.332 1162.02 632.509 1156.46 631.488L917.32 587.573C913.886 586.943 910.385 587.433 907.377 588.965L672.486 708.62C668.815 710.489 666.168 713.762 665.161 717.676L617.35 903.425C615.819 909.373 618.311 915.783 623.61 919.528Z" stroke="url(#paint26_linear_604_268)" stroke-width="2.64516"/>
<path opacity="0.405797" d="M604.733 902.968L762.112 1027.02C765.461 1029.66 769.715 1030.9 773.884 1030.47L1038.4 1002.68C1041.81 1002.32 1044.95 1000.85 1047.31 998.514L1210.17 836.993C1214 833.199 1215.3 827.593 1213.58 822.347L1158.73 655.321C1157.01 650.075 1152.53 646.012 1147.03 644.708L912.882 589.162C909.491 588.358 905.974 588.668 902.892 590.044L664.235 696.57C660.473 698.249 657.658 701.382 656.443 705.24L599.339 886.543C597.491 892.412 599.638 898.952 604.733 902.968Z" stroke="url(#paint27_linear_604_268)" stroke-width="2.64516"/>
<path opacity="0.42029" d="M586.796 886.522L735.727 1017.16C738.928 1019.96 743.105 1021.42 747.288 1021.2L1010.3 1007.03C1013.73 1006.84 1016.93 1005.54 1019.41 1003.32L1189 851.705C1193.03 848.109 1194.63 842.571 1193.19 837.239L1147.88 669.288C1146.44 663.955 1142.18 659.666 1136.76 658.083L908.253 591.325C904.914 590.349 901.389 590.48 898.242 591.696L656.605 685.096C652.762 686.581 649.785 689.567 648.365 693.36L582.291 869.824C580.129 875.598 581.923 882.248 586.796 886.522Z" stroke="url(#paint28_linear_604_268)" stroke-width="2.64516"/>
<path opacity="0.434783" d="M569.781 870.239L709.948 1006.94C712.991 1009.91 717.081 1011.58 721.268 1011.56L981.998 1010.73C985.427 1010.72 988.698 1009.58 991.291 1007.49L1166.99 865.969C1171.2 862.579 1173.1 857.125 1171.95 851.722L1136.16 683.33C1135.01 677.927 1130.99 673.424 1125.67 671.567L903.403 594.044C900.124 592.9 896.599 592.853 893.393 593.909L649.559 674.224C645.644 675.513 642.511 678.346 640.889 682.064L566.185 853.319C563.715 858.981 565.147 865.719 569.781 870.239Z" stroke="url(#paint29_linear_604_268)" stroke-width="2.64516"/>
<path opacity="0.449275" d="M553.67 854.163L684.79 996.398C687.666 999.518 691.658 1001.4 695.838 1001.59L953.53 1013.79C956.953 1013.95 960.281 1012.98 962.982 1011.02L1144.18 879.744C1148.56 876.567 1150.75 871.213 1149.9 865.757L1123.58 697.399C1122.72 691.943 1118.96 687.241 1113.75 685.116L898.303 597.305C895.091 595.996 891.575 595.77 888.317 596.664L643.056 663.978C639.078 665.07 635.797 667.744 633.977 671.379L550.999 837.077C548.228 842.61 549.292 849.413 553.67 854.163Z" stroke="url(#paint30_linear_604_268)" stroke-width="2.64516"/>
<path opacity="0.463768" d="M538.442 838.339L660.265 985.574C662.965 988.838 666.849 990.915 671.012 991.323L924.933 1016.2C928.344 1016.53 931.722 1015.72 934.527 1013.9L1120.59 892.992C1125.13 890.037 1127.61 884.799 1127.06 879.306L1110.14 711.45C1109.59 705.957 1106.09 701.072 1101 698.687L892.925 601.089C889.788 599.618 886.288 599.216 882.984 599.947L637.056 654.384C633.024 655.277 629.603 657.786 627.588 661.328L536.709 821.143C533.646 826.53 534.335 833.376 538.442 838.339Z" stroke="url(#paint31_linear_604_268)" stroke-width="2.64516"/>
<path opacity="0.478261" d="M524.072 822.811L636.382 974.501C638.899 977.899 642.664 980.171 646.8 980.788L896.246 1017.95C899.638 1018.46 903.06 1017.82 905.963 1016.13L1096.26 905.678C1100.96 902.951 1103.72 897.844 1103.46 892.332L1095.86 725.437C1095.61 719.925 1092.39 714.873 1087.44 712.235L887.242 605.377C884.188 603.747 880.71 603.169 877.368 603.737L631.517 645.46C627.44 646.152 623.885 648.491 621.681 651.934L523.286 805.563C519.94 810.788 520.252 817.652 524.072 822.811Z" stroke="url(#paint32_linear_604_268)" stroke-width="2.64516"/>
<path opacity="0.492754" d="M510.535 807.619L613.151 963.213C615.475 966.738 619.111 969.199 623.212 970.022L867.508 1019.05C870.873 1019.73 874.333 1019.26 877.33 1017.71L1071.24 917.768C1076.08 915.276 1079.11 910.316 1079.16 904.803L1080.74 739.315C1080.8 733.803 1077.87 728.601 1073.08 725.72L881.229 610.15C878.264 608.364 874.816 607.612 871.44 608.014L626.396 637.225C622.283 637.715 618.602 639.88 616.212 643.213L510.7 790.378C507.082 795.425 507.016 802.282 510.535 807.619Z" stroke="url(#paint33_linear_604_268)" stroke-width="2.64516"/>
<path opacity="0.507246" d="M497.803 792.801L590.575 951.749C592.7 955.39 596.198 958.033 600.254 959.061L838.755 1019.51C842.088 1020.35 845.58 1020.05 848.665 1018.65L1045.58 929.232C1050.53 926.98 1053.83 922.182 1054.18 916.688L1064.81 753.042C1065.17 747.548 1062.54 742.215 1057.93 739.099L874.86 615.385C871.992 613.447 868.58 612.521 865.177 612.758L621.649 629.695C617.508 629.983 613.709 631.967 611.138 635.184L498.919 775.629C495.04 780.483 494.597 787.307 497.803 792.801Z" stroke="url(#paint34_linear_604_268)" stroke-width="2.64516"/>
<path opacity="0.521739" d="M485.846 778.395L568.658 940.143C570.577 943.89 573.929 946.709 577.929 947.939L810.027 1019.32C813.32 1020.33 816.838 1020.2 820.006 1018.94L1019.3 940.043C1024.37 938.036 1027.92 933.415 1028.58 927.957L1048.09 766.577C1048.75 761.119 1046.42 755.674 1041.99 752.334L868.112 621.061C865.348 618.974 861.979 617.876 858.555 617.946L617.231 622.882C613.071 622.967 609.161 624.766 606.415 627.859L487.906 761.352C483.782 765.999 482.964 772.765 485.846 778.395Z" stroke="url(#paint35_linear_604_268)" stroke-width="2.64516"/>
<path opacity="0.536232" d="M474.631 764.436L547.403 928.43C549.109 932.273 552.305 935.261 556.242 936.692L781.359 1018.49C784.607 1019.67 788.145 1019.71 791.392 1018.6L992.46 950.175C997.626 948.416 1001.42 943.987 1002.38 938.584L1030.58 779.879C1031.54 774.476 1029.52 768.938 1025.3 765.386L860.965 627.154C858.311 624.921 854.992 623.652 851.551 623.555L613.097 616.797C608.927 616.679 604.913 618.289 601.999 621.25L477.627 747.584C473.27 752.009 472.083 758.692 474.631 764.436Z" stroke="url(#paint36_linear_604_268)" stroke-width="2.64516"/>
<path opacity="0.550725" d="M464.126 750.957L526.808 916.646C528.295 920.575 531.327 923.725 535.191 925.353L752.79 1017.03C755.986 1018.38 759.538 1018.59 762.859 1017.64L965.104 959.605C970.352 958.099 974.372 953.875 975.629 948.545L1012.32 792.912C1013.58 787.582 1011.88 781.97 1007.87 778.218L853.396 633.639C850.86 631.265 847.596 629.826 844.146 629.56L609.201 611.448C605.03 611.127 600.921 612.544 597.843 615.365L468.041 734.356C463.469 738.547 461.919 745.122 464.126 750.957Z" stroke="url(#paint37_linear_604_268)" stroke-width="2.64516"/>
<path opacity="0.565217" d="M454.296 737.989L506.871 904.826C508.133 908.83 510.993 912.134 514.774 913.956L724.354 1014.96C727.491 1016.47 731.052 1016.86 734.442 1016.06L937.278 968.315C942.594 967.064 946.832 963.058 948.379 957.819L993.335 805.638C994.882 800.399 993.502 794.734 989.719 790.794L845.388 640.493C842.976 637.981 839.775 636.373 836.319 635.937L605.498 606.841C601.333 606.316 597.137 607.536 593.902 610.211L459.108 721.698C454.338 725.643 452.435 732.085 454.296 737.989Z" stroke="url(#paint38_linear_604_268)" stroke-width="2.64516"/>
<path opacity="0.57971" d="M445.102 725.561L487.586 893.004C488.618 897.071 491.298 900.521 494.988 902.535L696.088 1012.28C699.16 1013.95 702.724 1014.52 706.178 1013.88L909.03 976.288C914.4 975.293 918.841 971.517 920.672 966.388L973.643 818.024C975.475 812.894 974.417 807.195 970.871 803.082L836.922 647.689C834.641 645.043 831.509 643.267 828.055 642.661L601.941 602.979C597.791 602.251 593.516 603.269 590.131 605.791L450.788 709.637C445.837 713.326 443.593 719.613 445.102 725.561Z" stroke="url(#paint39_linear_604_268)" stroke-width="2.64516"/>
<path opacity="0.594203" d="M436.508 713.7L468.947 881.212C469.745 885.331 472.237 888.92 475.827 891.122L668.027 1009.01C671.026 1010.85 674.588 1011.59 678.101 1011.11L880.41 983.51C885.819 982.772 890.447 979.237 892.554 974.233L953.278 830.037C955.385 825.034 954.651 819.322 951.353 815.048L827.983 655.201C825.84 652.424 822.784 650.481 819.337 649.703L598.483 599.862C594.358 598.931 590.012 599.744 586.485 602.107L443.036 698.197C437.924 701.622 435.352 707.73 436.508 713.7Z" stroke="url(#paint40_linear_604_268)" stroke-width="2.64516"/>
<path opacity="0.608696" d="M428.474 702.429L450.946 869.484C451.505 873.643 453.801 877.363 457.282 879.749L640.203 1005.16C643.124 1007.16 646.676 1008.09 650.244 1007.77L851.466 989.969C856.899 989.489 861.699 986.204 864.072 981.343L932.269 841.649C934.642 836.788 934.231 831.082 931.19 826.664L818.556 663.001C816.559 660.099 813.586 657.99 810.151 657.039L595.079 597.487C590.987 596.354 586.579 596.958 582.917 599.155L435.811 687.4C430.555 690.553 427.671 696.462 428.474 702.429Z" stroke="url(#paint41_linear_604_268)" stroke-width="2.64516"/>
<path opacity="0.623188" d="M420.958 691.772L433.571 857.851C433.889 862.038 435.982 865.879 439.345 868.446L612.65 1000.75C615.484 1002.92 619.021 1004.02 622.638 1003.87L822.249 995.658C827.691 995.434 832.645 992.409 835.273 987.706L910.648 852.83C913.276 848.127 913.186 842.448 910.411 837.899L808.628 671.063C806.784 668.04 803.901 665.765 800.486 664.64L591.683 595.851C587.632 594.516 583.173 594.909 579.383 596.934L429.065 677.265C423.687 680.139 420.507 685.83 420.958 691.772Z" stroke="url(#paint42_linear_604_268)" stroke-width="2.64516"/>
<path opacity="0.637681" d="M413.921 681.747L416.811 846.345C416.884 850.546 418.768 854.501 422.003 857.244L585.399 995.812C588.14 998.136 591.655 999.423 595.315 999.444L792.807 1000.57C798.243 1000.6 803.335 997.845 806.206 993.314L888.448 863.556C891.32 859.026 891.547 853.392 889.046 848.73L798.189 679.358C796.505 676.219 793.719 673.781 790.329 672.48L588.25 594.945C584.25 593.41 579.747 593.588 575.839 595.436L422.756 667.807C417.274 670.399 413.817 675.853 413.921 681.747Z" stroke="url(#paint43_linear_604_268)" stroke-width="2.64516"/>
<path opacity="0.652174" d="M407.318 672.372L400.651 834.994C400.479 839.198 402.146 843.255 405.243 846.17L558.481 990.35C561.12 992.833 564.606 994.305 568.304 994.499L763.191 1004.71C768.607 1004.99 773.818 1002.51 776.92 998.161L865.704 873.804C868.806 869.459 869.345 863.889 867.125 859.129L787.228 687.858C785.711 684.608 783.031 682.008 779.674 680.531L584.735 594.76C580.794 593.027 576.259 592.987 572.241 594.652L416.836 659.041C411.272 661.346 407.557 666.549 407.318 672.372Z" stroke="url(#paint44_linear_604_268)" stroke-width="2.64516"/>
<path opacity="0.666667" d="M401.107 663.662L385.076 823.827C384.657 828.021 386.101 832.171 389.052 835.252L531.925 984.393C534.454 987.033 537.903 988.691 541.634 989.061L733.45 1008.06C738.832 1008.6 744.144 1006.39 747.463 1002.24L842.45 883.552C845.769 879.405 846.614 873.918 844.68 869.076L775.737 696.535C774.396 693.18 771.829 690.419 768.511 688.764L581.094 595.285C577.223 593.354 572.664 593.095 568.546 594.572L411.26 650.976C405.632 652.994 401.681 657.932 401.107 663.662Z" stroke="url(#paint45_linear_604_268)" stroke-width="2.64516"/>
<path opacity="0.681159" d="M395.244 655.63L370.069 812.872C369.402 817.043 370.617 821.276 373.412 824.517L505.758 977.963C508.168 980.758 511.574 982.605 515.33 983.153L703.633 1010.65C708.967 1011.43 714.361 1009.5 717.882 1005.56L818.723 892.782C822.244 888.844 823.388 883.456 821.744 878.551L763.71 705.36C762.553 701.906 760.107 698.986 756.837 697.153L577.284 596.503C573.492 594.377 568.921 593.897 564.711 595.182L405.982 643.62C400.31 645.351 396.143 650.012 395.244 655.63Z" stroke="url(#paint46_linear_604_268)" stroke-width="2.64516"/>
<path opacity="0.695652" d="M389.683 648.285L355.611 802.155C354.696 806.289 355.676 810.594 358.306 813.989L480.006 971.087C482.29 974.035 485.642 976.07 489.417 976.8L673.789 1012.46C679.061 1013.48 684.519 1011.84 688.227 1008.12L794.56 901.477C798.268 897.757 799.702 892.486 798.352 887.534L751.143 714.304C750.176 710.758 747.862 707.681 744.647 705.669L573.264 598.4C569.56 596.081 564.988 595.378 560.696 596.467L400.955 636.98C395.259 638.424 390.898 642.799 389.683 648.285Z" stroke="url(#paint47_linear_604_268)" stroke-width="2.64516"/>
<path opacity="0.710145" d="M384.38 641.635L341.683 791.7C340.52 795.784 341.261 800.15 343.716 803.692L454.696 963.791C456.842 966.888 460.133 969.113 463.919 970.028L643.966 1013.52C649.162 1014.77 654.666 1013.42 658.546 1009.92L769.997 909.624C773.877 906.132 775.591 900.992 774.538 896.009L738.032 723.339C737.265 719.708 735.09 716.478 731.938 714.285L568.992 600.955C565.387 598.447 560.825 597.52 556.461 598.409L396.134 631.057C390.433 632.218 385.899 636.298 384.38 641.635Z" stroke="url(#paint48_linear_604_268)" stroke-width="2.64516"/>
<path opacity="0.724638" d="M379.29 635.684L328.261 781.53C326.854 785.551 327.35 789.966 329.622 793.648L429.847 956.101C431.848 959.344 435.068 961.76 438.858 962.861L614.211 1013.82C619.318 1015.31 624.849 1014.23 628.886 1010.98L745.072 917.21C749.108 913.952 751.093 908.959 750.337 903.963L724.377 732.434C723.816 728.727 721.791 725.347 718.711 722.975L564.43 604.147C560.933 601.453 556.393 600.303 551.968 600.988L391.473 625.852C385.783 626.733 381.099 630.514 379.29 635.684Z" stroke="url(#paint49_linear_604_268)" stroke-width="2.64516"/>
<path opacity="0.73913" d="M374.367 630.434L315.325 771.667C313.676 775.612 313.923 780.064 316.002 783.878L405.484 948.047C407.329 951.432 410.467 954.039 414.253 955.329L584.569 1013.39C589.575 1015.1 595.116 1014.31 599.293 1011.29L719.823 924.225C724 921.208 726.244 916.376 725.785 911.384L710.177 741.563C709.83 737.789 707.965 734.262 704.967 731.711L559.54 607.953C556.162 605.078 551.655 603.704 547.179 604.184L386.926 621.362C381.266 621.969 376.452 625.446 374.367 630.434Z" stroke="url(#paint50_linear_604_268)" stroke-width="2.64516"/>
<path opacity="0.753623" d="M369.566 625.886L302.851 762.132C300.964 765.987 300.958 770.463 302.834 774.4L381.624 939.659C383.303 943.18 386.35 945.977 390.123 947.459L555.086 1012.25C559.978 1014.17 565.512 1013.66 569.813 1010.88L694.289 930.664C698.59 927.892 701.081 923.232 700.918 918.262L695.435 750.696C695.31 746.864 693.614 743.196 690.707 740.466L554.286 612.349C551.036 609.297 546.575 607.7 542.059 607.972L382.449 617.583C376.835 617.921 371.913 621.093 369.566 625.886Z" stroke="url(#paint51_linear_604_268)" stroke-width="2.64516"/>
<path opacity="0.768116" d="M364.842 622.035L290.815 752.942C288.693 756.694 288.431 761.182 290.097 765.232L358.285 930.966C359.788 934.619 362.733 937.605 366.483 939.279L525.804 1010.4C530.572 1012.53 536.082 1012.29 540.491 1009.77L668.507 936.519C672.916 933.996 675.642 929.521 675.773 924.589L680.154 759.806C680.258 755.927 678.743 752.123 675.937 749.216L548.633 617.306C545.522 614.083 541.119 612.265 536.573 612.327L377.998 614.507C372.445 614.584 367.435 617.45 364.842 622.035Z" stroke="url(#paint52_linear_604_268)" stroke-width="2.64516"/>
<path opacity="0.782609" d="M360.151 618.876L279.19 744.116C276.839 747.752 276.319 752.237 277.766 756.39L335.483 922C336.799 925.777 339.63 928.951 343.349 930.819L496.766 1007.87C501.399 1010.19 506.869 1010.23 511.37 1007.96L642.515 941.788C647.017 939.517 649.964 935.237 650.386 930.36L664.341 768.865C664.679 764.951 663.355 761.017 660.661 757.935L542.549 622.796C539.587 619.408 535.254 617.371 530.691 617.223L373.53 612.126C368.052 611.948 362.973 614.511 360.151 618.876Z" stroke="url(#paint53_linear_604_268)" stroke-width="2.64516"/>
<path opacity="0.797101" d="M355.449 616.401L267.951 735.667C265.377 739.175 264.597 743.645 265.817 747.889L313.231 912.793C314.351 916.688 317.056 920.046 320.734 922.108L468.013 1004.68C472.5 1007.2 477.914 1007.49 482.493 1005.48L616.352 946.471C620.93 944.453 624.086 940.377 624.793 935.572L648.002 777.847C648.581 773.908 647.458 769.852 644.887 766.598L536.004 628.789C533.202 625.242 528.951 622.99 524.381 622.631L369.002 610.427C363.612 610.004 358.484 612.264 355.449 616.401Z" stroke="url(#paint54_linear_604_268)" stroke-width="2.64516"/>
<path opacity="0.811594" d="M350.693 614.6L257.071 727.611C254.281 730.978 253.241 735.417 254.227 739.742L291.542 903.378C292.454 907.381 295.022 910.921 298.647 913.177L439.582 1000.86C443.915 1003.56 449.259 1004.11 453.899 1002.35L590.053 950.568C594.693 948.803 598.044 944.941 599.032 940.222L631.145 786.724C631.971 782.775 631.059 778.605 628.622 775.182L528.969 635.254C526.336 631.556 522.18 629.092 517.615 628.522L364.373 609.397C359.084 608.737 353.924 610.699 350.693 614.6Z" stroke="url(#paint55_linear_604_268)" stroke-width="2.64516"/>
<path opacity="0.826087" d="M345.84 613.459L246.523 719.958C243.525 723.172 242.224 727.568 242.969 731.959L270.423 893.787C271.119 897.889 273.536 901.607 277.1 904.056L411.511 996.439C415.68 999.305 420.941 1000.11 425.628 998.598L563.656 954.082C568.343 952.57 571.876 948.929 573.137 944.312L613.781 795.471C614.858 791.525 614.169 787.251 611.876 783.664L521.419 642.155C518.964 638.315 514.916 635.645 510.366 634.865L359.604 609.02C354.426 608.132 349.251 609.801 345.84 613.459Z" stroke="url(#paint56_linear_604_268)" stroke-width="2.64516"/>
<path opacity="0.84058" d="M340.851 612.962L236.279 712.719C233.082 715.769 231.521 720.106 232.019 724.552L249.883 884.054C250.352 888.244 252.607 892.134 256.097 894.775L383.834 991.438C387.832 994.464 392.997 995.51 397.717 994.25L537.197 957.018C541.917 955.758 545.618 952.345 547.144 947.845L595.921 804.064C597.254 800.136 596.796 795.766 594.66 792.021L513.329 649.461C511.061 645.486 507.133 642.615 502.61 641.626L354.655 609.277C349.599 608.172 344.425 609.553 340.851 612.962Z" stroke="url(#paint57_linear_604_268)" stroke-width="2.64516"/>
<path opacity="0.855072" d="M335.685 613.092L226.311 705.903C222.924 708.777 221.105 713.041 221.351 717.528L229.927 874.212C230.161 878.479 232.24 882.534 235.646 885.365L356.584 985.891C360.404 989.066 365.461 990.345 370.2 989.335L510.713 959.383C515.451 958.373 519.305 955.195 521.09 950.825L577.579 812.479C579.17 808.583 578.954 804.13 576.984 800.233L504.677 657.134C502.607 653.036 498.81 649.97 494.325 648.774L349.489 610.149C344.563 608.836 339.405 609.935 335.685 613.092Z" stroke="url(#paint58_linear_604_268)" stroke-width="2.64516"/>
<path opacity="0.869565" d="M330.304 613.828L216.592 699.517C213.025 702.205 210.95 706.381 210.939 710.894L210.558 864.294C210.547 868.626 212.439 872.839 215.749 875.857L329.793 979.828C333.428 983.143 338.365 984.646 343.11 983.883L484.236 961.187C488.981 960.424 492.974 957.484 495.007 953.259L558.769 820.692C560.62 816.844 560.654 812.321 558.863 808.28L495.446 665.139C493.58 660.928 489.926 657.674 485.49 656.273L344.07 611.614C339.282 610.103 334.154 610.927 330.304 613.828Z" stroke="url(#paint59_linear_604_268)" stroke-width="2.64516"/>
<path opacity="0.884058" d="M324.672 615.149L207.092 693.566C203.356 696.058 201.03 700.131 200.759 704.655L191.777 854.334C191.514 858.716 193.205 863.079 196.409 866.28L303.487 973.285C306.932 976.727 311.741 978.445 316.478 977.926L457.803 962.439C462.54 961.92 466.659 959.223 468.929 955.155L539.506 828.682C541.618 824.898 541.911 820.318 540.31 816.14L485.618 673.439C483.965 669.125 480.465 665.691 476.089 664.088L338.364 613.649C333.722 611.949 328.635 612.506 324.672 615.149Z" stroke="url(#paint60_linear_604_268)" stroke-width="2.64516"/>
<path opacity="0.898551" d="M318.755 617.031L197.785 688.054C193.891 690.34 191.318 694.295 190.784 698.816L173.582 844.365C173.06 848.783 174.54 853.285 177.625 856.665L277.694 966.294C280.944 969.854 285.614 971.777 290.333 971.498L431.444 963.152C436.163 962.873 440.393 960.423 442.89 956.523L519.808 836.428C522.18 832.725 522.74 828.102 521.339 823.798L475.179 681.996C473.745 677.592 470.41 673.986 466.104 672.185L332.338 616.228C327.848 614.349 322.815 614.647 318.755 617.031Z" stroke="url(#paint61_linear_604_268)" stroke-width="2.64516"/>
<path opacity="0.913043" d="M312.519 619.447L188.641 682.983C184.602 685.055 181.788 688.878 180.989 693.378L155.971 834.419C155.183 838.858 156.44 843.488 159.396 847.042L252.437 958.891C255.487 962.557 260.011 964.676 264.699 964.633L405.193 963.34C409.881 963.296 414.208 961.096 416.921 957.376L499.693 843.91C502.323 840.304 503.156 835.655 501.965 831.234L464.117 690.772C462.909 686.29 459.749 682.522 455.524 680.526L325.962 619.324C321.629 617.277 316.661 617.323 312.519 619.447Z" stroke="url(#paint62_linear_604_268)" stroke-width="2.64516"/>
<path opacity="0.927536" d="M305.933 622.371L179.634 678.352C175.461 680.202 172.413 683.879 171.35 688.344L138.938 824.528C137.88 828.972 138.902 833.719 141.719 837.441L227.737 951.113C230.585 954.876 234.955 957.18 239.601 957.368L379.08 963.018C383.725 963.206 388.136 961.257 391.053 957.728L479.179 851.11C482.065 847.619 483.177 842.958 482.205 838.432L452.423 699.729C451.447 695.181 448.471 691.261 444.337 689.074L319.206 622.909C315.035 620.703 310.143 620.505 305.933 622.371Z" stroke="url(#paint63_linear_604_268)" stroke-width="2.64516"/>
<path opacity="0.942029" d="M298.969 625.774L170.735 674.163C166.441 675.783 163.167 679.299 161.84 683.714L122.475 814.724C121.143 819.156 121.922 824.007 124.588 827.89L203.614 942.998C206.256 946.846 210.465 949.326 215.058 949.741L353.134 962.204C357.727 962.619 362.207 960.923 365.315 957.594L458.288 858.011C461.424 854.652 462.82 849.997 462.076 845.378L440.091 708.829C439.35 704.229 436.568 700.166 432.534 697.794L312.044 626.954C308.039 624.599 303.232 624.165 298.969 625.774Z" stroke="url(#paint64_linear_604_268)" stroke-width="2.64516"/>
<path opacity="0.956522" d="M291.601 629.624L161.917 670.411C157.517 671.795 154.025 675.137 152.437 679.484L106.574 805.038C104.966 809.441 105.491 814.382 107.996 818.418L180.083 934.583C182.518 938.506 186.56 941.152 191.09 941.788L327.383 960.916C331.913 961.551 336.45 960.109 339.736 956.989L437.039 864.598C440.42 861.387 442.103 856.756 441.595 852.056L427.116 718.034C426.615 713.394 424.034 709.199 420.11 706.647L304.452 631.427C300.616 628.932 295.902 628.271 291.601 629.624Z" stroke="url(#paint65_linear_604_268)" stroke-width="2.64516"/>
<path opacity="0.971014" d="M283.804 633.89L153.155 667.093C148.661 668.235 144.961 671.39 143.115 675.654L91.2232 795.499C89.3371 799.855 89.6007 804.871 91.9355 809.054L157.159 925.907C159.385 929.895 163.255 932.697 167.712 933.548L301.854 959.173C306.312 960.025 310.891 958.836 314.341 955.933L415.454 870.855C419.073 867.809 421.044 863.22 420.78 858.453L413.497 727.304C413.238 722.638 410.866 718.324 407.06 715.596L296.405 636.297C292.742 633.671 288.13 632.791 283.804 633.89Z" stroke="url(#paint66_linear_604_268)" stroke-width="2.64516"/>
<path opacity="0.985507" d="M275.557 638.54L144.421 664.204C139.848 665.099 135.951 668.054 133.851 672.218L76.4099 786.136C74.2461 790.427 74.2411 795.504 76.3963 799.824L134.852 917.009C136.868 921.051 140.561 923.999 144.936 925.061L276.573 956.997C280.948 958.059 285.556 957.124 289.157 954.445L393.556 876.77C397.405 873.906 399.665 869.377 399.649 864.557L399.235 736.603C399.22 731.925 397.063 727.502 393.384 724.605L287.885 641.531C284.396 638.783 279.894 637.691 275.557 638.54Z" stroke="url(#paint67_linear_604_268)" stroke-width="2.64516"/>
<path d="M266.841 643.54L135.69 661.736C131.053 662.38 126.971 665.123 124.623 669.173L62.1195 776.976C59.6795 781.185 59.3997 786.306 61.3668 790.755L113.172 907.929C114.978 912.015 118.489 915.1 122.773 916.365L251.562 954.41C255.846 955.676 260.47 954.994 264.207 952.546L371.367 882.332C375.436 879.666 377.984 875.214 378.223 870.356L384.333 745.893C384.562 741.217 382.626 736.696 379.082 733.636L278.872 647.094C275.56 644.233 271.176 642.938 266.841 643.54Z" stroke="url(#paint68_linear_604_268)" stroke-width="2.64516"/>
<defs>
<linearGradient id="paint0_linear_604_268" x1="1416.52" y1="1229.39" x2="1324.01" y2="385.159" gradientUnits="userSpaceOnUse">
<stop stop-color="#323232"/>
<stop offset="1" stop-color="#959595" stop-opacity="0.16"/>
</linearGradient>
<linearGradient id="paint1_linear_604_268" x1="1377.31" y1="1227.27" x2="1327.72" y2="388.786" gradientUnits="userSpaceOnUse">
<stop stop-color="#323232"/>
<stop offset="1" stop-color="#959595" stop-opacity="0.16"/>
</linearGradient>
<linearGradient id="paint2_linear_604_268" x1="1338.39" y1="1224.02" x2="1330.74" y2="393.2" gradientUnits="userSpaceOnUse">
<stop stop-color="#323232"/>
<stop offset="1" stop-color="#959595" stop-opacity="0.16"/>
</linearGradient>
<linearGradient id="paint3_linear_604_268" x1="1299.81" y1="1219.67" x2="1333.07" y2="398.33" gradientUnits="userSpaceOnUse">
<stop stop-color="#323232"/>
<stop offset="1" stop-color="#959595" stop-opacity="0.16"/>
</linearGradient>
<linearGradient id="paint4_linear_604_268" x1="1261.63" y1="1214.25" x2="1334.76" y2="404.114" gradientUnits="userSpaceOnUse">
<stop stop-color="#323232"/>
<stop offset="1" stop-color="#959595" stop-opacity="0.16"/>
</linearGradient>
<linearGradient id="paint5_linear_604_268" x1="1223.93" y1="1207.79" x2="1335.82" y2="410.501" gradientUnits="userSpaceOnUse">
<stop stop-color="#323232"/>
<stop offset="1" stop-color="#959595" stop-opacity="0.16"/>
</linearGradient>
<linearGradient id="paint6_linear_604_268" x1="1186.74" y1="1200.33" x2="1336.29" y2="417.45" gradientUnits="userSpaceOnUse">
<stop stop-color="#323232"/>
<stop offset="1" stop-color="#959595" stop-opacity="0.16"/>
</linearGradient>
<linearGradient id="paint7_linear_604_268" x1="1150.13" y1="1191.91" x2="1336.21" y2="424.928" gradientUnits="userSpaceOnUse">
<stop stop-color="#323232"/>
<stop offset="1" stop-color="#959595" stop-opacity="0.16"/>
</linearGradient>
<linearGradient id="paint8_linear_604_268" x1="1114.15" y1="1182.57" x2="1335.6" y2="432.913" gradientUnits="userSpaceOnUse">
<stop stop-color="#323232"/>
<stop offset="1" stop-color="#959595" stop-opacity="0.16"/>
</linearGradient>
<linearGradient id="paint9_linear_604_268" x1="1078.84" y1="1172.36" x2="1334.5" y2="441.391" gradientUnits="userSpaceOnUse">
<stop stop-color="#323232"/>
<stop offset="1" stop-color="#959595" stop-opacity="0.16"/>
</linearGradient>
<linearGradient id="paint10_linear_604_268" x1="1044.25" y1="1161.31" x2="1332.94" y2="450.357" gradientUnits="userSpaceOnUse">
<stop stop-color="#323232"/>
<stop offset="1" stop-color="#959595" stop-opacity="0.16"/>
</linearGradient>
<linearGradient id="paint11_linear_604_268" x1="1010.42" y1="1149.47" x2="1330.93" y2="459.812" gradientUnits="userSpaceOnUse">
<stop stop-color="#323232"/>
<stop offset="1" stop-color="#959595" stop-opacity="0.16"/>
</linearGradient>
<linearGradient id="paint12_linear_604_268" x1="977.394" y1="1136.9" x2="1328.5" y2="469.764" gradientUnits="userSpaceOnUse">
<stop stop-color="#323232"/>
<stop offset="1" stop-color="#959595" stop-opacity="0.16"/>
</linearGradient>
<linearGradient id="paint13_linear_604_268" x1="945.206" y1="1123.65" x2="1325.66" y2="480.226" gradientUnits="userSpaceOnUse">
<stop stop-color="#323232"/>
<stop offset="1" stop-color="#959595" stop-opacity="0.16"/>
</linearGradient>
<linearGradient id="paint14_linear_604_268" x1="913.888" y1="1109.76" x2="1322.4" y2="491.215" gradientUnits="userSpaceOnUse">
<stop stop-color="#323232"/>
<stop offset="1" stop-color="#959595" stop-opacity="0.16"/>
</linearGradient>
<linearGradient id="paint15_linear_604_268" x1="883.47" y1="1095.3" x2="1318.73" y2="502.749" gradientUnits="userSpaceOnUse">
<stop stop-color="#323232"/>
<stop offset="1" stop-color="#959595" stop-opacity="0.16"/>
</linearGradient>
<linearGradient id="paint16_linear_604_268" x1="853.978" y1="1080.31" x2="1314.64" y2="514.851" gradientUnits="userSpaceOnUse">
<stop stop-color="#323232"/>
<stop offset="1" stop-color="#959595" stop-opacity="0.16"/>
</linearGradient>
<linearGradient id="paint17_linear_604_268" x1="825.435" y1="1064.85" x2="1310.1" y2="527.539" gradientUnits="userSpaceOnUse">
<stop stop-color="#323232"/>
<stop offset="1" stop-color="#959595" stop-opacity="0.16"/>
</linearGradient>
<linearGradient id="paint18_linear_604_268" x1="797.859" y1="1048.97" x2="1305.08" y2="540.834" gradientUnits="userSpaceOnUse">
<stop stop-color="#323232"/>
<stop offset="1" stop-color="#959595" stop-opacity="0.16"/>
</linearGradient>
<linearGradient id="paint19_linear_604_268" x1="771.268" y1="1032.74" x2="1299.54" y2="554.75" gradientUnits="userSpaceOnUse">
<stop stop-color="#323232"/>
<stop offset="1" stop-color="#959595" stop-opacity="0.16"/>
</linearGradient>
<linearGradient id="paint20_linear_604_268" x1="745.672" y1="1016.21" x2="1293.45" y2="569.298" gradientUnits="userSpaceOnUse">
<stop stop-color="#323232"/>
<stop offset="1" stop-color="#959595" stop-opacity="0.16"/>
</linearGradient>
<linearGradient id="paint21_linear_604_268" x1="721.082" y1="999.427" x2="1286.73" y2="584.484" gradientUnits="userSpaceOnUse">
<stop stop-color="#323232"/>
<stop offset="1" stop-color="#959595" stop-opacity="0.16"/>
</linearGradient>
<linearGradient id="paint22_linear_604_268" x1="697.502" y1="982.458" x2="1279.35" y2="600.303" gradientUnits="userSpaceOnUse">
<stop stop-color="#323232"/>
<stop offset="1" stop-color="#959595" stop-opacity="0.16"/>
</linearGradient>
<linearGradient id="paint23_linear_604_268" x1="674.934" y1="965.356" x2="1271.22" y2="616.744" gradientUnits="userSpaceOnUse">
<stop stop-color="#323232"/>
<stop offset="1" stop-color="#959595" stop-opacity="0.16"/>
</linearGradient>
<linearGradient id="paint24_linear_604_268" x1="653.378" y1="948.176" x2="1262.29" y2="633.785" gradientUnits="userSpaceOnUse">
<stop stop-color="#323232"/>
<stop offset="1" stop-color="#959595" stop-opacity="0.16"/>
</linearGradient>
<linearGradient id="paint25_linear_604_268" x1="632.828" y1="930.973" x2="1252.47" y2="651.392" gradientUnits="userSpaceOnUse">
<stop stop-color="#323232"/>
<stop offset="1" stop-color="#959595" stop-opacity="0.16"/>
</linearGradient>
<linearGradient id="paint26_linear_604_268" x1="613.278" y1="913.8" x2="1241.7" y2="669.522" gradientUnits="userSpaceOnUse">
<stop stop-color="#323232"/>
<stop offset="1" stop-color="#959595" stop-opacity="0.16"/>
</linearGradient>
<linearGradient id="paint27_linear_604_268" x1="594.715" y1="896.71" x2="1229.91" y2="688.116" gradientUnits="userSpaceOnUse">
<stop stop-color="#323232"/>
<stop offset="1" stop-color="#959595" stop-opacity="0.16"/>
</linearGradient>
<linearGradient id="paint28_linear_604_268" x1="577.126" y1="879.754" x2="1217.02" y2="707.105" gradientUnits="userSpaceOnUse">
<stop stop-color="#323232"/>
<stop offset="1" stop-color="#959595" stop-opacity="0.16"/>
</linearGradient>
<linearGradient id="paint29_linear_604_268" x1="560.493" y1="862.983" x2="1202.99" y2="726.408" gradientUnits="userSpaceOnUse">
<stop stop-color="#323232"/>
<stop offset="1" stop-color="#959595" stop-opacity="0.16"/>
</linearGradient>
<linearGradient id="paint30_linear_604_268" x1="544.797" y1="846.446" x2="1187.74" y2="745.929" gradientUnits="userSpaceOnUse">
<stop stop-color="#323232"/>
<stop offset="1" stop-color="#959595" stop-opacity="0.16"/>
</linearGradient>
<linearGradient id="paint31_linear_604_268" x1="530.015" y1="830.188" x2="1171.25" y2="765.567" gradientUnits="userSpaceOnUse">
<stop stop-color="#323232"/>
<stop offset="1" stop-color="#959595" stop-opacity="0.16"/>
</linearGradient>
<linearGradient id="paint32_linear_604_268" x1="516.121" y1="814.257" x2="1153.47" y2="785.208" gradientUnits="userSpaceOnUse">
<stop stop-color="#323232"/>
<stop offset="1" stop-color="#959595" stop-opacity="0.16"/>
</linearGradient>
<linearGradient id="paint33_linear_604_268" x1="503.088" y1="798.693" x2="1134.39" y2="804.733" gradientUnits="userSpaceOnUse">
<stop stop-color="#323232"/>
<stop offset="1" stop-color="#959595" stop-opacity="0.16"/>
</linearGradient>
<linearGradient id="paint34_linear_604_268" x1="490.885" y1="783.54" x2="1114.01" y2="824.017" gradientUnits="userSpaceOnUse">
<stop stop-color="#323232"/>
<stop offset="1" stop-color="#959595" stop-opacity="0.16"/>
</linearGradient>
<linearGradient id="paint35_linear_604_268" x1="479.479" y1="768.836" x2="1092.34" y2="842.934" gradientUnits="userSpaceOnUse">
<stop stop-color="#323232"/>
<stop offset="1" stop-color="#959595" stop-opacity="0.16"/>
</linearGradient>
<linearGradient id="paint36_linear_604_268" x1="468.836" y1="754.617" x2="1069.41" y2="861.357" gradientUnits="userSpaceOnUse">
<stop stop-color="#323232"/>
<stop offset="1" stop-color="#959595" stop-opacity="0.16"/>
</linearGradient>
<linearGradient id="paint37_linear_604_268" x1="458.919" y1="740.918" x2="1045.26" y2="879.162" gradientUnits="userSpaceOnUse">
<stop stop-color="#323232"/>
<stop offset="1" stop-color="#959595" stop-opacity="0.16"/>
</linearGradient>
<linearGradient id="paint38_linear_604_268" x1="449.689" y1="727.772" x2="1019.95" y2="896.232" gradientUnits="userSpaceOnUse">
<stop stop-color="#323232"/>
<stop offset="1" stop-color="#959595" stop-opacity="0.16"/>
</linearGradient>
<linearGradient id="paint39_linear_604_268" x1="441.106" y1="715.207" x2="993.573" y2="912.458" gradientUnits="userSpaceOnUse">
<stop stop-color="#323232"/>
<stop offset="1" stop-color="#959595" stop-opacity="0.16"/>
</linearGradient>
<linearGradient id="paint40_linear_604_268" x1="433.129" y1="703.251" x2="966.206" y2="927.741" gradientUnits="userSpaceOnUse">
<stop stop-color="#323232"/>
<stop offset="1" stop-color="#959595" stop-opacity="0.16"/>
</linearGradient>
<linearGradient id="paint41_linear_604_268" x1="425.715" y1="691.928" x2="937.952" y2="941.996" gradientUnits="userSpaceOnUse">
<stop stop-color="#323232"/>
<stop offset="1" stop-color="#959595" stop-opacity="0.16"/>
</linearGradient>
<linearGradient id="paint42_linear_604_268" x1="418.818" y1="681.259" x2="908.924" y2="955.151" gradientUnits="userSpaceOnUse">
<stop stop-color="#323232"/>
<stop offset="1" stop-color="#959595" stop-opacity="0.16"/>
</linearGradient>
<linearGradient id="paint43_linear_604_268" x1="412.396" y1="671.263" x2="879.237" y2="967.151" gradientUnits="userSpaceOnUse">
<stop stop-color="#323232"/>
<stop offset="1" stop-color="#959595" stop-opacity="0.16"/>
</linearGradient>
<linearGradient id="paint44_linear_604_268" x1="406.4" y1="661.957" x2="849.013" y2="977.956" gradientUnits="userSpaceOnUse">
<stop stop-color="#323232"/>
<stop offset="1" stop-color="#959595" stop-opacity="0.16"/>
</linearGradient>
<linearGradient id="paint45_linear_604_268" x1="400.786" y1="653.354" x2="818.374" y2="987.543" gradientUnits="userSpaceOnUse">
<stop stop-color="#323232"/>
<stop offset="1" stop-color="#959595" stop-opacity="0.16"/>
</linearGradient>
<linearGradient id="paint46_linear_604_268" x1="395.505" y1="645.464" x2="787.443" y2="995.904" gradientUnits="userSpaceOnUse">
<stop stop-color="#323232"/>
<stop offset="1" stop-color="#959595" stop-opacity="0.16"/>
</linearGradient>
<linearGradient id="paint47_linear_604_268" x1="390.511" y1="638.295" x2="756.336" y2="1003.05" gradientUnits="userSpaceOnUse">
<stop stop-color="#323232"/>
<stop offset="1" stop-color="#959595" stop-opacity="0.16"/>
</linearGradient>
<linearGradient id="paint48_linear_604_268" x1="385.757" y1="631.853" x2="725.166" y2="1009" gradientUnits="userSpaceOnUse">
<stop stop-color="#323232"/>
<stop offset="1" stop-color="#959595" stop-opacity="0.16"/>
</linearGradient>
<linearGradient id="paint49_linear_604_268" x1="381.194" y1="626.14" x2="694.038" y2="1013.78" gradientUnits="userSpaceOnUse">
<stop stop-color="#323232"/>
<stop offset="1" stop-color="#959595" stop-opacity="0.16"/>
</linearGradient>
<linearGradient id="paint50_linear_604_268" x1="376.777" y1="621.155" x2="663.047" y2="1017.45" gradientUnits="userSpaceOnUse">
<stop stop-color="#323232"/>
<stop offset="1" stop-color="#959595" stop-opacity="0.16"/>
</linearGradient>
<linearGradient id="paint51_linear_604_268" x1="372.458" y1="616.895" x2="632.279" y2="1020.05" gradientUnits="userSpaceOnUse">
<stop stop-color="#323232"/>
<stop offset="1" stop-color="#959595" stop-opacity="0.16"/>
</linearGradient>
<linearGradient id="paint52_linear_604_268" x1="368.192" y1="613.356" x2="601.809" y2="1021.66" gradientUnits="userSpaceOnUse">
<stop stop-color="#323232"/>
<stop offset="1" stop-color="#959595" stop-opacity="0.16"/>
</linearGradient>
<linearGradient id="paint53_linear_604_268" x1="363.933" y1="610.528" x2="571.701" y2="1022.33" gradientUnits="userSpaceOnUse">
<stop stop-color="#323232"/>
<stop offset="1" stop-color="#959595" stop-opacity="0.16"/>
</linearGradient>
<linearGradient id="paint54_linear_604_268" x1="359.637" y1="608.401" x2="542.009" y2="1022.13" gradientUnits="userSpaceOnUse">
<stop stop-color="#323232"/>
<stop offset="1" stop-color="#959595" stop-opacity="0.16"/>
</linearGradient>
<linearGradient id="paint55_linear_604_268" x1="355.261" y1="606.962" x2="512.775" y2="1021.13" gradientUnits="userSpaceOnUse">
<stop stop-color="#323232"/>
<stop offset="1" stop-color="#959595" stop-opacity="0.16"/>
</linearGradient>
<linearGradient id="paint56_linear_604_268" x1="350.762" y1="606.196" x2="484.03" y2="1019.41" gradientUnits="userSpaceOnUse">
<stop stop-color="#323232"/>
<stop offset="1" stop-color="#959595" stop-opacity="0.16"/>
</linearGradient>
<linearGradient id="paint57_linear_604_268" x1="346.1" y1="606.085" x2="455.797" y2="1017.04" gradientUnits="userSpaceOnUse">
<stop stop-color="#323232"/>
<stop offset="1" stop-color="#959595" stop-opacity="0.16"/>
</linearGradient>
<linearGradient id="paint58_linear_604_268" x1="341.235" y1="606.61" x2="428.09" y2="1014.07" gradientUnits="userSpaceOnUse">
<stop stop-color="#323232"/>
<stop offset="1" stop-color="#959595" stop-opacity="0.16"/>
</linearGradient>
<linearGradient id="paint59_linear_604_268" x1="336.13" y1="607.749" x2="400.914" y2="1010.58" gradientUnits="userSpaceOnUse">
<stop stop-color="#323232"/>
<stop offset="1" stop-color="#959595" stop-opacity="0.16"/>
</linearGradient>
<linearGradient id="paint60_linear_604_268" x1="330.749" y1="609.478" x2="374.271" y2="1006.63" gradientUnits="userSpaceOnUse">
<stop stop-color="#323232"/>
<stop offset="1" stop-color="#959595" stop-opacity="0.16"/>
</linearGradient>
<linearGradient id="paint61_linear_604_268" x1="325.057" y1="611.773" x2="348.152" y2="1002.27" gradientUnits="userSpaceOnUse">
<stop stop-color="#323232"/>
<stop offset="1" stop-color="#959595" stop-opacity="0.16"/>
</linearGradient>
<linearGradient id="paint62_linear_604_268" x1="319.022" y1="614.605" x2="322.547" y2="997.542" gradientUnits="userSpaceOnUse">
<stop stop-color="#323232"/>
<stop offset="1" stop-color="#959595" stop-opacity="0.16"/>
</linearGradient>
<linearGradient id="paint63_linear_604_268" x1="312.614" y1="617.946" x2="297.443" y2="992.5" gradientUnits="userSpaceOnUse">
<stop stop-color="#323232"/>
<stop offset="1" stop-color="#959595" stop-opacity="0.16"/>
</linearGradient>
<linearGradient id="paint64_linear_604_268" x1="305.805" y1="621.767" x2="272.822" y2="987.179" gradientUnits="userSpaceOnUse">
<stop stop-color="#323232"/>
<stop offset="1" stop-color="#959595" stop-opacity="0.16"/>
</linearGradient>
<linearGradient id="paint65_linear_604_268" x1="298.569" y1="626.035" x2="248.666" y2="981.613" gradientUnits="userSpaceOnUse">
<stop stop-color="#323232"/>
<stop offset="1" stop-color="#959595" stop-opacity="0.16"/>
</linearGradient>
<linearGradient id="paint66_linear_604_268" x1="290.882" y1="630.72" x2="224.957" y2="975.831" gradientUnits="userSpaceOnUse">
<stop stop-color="#323232"/>
<stop offset="1" stop-color="#959595" stop-opacity="0.16"/>
</linearGradient>
<linearGradient id="paint67_linear_604_268" x1="282.723" y1="635.787" x2="201.675" y2="969.855" gradientUnits="userSpaceOnUse">
<stop stop-color="#323232"/>
<stop offset="1" stop-color="#959595" stop-opacity="0.16"/>
</linearGradient>
<linearGradient id="paint68_linear_604_268" x1="274.073" y1="641.201" x2="178.803" y2="963.705" gradientUnits="userSpaceOnUse">
<stop stop-color="#323232"/>
<stop offset="1" stop-color="#959595" stop-opacity="0.16"/>
</linearGradient>
</defs>
</svg>
