<svg width="481" height="1320" viewBox="0 0 481 1320" fill="none" xmlns="http://www.w3.org/2000/svg">
<path opacity="0.0144928" d="M236.265 1026.74C238.193 1033.24 244.189 1037.68 250.967 1037.62L466.281 1035.91C470.289 1035.88 474.123 1034.27 476.949 1031.42L694.208 812.787C696.43 810.551 697.902 807.679 698.421 804.57L742.857 538.303C743.798 532.665 741.498 526.976 736.904 523.575L585.982 411.859C581.387 408.458 575.274 407.921 570.157 410.467L328.476 530.729C325.654 532.133 323.337 534.38 321.848 537.159L176.194 808.799C174.3 812.332 173.877 816.47 175.017 820.313L236.265 1026.74Z" stroke="url(#paint0_linear_418_1335)" stroke-width="2.64516"/>
<path opacity="0.0289855" d="M213.262 1001.92C214.854 1008.49 220.591 1013.22 227.345 1013.53L440.895 1023.36C444.905 1023.55 448.826 1022.14 451.802 1019.45L678.205 814.489C680.55 812.367 682.174 809.567 682.853 806.479L740.308 545.094C741.533 539.519 739.534 533.727 735.129 530.095L591.122 411.344C586.718 407.712 580.651 406.852 575.411 409.118L329.756 515.309C326.854 516.564 324.414 518.692 322.778 521.397L164.699 782.696C162.621 786.13 161.986 790.248 162.931 794.149L213.262 1001.92Z" stroke="url(#paint1_linear_418_1335)" stroke-width="2.64516"/>
<path opacity="0.0434783" d="M191.174 976.563C192.427 983.187 197.892 988.196 204.6 988.87L415.774 1010.06C419.774 1010.46 423.771 1009.26 426.89 1006.72L661.605 815.799C664.066 813.798 665.839 811.077 666.677 808.018L736.765 552.143C738.271 546.645 736.575 540.766 732.373 536.913L595.601 411.543C591.398 407.691 585.394 406.512 580.047 408.49L331.224 500.529C328.249 501.629 325.693 503.632 323.912 506.257L154.088 756.663C151.831 759.99 150.984 764.076 151.731 768.026L191.174 976.563Z" stroke="url(#paint2_linear_418_1335)" stroke-width="2.64516"/>
<path opacity="0.057971" d="M170.021 950.732C170.934 957.394 176.112 962.665 182.757 963.696L390.955 996.016C394.933 996.634 398.995 995.648 402.249 993.276L644.434 816.688C647.004 814.813 648.923 812.18 649.918 809.158L732.223 559.393C734.005 553.985 732.617 548.035 728.627 543.974L599.386 412.413C595.397 408.352 589.472 406.859 584.034 408.544L332.844 486.393C329.805 487.335 327.138 489.206 325.218 491.743L144.35 730.749C141.92 733.96 140.863 738.003 141.41 741.992L170.021 950.732Z" stroke="url(#paint3_linear_418_1335)" stroke-width="2.64516"/>
<path opacity="0.0724638" d="M149.82 924.481C150.393 931.161 155.272 936.679 161.833 938.064L366.474 981.261C370.419 982.094 374.534 981.325 377.914 979.125L626.717 817.126C629.392 815.385 631.451 812.846 632.602 809.87L726.679 566.785C728.731 561.483 727.655 555.478 723.888 551.219L602.449 413.911C598.682 409.652 592.854 407.85 587.341 409.238L334.582 472.905C331.487 473.684 328.716 475.418 326.66 477.859L135.472 705.001C132.875 708.087 131.609 712.077 131.954 716.095L149.82 924.481Z" stroke="url(#paint4_linear_418_1335)" stroke-width="2.64516"/>
<path opacity="0.0869565" d="M130.585 897.865C130.818 904.547 135.387 910.293 141.845 912.026L342.365 965.816C346.267 966.863 350.424 966.314 353.92 964.293L608.484 817.087C611.255 815.485 613.451 813.048 614.757 810.125L720.136 574.264C722.452 569.08 721.688 563.038 718.154 558.593L604.761 415.99C601.227 411.546 595.512 409.44 589.94 410.529L336.402 460.066C333.26 460.679 330.392 462.269 328.206 464.609L127.437 679.467C124.68 682.418 123.209 686.345 123.35 690.381L130.585 897.865Z" stroke="url(#paint5_linear_418_1335)" stroke-width="2.64516"/>
<path opacity="0.101449" d="M112.326 870.942C112.221 877.608 116.469 883.565 122.805 885.638L318.663 949.709C322.508 950.967 326.695 950.641 330.299 948.804L589.763 816.547C592.624 815.089 594.951 812.761 596.409 809.899L712.596 581.773C715.169 576.721 714.718 570.657 711.426 566.04L606.3 418.606C603.008 413.989 597.422 411.587 591.806 412.373L338.27 447.875C335.089 448.32 332.131 449.761 329.82 451.991L120.228 654.19C117.316 656.999 115.644 660.852 115.58 664.896L112.326 870.942Z" stroke="url(#paint6_linear_418_1335)" stroke-width="2.64516"/>
<path opacity="0.115942" d="M95.0519 843.767C94.6108 850.4 98.5277 856.55 104.724 858.956L295.397 932.967C299.174 934.433 303.38 934.331 307.082 932.685L570.585 815.482C573.53 814.172 575.982 811.961 577.589 809.168L704.067 589.257C706.89 584.349 706.753 578.279 703.711 573.504L607.043 421.709C604.002 416.933 598.56 414.242 592.919 414.725L340.152 436.33C336.941 436.604 333.901 437.892 331.469 440.006L113.823 629.216C110.765 631.874 108.894 635.642 108.625 639.685L95.0519 843.767Z" stroke="url(#paint7_linear_418_1335)" stroke-width="2.64516"/>
<path opacity="0.130435" d="M78.7657 816.398C77.992 822.98 81.5693 829.305 87.6088 832.034L272.598 915.618C276.296 917.289 280.509 917.413 284.299 915.962L550.983 813.87C554.002 812.714 556.575 810.626 558.327 807.909L694.56 596.66C697.624 591.909 697.8 585.85 695.017 580.929L606.973 425.252C604.19 420.332 598.907 417.36 593.257 417.538L342.013 425.427C338.782 425.528 335.666 426.657 333.12 428.649L108.199 604.585C105.002 607.085 102.938 610.759 102.464 614.79L78.7657 816.398Z" stroke="url(#paint8_linear_418_1335)" stroke-width="2.64516"/>
<path opacity="0.144928" d="M63.4688 788.89C62.3667 795.405 65.5967 801.886 71.4618 804.928L250.293 897.695C253.901 899.566 258.108 899.916 261.975 898.666L530.988 811.693C534.075 810.695 536.762 808.737 538.656 806.103L684.088 603.93C687.384 599.347 687.871 593.316 685.353 588.264L606.075 429.188C603.557 424.136 598.448 420.894 592.804 420.767L343.82 415.159C340.577 415.086 337.395 416.052 334.74 417.916L103.331 580.34C100.004 582.675 97.7499 586.245 97.0719 590.252L63.4688 788.89Z" stroke="url(#paint9_linear_418_1335)" stroke-width="2.64516"/>
<path opacity="0.15942" d="M49.1586 761.3C47.7332 767.731 50.6093 774.349 56.2835 777.694L228.507 879.228C232.014 881.296 236.204 881.871 240.138 880.825L510.634 808.933C513.78 808.097 516.575 806.274 518.608 803.731L672.667 611.013C676.186 606.61 676.982 600.623 674.736 595.453L604.334 433.467C602.087 428.298 597.166 424.795 591.546 424.364L345.54 405.52C342.294 405.271 339.054 406.071 336.296 407.8L99.1905 556.519C95.7416 558.682 93.3039 562.138 92.4229 566.112L49.1586 761.3Z" stroke="url(#paint10_linear_418_1335)" stroke-width="2.64516"/>
<path opacity="0.173913" d="M35.8304 733.683C34.0875 740.014 36.6041 746.748 42.0716 750.385L207.265 860.25C210.66 862.508 214.82 863.309 218.811 862.471L489.956 805.574C493.153 804.903 496.049 803.221 498.216 800.776L660.316 617.858C664.048 613.646 665.15 607.718 663.18 602.447L601.742 438.039C599.772 432.767 595.052 429.014 589.473 428.282L347.14 396.499C343.901 396.074 340.611 396.703 337.758 398.293L95.7493 533.159C92.1873 535.144 89.5715 538.476 88.4891 542.408L35.8304 733.683Z" stroke="url(#paint11_linear_418_1335)" stroke-width="2.64516"/>
<path opacity="0.188406" d="M23.4751 706.093C21.4215 712.308 23.5743 719.14 28.8199 723.055L186.588 840.796C189.861 843.238 193.979 844.262 198.016 843.636L468.989 801.602C472.228 801.1 475.218 799.564 477.514 797.224L647.057 624.417C650.992 620.406 652.396 614.553 650.707 609.194L598.291 442.855C596.603 437.496 592.097 433.505 586.574 432.475L348.588 388.086C345.366 387.484 342.035 387.941 339.093 389.386L92.9752 510.296C89.3091 512.097 86.5215 515.296 85.24 519.175L23.4751 706.093Z" stroke="url(#paint12_linear_418_1335)" stroke-width="2.64516"/>
<path opacity="0.202899" d="M12.0819 678.585C9.72507 684.668 11.5107 691.577 16.52 695.757L166.495 820.899C169.636 823.52 173.701 824.765 177.772 824.353L447.767 797.007C451.04 796.676 454.118 795.292 456.538 793.063L632.916 630.64C637.042 626.84 638.742 621.077 637.338 615.646L593.978 447.867C592.574 442.436 588.295 438.218 582.844 436.894L349.855 380.267C346.658 379.49 343.296 379.77 340.272 381.066L90.8355 487.962C87.0748 489.574 84.1221 492.632 82.6441 496.448L12.0819 678.585Z" stroke="url(#paint13_linear_418_1335)" stroke-width="2.64516"/>
<path opacity="0.217391" d="M1.63634 651.209C-1.01549 657.146 0.400647 664.113 5.16013 668.543L147.005 800.595C150.004 803.387 154.004 804.851 158.098 804.655L426.328 791.778C429.626 791.62 432.783 790.392 435.322 788.282L617.918 636.481C622.224 632.901 624.215 627.244 623.099 621.756L588.8 453.025C587.684 447.537 583.643 443.106 578.28 441.491L350.91 373.028C347.748 372.076 344.363 372.179 341.265 373.321L89.295 466.19C85.4495 467.607 82.3388 470.516 80.6675 474.258L1.63634 651.209Z" stroke="url(#paint14_linear_418_1335)" stroke-width="2.64516"/>
<path opacity="0.231884" d="M-7.8786 624.017C-10.8164 629.794 -9.77082 636.798 -5.274 641.465L128.132 779.92C130.981 782.876 134.903 784.556 139.009 784.576L404.706 785.908C408.02 785.924 411.249 784.858 413.901 782.871L602.093 641.897C606.568 638.545 608.843 633.008 608.017 627.478L582.759 458.281C581.934 452.751 578.141 448.12 572.882 446.221L351.724 366.355C348.607 365.229 345.207 365.152 342.043 366.136L88.3177 445.007C84.3974 446.226 81.1362 448.977 79.2753 452.637L-7.8786 624.017Z" stroke="url(#paint15_linear_418_1335)" stroke-width="2.64516"/>
<path opacity="0.246377" d="M-16.4828 597.06C-19.6968 602.662 -19.0219 609.683 -14.7996 614.571L109.891 758.911C112.579 762.023 116.414 763.914 120.519 764.153L382.939 779.391C386.26 779.584 389.553 778.683 392.312 776.826L585.473 646.845C590.103 643.729 592.655 638.326 592.121 632.771L575.859 463.587C575.325 458.031 571.791 453.214 566.652 451.037L352.269 360.229C349.206 358.931 345.802 358.674 342.579 359.496L87.8659 424.441C83.8809 425.457 80.4772 428.044 78.4309 431.611L-16.4828 597.06Z" stroke="url(#paint16_linear_418_1335)" stroke-width="2.64516"/>
<path opacity="0.26087" d="M-24.1989 570.384C-27.6786 575.799 -27.3733 582.818 -23.4367 587.91L92.2924 737.605C94.8121 740.864 98.5461 742.962 102.64 743.419L361.063 772.225C364.382 772.595 367.73 771.862 370.591 770.14L568.091 651.284C572.865 648.411 575.686 643.158 575.444 637.591L568.107 468.894C567.865 463.328 564.598 458.339 559.593 455.892L352.519 354.632C349.519 353.165 346.12 352.726 342.846 353.382L87.9004 404.517C83.8612 405.327 80.3234 407.741 78.0962 411.207L-24.1989 570.384Z" stroke="url(#paint17_linear_418_1335)" stroke-width="2.64516"/>
<path opacity="0.275362" d="M-31.0516 544.038C-34.786 549.252 -34.8483 556.248 -31.2072 561.528L75.3455 716.039C77.6884 719.436 81.3113 721.736 85.3828 722.41L339.115 764.407C342.422 764.954 345.817 764.394 348.773 762.813L549.984 655.177C554.888 652.553 557.969 647.462 558.019 641.901L559.511 474.158C559.56 468.597 556.57 463.452 551.713 460.741L352.448 349.544C349.521 347.91 346.136 347.289 342.82 347.778L88.3815 385.255C84.2986 385.857 80.6354 388.091 78.2324 391.447L-31.0516 544.038Z" stroke="url(#paint18_linear_418_1335)" stroke-width="2.64516"/>
<path opacity="0.289855" d="M-37.0684 518.064C-41.0459 523.065 -41.4724 530.02 -38.136 535.471L59.0573 694.249C61.2158 697.776 64.7166 700.271 68.7539 701.162L317.129 755.938C320.416 756.663 323.849 756.277 326.893 754.842L531.189 658.488C536.21 656.12 539.542 651.204 539.882 645.662L550.083 479.332C550.423 473.791 547.717 468.505 543.023 465.541L352.032 344.944C349.187 343.147 345.826 342.345 342.476 342.662L89.268 366.677C85.1522 367.067 81.3726 369.116 78.7994 372.352L-37.0684 518.064Z" stroke="url(#paint19_linear_418_1335)" stroke-width="2.64516"/>
<path opacity="0.304348" d="M-42.2789 492.505C-46.4871 497.283 -47.2737 504.177 -44.2501 509.781L43.4329 672.275C45.3998 675.92 48.7681 678.605 52.7597 679.71L295.144 746.821C298.4 747.723 301.863 747.514 304.988 746.229L511.745 661.184C516.87 659.076 520.443 654.348 521.071 648.842L539.838 484.372C540.466 478.866 538.051 473.455 533.532 470.247L351.248 340.81C348.494 338.854 345.166 337.871 341.79 338.015L90.5184 348.798C86.3804 348.975 82.4938 350.833 79.7564 353.941L-42.2789 492.505Z" stroke="url(#paint20_linear_418_1335)" stroke-width="2.64516"/>
<path opacity="0.318841" d="M-46.7148 467.403C-51.141 471.947 -52.2824 478.761 -49.5786 484.499L28.4751 650.151C30.2438 653.905 33.4691 656.773 37.4037 658.091L273.193 737.061C276.41 738.138 279.894 738.109 283.093 736.978L491.694 663.235C496.909 661.391 500.712 656.862 501.626 651.408L528.792 489.234C529.706 483.78 527.586 478.259 523.257 474.817L350.075 337.119C347.42 335.007 344.135 333.845 340.743 333.815L92.0899 331.634C87.9408 331.597 83.9569 333.257 81.0616 336.23L-46.7148 467.403Z" stroke="url(#paint21_linear_418_1335)" stroke-width="2.64516"/>
<path opacity="0.333333" d="M-50.4099 442.795C-55.0408 447.095 -56.5307 453.81 -54.1528 459.665L14.1849 627.917C15.7492 631.769 18.8217 634.812 22.6879 636.339L251.313 726.663C254.481 727.915 257.977 728.067 261.242 727.095L471.078 664.612C476.369 663.037 480.39 658.718 481.586 653.329L516.963 493.878C518.159 488.489 516.341 482.875 512.213 479.21L348.492 333.846C345.945 331.585 342.712 330.244 339.312 330.038L93.94 315.196C89.7906 314.945 85.7193 316.403 82.6729 319.232L-50.4099 442.795Z" stroke="url(#paint22_linear_418_1335)" stroke-width="2.64516"/>
<path opacity="0.347826" d="M-53.3999 418.718C-58.2218 422.764 -60.0529 429.363 -58.0057 435.315L0.560799 605.608C1.91526 609.546 4.82545 612.757 8.6122 614.491L229.537 715.637C232.647 717.061 236.147 717.395 239.47 716.585L449.94 665.29C455.293 663.986 459.521 659.889 460.994 654.58L504.373 498.262C505.847 492.953 504.334 487.263 500.419 483.387L346.481 330.967C344.05 328.561 340.879 327.044 337.48 326.661L96.025 299.495C91.8864 299.029 87.7378 300.281 84.5475 302.958L-53.3999 418.718Z" stroke="url(#paint23_linear_418_1335)" stroke-width="2.64516"/>
<path opacity="0.362319" d="M-55.7221 395.204C-60.7208 398.989 -62.885 405.453 -61.1724 411.485L-12.4003 583.261C-11.2607 587.275 -8.52196 590.644 -4.82562 592.58L207.9 703.992C210.943 705.586 214.436 706.103 217.81 705.458L428.325 665.247C433.725 664.216 438.149 660.35 439.894 655.136L491.045 502.348C492.79 497.134 491.586 491.384 487.895 487.309L344.023 328.456C341.717 325.91 338.617 324.22 335.228 323.66L98.3014 284.537C94.1845 283.857 89.9691 284.899 86.6424 287.417L-55.7221 395.204Z" stroke="url(#paint24_linear_418_1335)" stroke-width="2.64516"/>
<path opacity="0.376812" d="M-57.4154 372.286C-62.5765 375.801 -65.0645 382.114 -63.6894 388.206L-24.7036 560.91C-23.7831 564.988 -21.2246 568.507 -17.6294 570.641L186.435 691.741C189.402 693.502 192.879 694.201 196.296 693.725L406.278 664.463C411.712 663.705 416.317 660.08 418.329 654.975L477.002 506.098C479.014 500.993 478.121 495.201 474.664 490.939L341.105 326.286C338.932 323.607 335.912 321.746 332.542 321.009L100.725 270.327C96.6413 269.434 92.3698 270.261 88.9146 272.615L-57.4154 372.286Z" stroke="url(#paint25_linear_418_1335)" stroke-width="2.64516"/>
<path opacity="0.391304" d="M-58.5202 349.992C-63.8288 353.232 -66.6305 359.377 -65.5946 365.509L-36.3561 538.593C-35.6584 542.723 -33.2884 546.383 -29.8049 548.708L165.173 678.898C168.055 680.822 171.507 681.705 174.959 681.399L383.847 662.92C389.3 662.437 394.074 659.061 396.345 654.079L462.273 509.478C464.545 504.496 463.963 498.678 460.751 494.244L337.712 324.43C335.678 321.624 332.748 319.596 329.405 318.682L103.254 256.867C99.2134 255.763 94.8964 256.374 91.3209 258.555L-58.5202 349.992Z" stroke="url(#paint26_linear_418_1335)" stroke-width="2.64516"/>
<path opacity="0.405797" d="M-59.0779 328.348C-64.519 331.306 -67.6235 337.267 -66.9274 343.421L-47.3667 516.342C-46.8949 520.512 -44.721 524.302 -41.3596 526.815L144.146 665.478C146.934 667.562 150.353 668.626 153.831 668.494L361.077 660.604C366.536 660.396 371.465 657.276 373.988 652.431L446.886 512.453C449.409 507.608 449.14 501.781 446.18 497.189L333.83 322.86C331.945 319.934 329.112 317.744 325.806 316.654L105.843 244.157C101.857 242.843 97.5055 243.235 93.8182 245.239L-59.0779 328.348Z" stroke="url(#paint27_linear_418_1335)" stroke-width="2.64516"/>
<path opacity="0.42029" d="M-59.1314 307.378C-64.6897 310.048 -68.0854 315.811 -67.7285 321.967L-57.7462 494.191C-57.5029 498.389 -55.5324 502.299 -52.3029 504.992L123.385 651.497C126.07 653.737 129.445 654.983 132.942 655.025L338.016 657.504C343.467 657.57 348.536 654.714 351.304 650.017L430.869 514.993C433.637 510.297 433.679 504.478 430.981 499.742L329.45 321.548C327.719 318.51 324.994 316.161 321.733 314.897L108.45 232.193C104.529 230.673 100.154 230.843 96.3638 232.664L-59.1314 307.378Z" stroke="url(#paint28_linear_418_1335)" stroke-width="2.64516"/>
<path opacity="0.434783" d="M-58.7243 287.102C-64.3842 289.481 -68.0584 295.03 -68.0393 301.17L-67.507 472.173C-67.4938 476.387 -65.7335 480.406 -62.6456 483.273L102.917 636.976C105.492 639.366 108.814 640.792 112.32 641.01L314.712 653.612C320.141 653.95 325.336 651.363 328.339 646.828L414.256 517.069C417.259 512.534 417.612 506.741 415.181 501.875L324.561 320.466C322.991 317.323 320.382 314.821 317.176 313.384L111.032 220.97C107.187 219.247 102.799 219.195 98.9153 220.828L-58.7243 287.102Z" stroke="url(#paint29_linear_418_1335)" stroke-width="2.64516"/>
<path opacity="0.449275" d="M-57.9008 267.538C-63.6467 269.623 -67.5862 274.945 -67.9022 281.049L-76.663 450.319C-76.8812 454.536 -75.3371 458.653 -72.4002 461.686L82.7717 621.934C85.2269 624.469 88.4876 626.072 91.9948 626.467L291.213 648.92C296.605 649.527 301.913 647.216 305.141 642.855L397.079 518.651C400.308 514.29 400.968 508.538 398.812 503.559L319.156 319.583C317.754 316.344 315.269 313.694 312.127 312.086L113.547 210.48C109.789 208.557 105.4 208.283 101.431 209.723L-57.9008 267.538Z" stroke="url(#paint30_linear_418_1335)" stroke-width="2.64516"/>
<path opacity="0.463768" d="M-56.7062 248.702C-62.5224 250.49 -66.7133 255.572 -67.3605 261.622L-85.2303 428.66C-85.6803 432.867 -84.358 437.071 -81.581 440.262L62.9742 606.392C65.3021 609.068 68.4918 610.845 71.9916 611.418L267.566 643.427C272.908 644.301 278.313 642.27 281.757 638.093L379.372 519.717C382.816 515.54 383.781 509.847 381.905 504.769L313.229 318.873C312 315.546 309.648 312.754 306.578 310.978L115.954 200.714C112.292 198.596 107.914 198.099 103.87 199.342L-56.7062 248.702Z" stroke="url(#paint31_linear_418_1335)" stroke-width="2.64516"/>
<path opacity="0.478261" d="M-55.1856 230.606C-61.0563 232.096 -65.484 236.926 -66.4578 242.904L-93.2257 407.225C-93.9073 411.409 -92.8118 415.688 -90.2033 419.03L43.55 590.375C45.7429 593.184 48.8526 595.134 52.3365 595.884L243.818 637.131C249.097 638.269 254.584 636.521 258.233 632.54L361.17 520.242C364.819 516.261 366.084 510.643 364.492 505.482L306.776 318.305C305.726 314.9 303.513 311.971 300.524 310.031L118.213 191.659C114.658 189.35 110.3 188.631 106.191 189.673L-55.1856 230.606Z" stroke="url(#paint32_linear_418_1335)" stroke-width="2.64516"/>
<path opacity="0.492754" d="M-53.385 213.262C-59.2946 214.451 -63.9439 219.018 -65.2384 224.906L-100.668 386.042C-101.58 390.191 -100.716 394.532 -98.2842 398.015L24.5227 573.905C26.573 576.841 29.5938 578.96 33.0531 579.888L220.016 630.037C225.219 631.432 230.772 629.972 234.615 626.197L342.509 520.205C346.352 516.43 347.911 510.904 346.608 505.677L299.793 317.851C298.926 314.376 296.862 311.318 293.962 309.216L120.285 183.3C116.846 180.807 112.52 179.865 108.356 180.703L-53.385 213.262Z" stroke="url(#paint33_linear_418_1335)" stroke-width="2.64516"/>
<path opacity="0.507246" d="M-51.3502 196.674C-57.2828 197.564 -62.138 201.858 -63.7464 207.637L-107.577 365.137C-108.719 369.238 -108.089 373.63 -105.842 377.245L5.91445 557.008C7.81493 560.065 10.7381 562.349 14.1641 563.453L196.208 622.148C201.322 623.797 206.926 622.625 210.951 619.065L323.426 519.59C327.451 516.03 329.299 510.61 328.287 505.333L292.278 317.481C291.601 313.946 289.691 310.766 286.889 308.506L122.131 175.62C118.817 172.948 114.535 171.786 110.326 172.418L-51.3502 196.674Z" stroke="url(#paint34_linear_418_1335)" stroke-width="2.64516"/>
<path opacity="0.521739" d="M-49.1269 180.848C-55.067 181.439 -60.1119 185.451 -62.0263 191.105L-113.975 344.536C-115.343 348.577 -114.951 353.006 -112.895 356.744L-12.2543 539.71C-10.5104 542.881 -7.69356 545.326 -4.30942 546.606L172.438 613.472C177.45 615.369 183.091 614.487 187.286 611.152L303.958 518.378C308.153 515.042 310.283 509.745 309.564 504.434L284.233 317.167C283.748 313.582 282.001 310.286 279.305 307.873L123.714 168.601C120.535 165.756 116.308 164.377 112.063 164.799L-49.1269 180.848Z" stroke="url(#paint35_linear_418_1335)" stroke-width="2.64516"/>
<path opacity="0.536232" d="M-46.7608 165.786C-52.6929 166.08 -57.911 169.801 -60.1226 175.313L-119.883 324.263C-121.475 328.23 -121.323 332.685 -119.465 336.535L-29.9644 522.04C-28.3839 525.316 -25.6818 527.917 -22.348 529.372L148.751 604.021C153.65 606.159 159.312 605.568 163.664 602.464L284.144 516.557C288.496 513.454 290.899 508.294 290.475 502.966L275.659 316.88C275.371 313.254 273.792 309.852 271.21 307.29L124.999 162.222C121.964 159.211 117.802 157.616 113.532 157.828L-46.7608 165.786Z" stroke="url(#paint36_linear_418_1335)" stroke-width="2.64516"/>
<path opacity="0.550725" d="M-44.2971 151.486C-50.206 151.486 -55.5801 154.908 -58.0792 160.263L-125.324 304.339C-127.136 308.221 -127.227 312.688 -125.574 316.64L-47.1988 504.025C-45.7878 507.399 -43.2086 510.151 -39.9337 511.778L125.192 593.807C129.966 596.178 135.632 595.877 140.129 593.014L264.021 514.115C268.517 511.252 271.186 506.244 271.056 500.915L266.56 316.592C266.471 312.936 265.067 309.435 262.607 306.73L125.952 156.46C123.069 153.29 118.984 151.483 114.699 151.483L-44.2971 151.486Z" stroke="url(#paint37_linear_418_1335)" stroke-width="2.64516"/>
<path opacity="0.565217" d="M-41.7806 137.945C-47.6513 137.654 -53.1642 140.772 -55.9401 145.953L-130.324 284.786C-132.352 288.57 -132.686 293.036 -131.243 297.08L-63.9417 485.694C-62.7061 489.157 -60.2579 492.055 -57.0503 493.852L101.803 582.845C106.44 585.442 112.097 585.431 116.724 582.814L243.629 511.043C248.256 508.426 251.181 503.584 251.345 498.271L256.939 316.275C257.052 312.6 255.83 309.008 253.499 306.165L126.54 151.291C123.818 147.97 119.819 145.955 115.53 145.742L-41.7806 137.945Z" stroke="url(#paint38_linear_418_1335)" stroke-width="2.64516"/>
<path opacity="0.57971" d="M-39.2553 125.157C-45.0731 124.579 -50.7071 127.387 -53.7484 132.38L-134.908 265.622C-137.147 269.297 -137.724 273.749 -136.496 277.873L-80.1792 467.077C-79.1245 470.621 -76.8152 473.659 -73.6833 475.623L78.625 571.153C83.115 573.969 88.7472 574.245 93.4908 571.881L223.007 507.333C227.75 504.969 230.921 500.306 231.376 495.026L246.804 315.901C247.121 312.217 246.086 308.545 243.892 305.569L126.732 146.688C124.178 143.224 120.277 141.005 115.994 140.579L-39.2553 125.157Z" stroke="url(#paint39_linear_418_1335)" stroke-width="2.64516"/>
<path opacity="0.594203" d="M-36.7647 113.113C-42.515 112.253 -48.2525 114.747 -51.5469 119.538L-139.102 246.866C-141.545 250.419 -142.366 254.844 -141.358 259.037L-95.8994 448.204C-95.0307 451.819 -92.8678 454.991 -89.8196 457.12L55.6988 558.751C60.0312 561.777 65.6237 562.337 70.4702 560.23L202.192 502.982C207.038 500.876 210.444 496.405 211.188 491.173L236.161 315.444C236.685 311.763 235.841 308.018 233.791 304.916L126.5 142.623C124.121 139.025 120.327 136.606 116.062 135.968L-36.7647 113.113Z" stroke="url(#paint40_linear_418_1335)" stroke-width="2.64516"/>
<path opacity="0.608696" d="M-34.3509 101.803C-40.0198 100.666 -45.8427 102.842 -49.3771 107.418L-142.932 228.532C-145.574 231.953 -146.636 236.337 -145.853 240.588L-111.092 429.106C-110.414 432.784 -108.405 436.083 -105.448 438.373L33.0629 545.662C37.2279 548.888 42.7659 549.729 47.7009 547.885L181.223 497.988C186.158 496.144 189.787 491.877 190.816 486.71L225.021 314.878C225.751 311.211 225.105 307.403 223.205 304.182L125.815 139.067C123.619 135.344 119.942 132.731 115.704 131.882L-34.3509 101.803Z" stroke="url(#paint41_linear_418_1335)" stroke-width="2.64516"/>
<path opacity="0.623188" d="M-32.0553 91.211C-37.629 89.8047 -43.5194 91.6608 -47.28 96.0086L-146.426 210.636C-149.26 213.913 -150.562 218.243 -150.006 222.54L-125.748 409.814C-125.265 413.545 -123.416 416.964 -120.56 419.411L10.7539 531.909C14.7423 535.326 20.2114 536.443 25.2205 534.865L160.139 492.35C165.148 490.771 168.989 486.72 170.298 481.634L213.393 314.177C214.331 310.534 213.885 306.673 212.142 303.34L124.653 135.991C122.646 132.151 119.096 129.35 114.895 128.29L-32.0553 91.211Z" stroke="url(#paint42_linear_418_1335)" stroke-width="2.64516"/>
<path opacity="0.637681" d="M-29.9178 81.3232C-35.3832 79.6539 -41.3231 81.189 -45.2953 85.2974L-149.611 193.19C-152.63 196.312 -154.17 200.575 -153.844 204.905L-139.861 390.36C-139.576 394.133 -137.895 397.665 -135.146 400.265L-11.193 517.519C-7.38979 521.116 -2.00375 522.505 3.06486 521.195L138.978 486.07C144.046 484.76 148.085 480.935 149.669 475.946L201.29 313.317C202.434 309.71 202.194 305.806 200.614 302.368L122.99 133.36C121.178 129.414 117.765 126.431 113.612 125.162L-29.9178 81.3232Z" stroke="url(#paint43_linear_418_1335)" stroke-width="2.64516"/>
<path opacity="0.652174" d="M-27.9772 72.1212C-33.3215 70.1966 -39.2929 71.4105 -43.4616 75.2688L-152.517 176.204C-155.712 179.16 -157.486 183.344 -157.392 187.695L-153.425 370.774C-153.343 374.581 -151.836 378.218 -149.202 380.967L-32.7443 502.519C-29.1345 506.287 -23.8453 507.941 -18.732 506.902L117.775 479.153C122.889 478.114 127.112 474.526 128.965 469.647L188.723 312.274C190.074 308.715 190.042 304.778 188.632 301.241L120.805 131.144C119.193 127.101 115.926 123.942 111.83 122.468L-27.9772 72.1212Z" stroke="url(#paint44_linear_418_1335)" stroke-width="2.64516"/>
<path opacity="0.666667" d="M-26.2708 63.5848C-31.4818 61.4134 -37.4667 62.3069 -41.8164 65.9055L-155.171 159.687C-158.533 162.469 -160.538 166.559 -160.678 170.92L-166.439 351.089C-166.561 354.919 -165.234 358.653 -162.723 361.546L-53.869 486.941C-50.46 490.868 -45.281 492.781 -40.1377 492.013L96.5694 471.606C101.713 470.838 106.107 467.496 108.221 462.744L175.707 311.025C177.264 307.525 177.443 303.566 176.207 299.939L118.078 129.308C116.671 125.178 113.559 121.851 109.531 120.173L-26.2708 63.5848Z" stroke="url(#paint45_linear_418_1335)" stroke-width="2.64516"/>
<path opacity="0.681159" d="M-24.8343 55.6921C-29.9002 53.2829 -35.8811 53.8578 -40.3954 57.1878L-157.602 143.648C-161.122 146.244 -163.353 150.23 -163.727 154.587L-178.9 331.337C-179.23 335.178 -178.088 339.002 -175.706 342.034L-74.5377 470.815C-71.3363 474.89 -66.2804 477.055 -61.122 476.559L75.395 463.437C80.5534 462.941 85.1044 459.853 87.4709 455.242L162.257 309.548C164.018 306.118 164.41 302.148 163.355 298.439L114.792 127.816C113.595 123.61 110.645 120.122 106.696 118.244L-24.8343 55.6921Z" stroke="url(#paint46_linear_418_1335)" stroke-width="2.64516"/>
<path opacity="0.695652" d="M-23.7016 48.4187C-28.6114 45.7812 -34.5706 46.0404 -39.233 49.0942L-159.839 128.092C-163.507 130.494 -165.959 134.361 -166.568 138.703L-190.809 311.548C-191.348 315.391 -190.397 319.295 -188.152 322.46L-94.723 454.173C-91.7355 458.385 -86.8153 460.793 -81.6565 460.569L54.2872 454.656C59.4459 454.432 64.1385 451.605 66.749 447.15L148.39 307.823C150.352 304.475 150.959 300.503 150.089 296.721L110.933 126.633C109.949 122.361 107.17 118.721 103.308 116.646L-23.7016 48.4187Z" stroke="url(#paint47_linear_418_1335)" stroke-width="2.64516"/>
<path opacity="0.710145" d="M-22.9049 41.7397C-27.6481 38.8841 -33.5685 38.8314 -38.3618 41.6023L-161.911 113.022C-165.716 115.222 -168.383 118.959 -169.226 123.272L-202.168 291.755C-202.917 295.589 -202.163 299.564 -200.061 302.857L-114.4 437.051C-111.632 441.388 -106.859 444.031 -101.715 444.076L33.2797 445.277C38.4241 445.323 43.2429 442.765 46.0877 438.478L134.122 305.829C136.282 302.574 137.107 298.613 136.426 294.766L106.486 125.724C105.72 121.397 103.119 117.613 99.3545 115.346L-22.9049 41.7397Z" stroke="url(#paint48_linear_418_1335)" stroke-width="2.64516"/>
<path opacity="0.724638" d="M-22.4747 35.6266C-27.0414 32.5634 -32.906 32.2037 -37.8128 34.6859L-163.846 98.4414C-167.777 100.43 -170.652 104.025 -171.729 108.297L-212.98 271.987C-213.941 275.8 -213.388 279.838 -211.436 283.253L-133.546 419.483C-131.002 423.932 -126.389 426.801 -121.273 427.115L12.4051 435.313C17.5205 435.627 22.45 433.343 25.5185 429.238L119.472 303.547C121.827 300.397 122.869 296.457 122.382 292.554L101.442 125.05C100.896 120.679 98.4811 116.76 94.8227 114.306L-22.4747 35.6266Z" stroke="url(#paint49_linear_418_1335)" stroke-width="2.64516"/>
<path opacity="0.73913" d="M-22.4395 30.0514C-26.8205 26.7917 -32.6128 26.1308 -37.6155 28.3197L-165.672 84.3506C-169.718 86.1208 -172.795 89.562 -174.103 93.7798L-223.253 252.275C-224.426 256.058 -224.077 260.149 -222.281 263.679L-152.141 401.506C-149.825 406.055 -145.382 409.14 -140.31 409.719L-8.30528 424.781C-3.23315 425.36 1.79106 423.355 5.07189 419.444L104.458 300.961C107.003 297.927 108.265 294.02 107.974 290.07L95.7925 124.576C95.4683 120.172 93.246 116.126 89.7031 113.49L-22.4395 30.0514Z" stroke="url(#paint50_linear_418_1335)" stroke-width="2.64516"/>
<path opacity="0.753623" d="M-22.8254 24.9832C-27.0122 21.5386 -32.7161 20.5831 -37.7969 22.4753L-167.418 70.7485C-171.567 72.2935 -174.837 75.5694 -176.374 79.721L-232.992 232.65C-234.377 236.391 -234.237 240.525 -232.603 244.163L-170.166 383.156C-168.082 387.794 -163.819 391.084 -158.805 391.924L-28.8211 413.698C-23.8065 414.538 -18.7037 412.817 -15.2226 409.111L89.1013 298.053C91.832 295.146 93.3116 291.283 93.2213 287.296L89.5309 124.264C89.4307 119.838 87.4071 115.675 83.9884 112.863L-22.8254 24.9832Z" stroke="url(#paint51_linear_418_1335)" stroke-width="2.64516"/>
<path opacity="0.768116" d="M-23.657 20.3908C-27.6417 16.7731 -33.2417 15.5306 -38.3825 17.1236L-169.112 57.6327C-173.351 58.9463 -176.805 62.046 -178.568 66.1189L-242.207 213.141C-243.803 216.828 -243.876 220.996 -242.409 224.736L-187.606 364.473C-185.757 369.186 -181.684 372.671 -176.741 373.768L-49.114 402.084C-44.1708 403.181 -39.0059 401.746 -35.3371 398.256L73.4211 294.809C76.332 292.041 78.0293 288.233 78.1424 284.217L82.6532 124.076C82.7782 119.64 80.9592 115.37 77.6733 112.387L-23.657 20.3908Z" stroke="url(#paint52_linear_418_1335)" stroke-width="2.64516"/>
<path opacity="0.782609" d="M-24.9564 16.2409C-28.7319 12.4625 -34.2129 10.9415 -39.3957 12.234L-170.78 44.9989C-175.097 46.0755 -178.726 48.9885 -180.711 52.9704L-250.909 193.776C-252.715 197.398 -253.002 201.59 -251.709 205.424L-204.447 345.493C-202.835 350.27 -198.961 353.938 -194.103 355.287L-69.1566 389.96C-64.2985 391.308 -59.088 390.161 -55.2449 386.898L57.439 291.214C60.5239 288.595 62.4377 284.854 62.7567 280.819L75.1578 123.975C75.5085 119.54 73.8994 115.173 70.7545 112.026L-24.9564 16.2409Z" stroke="url(#paint53_linear_418_1335)" stroke-width="2.64516"/>
<path opacity="0.797101" d="M-26.7433 12.5008C-30.3033 8.57404 -35.6508 6.7838 -40.8575 7.77562L-172.449 32.8422C-176.831 33.6769 -180.625 36.3931 -182.828 40.2719L-259.109 174.583C-261.123 178.129 -261.629 182.335 -260.513 186.257L-220.679 326.258C-219.305 331.086 -215.638 334.925 -210.878 336.519L-88.9232 377.347C-84.1635 378.94 -78.924 378.083 -74.9205 375.055L41.1767 287.257C44.4291 284.797 46.5576 281.134 47.0846 277.091L67.0454 123.925C67.6219 119.501 66.2275 115.048 63.2314 111.743L-26.7433 12.5008Z" stroke="url(#paint54_linear_418_1335)" stroke-width="2.64516"/>
<path opacity="0.811594" d="M-29.0359 9.13506C-32.3747 5.07288 -37.575 3.02347 -42.7875 3.7155L-174.145 21.155C-178.578 21.7436 -182.528 24.2534 -184.943 28.017L-266.822 155.589C-269.041 159.048 -269.767 163.257 -268.834 167.259L-236.293 306.806C-235.158 311.672 -231.706 315.67 -227.057 317.502L-108.39 364.269C-103.742 366.101 -98.4899 365.533 -94.3405 362.75L24.6561 282.924C28.0687 280.635 30.4098 277.062 31.1463 273.02L58.3184 123.887C59.12 119.488 57.9447 114.958 55.105 111.503L-29.0359 9.13506Z" stroke="url(#paint55_linear_418_1335)" stroke-width="2.64516"/>
<path opacity="0.826087" d="M-31.8491 6.10883C-34.962 1.92425 -40.0018 -0.373571 -45.2023 0.0207124L-175.894 9.92919C-180.364 10.2682 -184.458 12.5625 -187.08 16.1993L-274.061 136.821C-276.484 140.181 -277.431 144.383 -276.685 148.457L-251.283 287.176C-250.387 292.068 -247.156 296.213 -242.631 298.276L-127.535 350.751C-123.01 352.814 -117.763 352.535 -113.482 350.003L7.90017 278.208C11.4651 276.099 14.0159 272.628 14.9634 268.596L48.9818 123.827C50.0074 119.462 49.055 114.867 46.3788 111.269L-31.8491 6.10883Z" stroke="url(#paint56_linear_418_1335)" stroke-width="2.64516"/>
<path opacity="0.84058" d="M-35.1965 3.38597C-38.0793 -0.907824 -42.9464 -3.44252 -48.1172 -3.34287L-177.719 -0.845224C-182.214 -0.758611 -186.44 1.3118 -189.263 4.81021L-280.844 118.303C-283.466 121.553 -284.637 125.737 -284.083 129.875L-265.645 267.408C-264.988 272.313 -261.985 276.592 -257.596 278.877L-146.337 336.818C-141.948 339.104 -136.721 339.112 -132.326 336.839L-9.0685 273.097C-5.35968 271.179 -2.60245 267.821 -1.4433 263.809L39.0423 123.707C40.2903 119.388 39.5639 114.739 37.0581 111.006L-35.1965 3.38597Z" stroke="url(#paint57_linear_418_1335)" stroke-width="2.64516"/>
<path opacity="0.855072" d="M-39.0888 0.930701C-41.7382 -3.45895 -46.4209 -6.21836 -51.5446 -6.40913L-179.645 -11.1788C-184.149 -11.3465 -188.495 -9.50799 -191.512 -6.15913L-287.189 100.06C-290.007 103.188 -291.402 107.344 -291.042 111.538L-279.379 247.542C-278.958 252.448 -276.189 256.847 -271.947 259.347L-164.778 322.498C-160.536 324.998 -155.347 325.289 -150.851 323.28L-26.2266 267.586C-22.3829 265.868 -19.4231 262.634 -18.0519 258.654L28.5091 123.493C29.9771 119.231 29.4795 114.538 27.1506 110.68L-39.0888 0.930701Z" stroke="url(#paint58_linear_418_1335)" stroke-width="2.64516"/>
<path opacity="0.869565" d="M-43.5345 -1.29387C-45.948 -5.76599 -50.4355 -8.73728 -55.495 -9.21321L-181.694 -21.0842C-186.193 -21.5074 -190.648 -19.908 -193.85 -16.7196L-293.114 82.1129C-296.122 85.1087 -297.742 89.2257 -297.581 93.4684L-292.486 227.617C-292.3 232.512 -289.768 237.017 -285.684 239.722L-182.841 307.816C-178.757 310.521 -173.621 311.092 -169.042 309.353L-43.5508 261.668C-39.5819 260.16 -36.4239 257.062 -34.8407 253.122L17.3932 123.15C19.0783 118.957 18.8117 114.232 16.6655 110.255L-43.5345 -1.29387Z" stroke="url(#paint59_linear_418_1335)" stroke-width="2.64516"/>
<path opacity="0.884058" d="M-48.5396 -3.32461C-50.7155 -7.86571 -54.9978 -11.0356 -59.9764 -11.7903L-183.888 -30.5749C-188.368 -31.254 -192.917 -29.9005 -196.297 -26.8829L-298.639 64.4847C-301.834 67.3369 -303.678 71.4039 -303.718 75.6865L-304.969 207.671C-305.015 212.542 -302.725 217.141 -298.809 220.04L-200.511 292.802C-196.595 295.7 -191.528 296.548 -186.882 295.081L-61.0174 255.339C-56.9333 254.049 -53.5823 251.097 -51.7874 247.209L5.70771 122.645C7.60655 118.531 7.57241 113.785 5.61457 109.699L-48.5396 -3.32461Z" stroke="url(#paint60_linear_418_1335)" stroke-width="2.64516"/>
<path opacity="0.898551" d="M-54.1083 -5.19767C-56.0455 -9.79432 -60.1136 -13.1489 -64.9951 -14.1751L-186.247 -39.6649C-190.693 -40.5995 -195.324 -39.4978 -198.873 -36.6613L-303.785 47.1956C-307.161 49.8934 -309.229 53.8995 -309.474 58.2136L-316.834 187.742C-317.109 192.579 -315.063 197.257 -311.325 200.34L-217.774 277.484C-214.037 280.566 -209.054 281.683 -204.358 280.492L-78.603 248.594C-74.4147 247.532 -70.8759 244.738 -68.8704 240.911L-6.53269 121.945C-4.42412 117.921 -4.22472 113.165 -5.98905 108.979L-54.1083 -5.19767Z" stroke="url(#paint61_linear_418_1335)" stroke-width="2.64516"/>
<path opacity="0.913043" d="M-60.2419 -6.94974C-61.9404 -11.5885 -65.786 -15.1135 -70.5547 -16.4028L-188.791 -48.3697C-193.188 -49.5586 -197.887 -48.7141 -201.595 -46.0684L-308.576 30.2644C-312.125 32.7971 -314.417 36.7314 -314.869 41.0683L-328.09 167.869C-328.589 172.659 -326.79 177.403 -323.24 180.658L-234.62 261.89C-231.069 265.145 -226.187 266.525 -221.458 265.612L-96.2839 241.432C-92.0026 240.605 -88.2822 237.98 -86.0673 234.224L-19.3112 121.02C-16.9974 117.096 -16.564 112.342 -18.1301 108.065L-60.2419 -6.94974Z" stroke="url(#paint62_linear_418_1335)" stroke-width="2.64516"/>
<path opacity="0.927536" d="M-66.9399 -8.61751C-68.4002 -13.2852 -72.016 -16.9658 -76.6569 -18.5089L-191.538 -56.7064C-195.872 -58.1475 -200.624 -57.5646 -204.482 -55.1189L-313.033 13.7084C-316.75 16.0652 -319.264 19.9166 -319.926 24.2679L-338.746 148.087C-339.466 152.82 -337.915 157.616 -334.56 161.031L-251.039 246.051C-247.684 249.466 -242.916 251.102 -238.171 250.467L-114.037 233.852C-109.675 233.268 -105.779 230.823 -103.356 227.148L-32.6093 119.838C-30.0953 116.025 -29.4281 111.284 -30.7918 106.925L-66.9399 -8.61751Z" stroke="url(#paint63_linear_418_1335)" stroke-width="2.64516"/>
<path opacity="0.942029" d="M-74.1997 -10.2361C-75.4232 -14.9194 -78.8028 -18.7407 -83.3015 -20.5273L-194.506 -64.6914C-198.762 -66.3817 -203.553 -66.0643 -207.549 -63.8274L-317.182 -2.45569C-321.059 -0.285147 -323.793 3.47245 -324.666 7.82953L-348.817 128.432C-349.751 133.097 -348.448 137.931 -345.296 141.495L-267.024 229.996C-263.872 233.56 -259.233 235.443 -254.489 235.086L-131.839 225.854C-127.408 225.521 -123.344 223.266 -120.716 219.683L-46.4073 118.372C-43.6988 114.679 -42.7983 109.962 -43.9558 105.532L-74.1997 -10.2361Z" stroke="url(#paint64_linear_418_1335)" stroke-width="2.64516"/>
<path opacity="0.956522" d="M-82.0155 -11.8412C-83.0043 -16.5272 -86.1425 -20.4738 -90.4853 -22.4929L-197.709 -72.3433C-201.873 -74.2791 -206.688 -74.2303 -210.812 -72.2104L-321.046 -18.2137C-325.076 -16.2397 -328.028 -12.5869 -329.113 -8.23272L-358.315 108.939C-359.458 113.526 -358.404 118.384 -355.462 122.084L-282.569 213.754C-279.627 217.454 -275.131 219.576 -270.405 219.495L-149.666 217.44C-145.18 217.364 -140.956 215.31 -138.125 211.829L-60.6828 116.593C-57.7859 113.03 -56.6535 108.349 -57.6015 103.857L-82.0155 -11.8412Z" stroke="url(#paint65_linear_418_1335)" stroke-width="2.64516"/>
<defs>
<linearGradient id="paint0_linear_418_1335" x1="238.536" y1="1039.04" x2="701.018" y2="414.252" gradientUnits="userSpaceOnUse">
<stop stop-color="#323232"/>
<stop offset="1" stop-color="#959595" stop-opacity="0.16"/>
</linearGradient>
<linearGradient id="paint1_linear_418_1335" x1="214.896" y1="1014.28" x2="705.079" y2="419.843" gradientUnits="userSpaceOnUse">
<stop stop-color="#323232"/>
<stop offset="1" stop-color="#959595" stop-opacity="0.16"/>
</linearGradient>
<linearGradient id="paint2_linear_418_1335" x1="192.171" y1="988.952" x2="708.157" y2="426.042" gradientUnits="userSpaceOnUse">
<stop stop-color="#323232"/>
<stop offset="1" stop-color="#959595" stop-opacity="0.16"/>
</linearGradient>
<linearGradient id="paint3_linear_418_1335" x1="170.383" y1="963.114" x2="710.227" y2="432.788" gradientUnits="userSpaceOnUse">
<stop stop-color="#323232"/>
<stop offset="1" stop-color="#959595" stop-opacity="0.16"/>
</linearGradient>
<linearGradient id="paint4_linear_418_1335" x1="149.551" y1="936.823" x2="711.271" y2="440.022" gradientUnits="userSpaceOnUse">
<stop stop-color="#323232"/>
<stop offset="1" stop-color="#959595" stop-opacity="0.16"/>
</linearGradient>
<linearGradient id="paint5_linear_418_1335" x1="129.689" y1="910.134" x2="711.27" y2="447.683" gradientUnits="userSpaceOnUse">
<stop stop-color="#323232"/>
<stop offset="1" stop-color="#959595" stop-opacity="0.16"/>
</linearGradient>
<linearGradient id="paint6_linear_418_1335" x1="110.811" y1="883.106" x2="710.212" y2="455.709" gradientUnits="userSpaceOnUse">
<stop stop-color="#323232"/>
<stop offset="1" stop-color="#959595" stop-opacity="0.16"/>
</linearGradient>
<linearGradient id="paint7_linear_418_1335" x1="92.9265" y1="855.795" x2="708.087" y2="464.039" gradientUnits="userSpaceOnUse">
<stop stop-color="#323232"/>
<stop offset="1" stop-color="#959595" stop-opacity="0.16"/>
</linearGradient>
<linearGradient id="paint8_linear_418_1335" x1="76.0399" y1="828.258" x2="704.888" y2="472.612" gradientUnits="userSpaceOnUse">
<stop stop-color="#323232"/>
<stop offset="1" stop-color="#959595" stop-opacity="0.16"/>
</linearGradient>
<linearGradient id="paint9_linear_418_1335" x1="60.1545" y1="800.553" x2="700.613" y2="481.366" gradientUnits="userSpaceOnUse">
<stop stop-color="#323232"/>
<stop offset="1" stop-color="#959595" stop-opacity="0.16"/>
</linearGradient>
<linearGradient id="paint10_linear_418_1335" x1="45.2692" y1="772.736" x2="695.263" y2="490.24" gradientUnits="userSpaceOnUse">
<stop stop-color="#323232"/>
<stop offset="1" stop-color="#959595" stop-opacity="0.16"/>
</linearGradient>
<linearGradient id="paint11_linear_418_1335" x1="31.3808" y1="744.863" x2="688.842" y2="499.174" gradientUnits="userSpaceOnUse">
<stop stop-color="#323232"/>
<stop offset="1" stop-color="#959595" stop-opacity="0.16"/>
</linearGradient>
<linearGradient id="paint12_linear_418_1335" x1="18.4816" y1="716.99" x2="681.356" y2="508.108" gradientUnits="userSpaceOnUse">
<stop stop-color="#323232"/>
<stop offset="1" stop-color="#959595" stop-opacity="0.16"/>
</linearGradient>
<linearGradient id="paint13_linear_418_1335" x1="6.56231" y1="689.171" x2="672.818" y2="516.984" gradientUnits="userSpaceOnUse">
<stop stop-color="#323232"/>
<stop offset="1" stop-color="#959595" stop-opacity="0.16"/>
</linearGradient>
<linearGradient id="paint14_linear_418_1335" x1="-4.3904" y1="661.459" x2="663.24" y2="525.745" gradientUnits="userSpaceOnUse">
<stop stop-color="#323232"/>
<stop offset="1" stop-color="#959595" stop-opacity="0.16"/>
</linearGradient>
<linearGradient id="paint15_linear_418_1335" x1="-14.3921" y1="633.908" x2="652.641" y2="534.333" gradientUnits="userSpaceOnUse">
<stop stop-color="#323232"/>
<stop offset="1" stop-color="#959595" stop-opacity="0.16"/>
</linearGradient>
<linearGradient id="paint16_linear_418_1335" x1="-23.4617" y1="606.567" x2="641.039" y2="542.695" gradientUnits="userSpaceOnUse">
<stop stop-color="#323232"/>
<stop offset="1" stop-color="#959595" stop-opacity="0.16"/>
</linearGradient>
<linearGradient id="paint17_linear_418_1335" x1="-31.6205" y1="579.487" x2="628.458" y2="550.777" gradientUnits="userSpaceOnUse">
<stop stop-color="#323232"/>
<stop offset="1" stop-color="#959595" stop-opacity="0.16"/>
</linearGradient>
<linearGradient id="paint18_linear_418_1335" x1="-38.8923" y1="552.714" x2="614.923" y2="558.529" gradientUnits="userSpaceOnUse">
<stop stop-color="#323232"/>
<stop offset="1" stop-color="#959595" stop-opacity="0.16"/>
</linearGradient>
<linearGradient id="paint19_linear_418_1335" x1="-45.3036" y1="526.295" x2="600.464" y2="565.9" gradientUnits="userSpaceOnUse">
<stop stop-color="#323232"/>
<stop offset="1" stop-color="#959595" stop-opacity="0.16"/>
</linearGradient>
<linearGradient id="paint20_linear_418_1335" x1="-50.883" y1="500.274" x2="585.11" y2="572.844" gradientUnits="userSpaceOnUse">
<stop stop-color="#323232"/>
<stop offset="1" stop-color="#959595" stop-opacity="0.16"/>
</linearGradient>
<linearGradient id="paint21_linear_418_1335" x1="-55.6615" y1="474.692" x2="568.895" y2="579.314" gradientUnits="userSpaceOnUse">
<stop stop-color="#323232"/>
<stop offset="1" stop-color="#959595" stop-opacity="0.16"/>
</linearGradient>
<linearGradient id="paint22_linear_418_1335" x1="-59.6722" y1="449.59" x2="551.855" y2="585.27" gradientUnits="userSpaceOnUse">
<stop stop-color="#323232"/>
<stop offset="1" stop-color="#959595" stop-opacity="0.16"/>
</linearGradient>
<linearGradient id="paint23_linear_418_1335" x1="-62.9501" y1="425.005" x2="534.027" y2="590.669" gradientUnits="userSpaceOnUse">
<stop stop-color="#323232"/>
<stop offset="1" stop-color="#959595" stop-opacity="0.16"/>
</linearGradient>
<linearGradient id="paint24_linear_418_1335" x1="-65.532" y1="400.973" x2="515.451" y2="595.475" gradientUnits="userSpaceOnUse">
<stop stop-color="#323232"/>
<stop offset="1" stop-color="#959595" stop-opacity="0.16"/>
</linearGradient>
<linearGradient id="paint25_linear_418_1335" x1="-67.4563" y1="377.525" x2="496.168" y2="599.651" gradientUnits="userSpaceOnUse">
<stop stop-color="#323232"/>
<stop offset="1" stop-color="#959595" stop-opacity="0.16"/>
</linearGradient>
<linearGradient id="paint26_linear_418_1335" x1="-68.763" y1="354.693" x2="476.221" y2="603.167" gradientUnits="userSpaceOnUse">
<stop stop-color="#323232"/>
<stop offset="1" stop-color="#959595" stop-opacity="0.16"/>
</linearGradient>
<linearGradient id="paint27_linear_418_1335" x1="-69.4933" y1="332.504" x2="455.654" y2="605.99" gradientUnits="userSpaceOnUse">
<stop stop-color="#323232"/>
<stop offset="1" stop-color="#959595" stop-opacity="0.16"/>
</linearGradient>
<linearGradient id="paint28_linear_418_1335" x1="-69.6899" y1="310.984" x2="434.514" y2="608.096" gradientUnits="userSpaceOnUse">
<stop stop-color="#323232"/>
<stop offset="1" stop-color="#959595" stop-opacity="0.16"/>
</linearGradient>
<linearGradient id="paint29_linear_418_1335" x1="-69.3962" y1="290.154" x2="412.846" y2="609.459" gradientUnits="userSpaceOnUse">
<stop stop-color="#323232"/>
<stop offset="1" stop-color="#959595" stop-opacity="0.16"/>
</linearGradient>
<linearGradient id="paint30_linear_418_1335" x1="-68.6564" y1="270.033" x2="390.7" y2="610.058" gradientUnits="userSpaceOnUse">
<stop stop-color="#323232"/>
<stop offset="1" stop-color="#959595" stop-opacity="0.16"/>
</linearGradient>
<linearGradient id="paint31_linear_418_1335" x1="-67.5159" y1="250.641" x2="368.122" y2="609.875" gradientUnits="userSpaceOnUse">
<stop stop-color="#323232"/>
<stop offset="1" stop-color="#959595" stop-opacity="0.16"/>
</linearGradient>
<linearGradient id="paint32_linear_418_1335" x1="-66.02" y1="231.99" x2="345.162" y2="608.896" gradientUnits="userSpaceOnUse">
<stop stop-color="#323232"/>
<stop offset="1" stop-color="#959595" stop-opacity="0.16"/>
</linearGradient>
<linearGradient id="paint33_linear_418_1335" x1="-64.2149" y1="214.092" x2="321.87" y2="607.107" gradientUnits="userSpaceOnUse">
<stop stop-color="#323232"/>
<stop offset="1" stop-color="#959595" stop-opacity="0.16"/>
</linearGradient>
<linearGradient id="paint34_linear_418_1335" x1="-62.1467" y1="196.956" x2="298.295" y2="604.499" gradientUnits="userSpaceOnUse">
<stop stop-color="#323232"/>
<stop offset="1" stop-color="#959595" stop-opacity="0.16"/>
</linearGradient>
<linearGradient id="paint35_linear_418_1335" x1="-59.8617" y1="180.588" x2="274.487" y2="601.066" gradientUnits="userSpaceOnUse">
<stop stop-color="#323232"/>
<stop offset="1" stop-color="#959595" stop-opacity="0.16"/>
</linearGradient>
<linearGradient id="paint36_linear_418_1335" x1="-57.4058" y1="164.99" x2="250.495" y2="596.804" gradientUnits="userSpaceOnUse">
<stop stop-color="#323232"/>
<stop offset="1" stop-color="#959595" stop-opacity="0.16"/>
</linearGradient>
<linearGradient id="paint37_linear_418_1335" x1="-54.8251" y1="150.163" x2="226.369" y2="591.713" gradientUnits="userSpaceOnUse">
<stop stop-color="#323232"/>
<stop offset="1" stop-color="#959595" stop-opacity="0.16"/>
</linearGradient>
<linearGradient id="paint38_linear_418_1335" x1="-52.1648" y1="136.106" x2="202.158" y2="585.795" gradientUnits="userSpaceOnUse">
<stop stop-color="#323232"/>
<stop offset="1" stop-color="#959595" stop-opacity="0.16"/>
</linearGradient>
<linearGradient id="paint39_linear_418_1335" x1="-49.4698" y1="122.814" x2="177.909" y2="579.056" gradientUnits="userSpaceOnUse">
<stop stop-color="#323232"/>
<stop offset="1" stop-color="#959595" stop-opacity="0.16"/>
</linearGradient>
<linearGradient id="paint40_linear_418_1335" x1="-46.7843" y1="110.278" x2="153.67" y2="571.502" gradientUnits="userSpaceOnUse">
<stop stop-color="#323232"/>
<stop offset="1" stop-color="#959595" stop-opacity="0.16"/>
</linearGradient>
<linearGradient id="paint41_linear_418_1335" x1="-44.1514" y1="98.4891" x2="129.488" y2="563.146" gradientUnits="userSpaceOnUse">
<stop stop-color="#323232"/>
<stop offset="1" stop-color="#959595" stop-opacity="0.16"/>
</linearGradient>
<linearGradient id="paint42_linear_418_1335" x1="-41.6133" y1="87.4353" x2="105.408" y2="553.999" gradientUnits="userSpaceOnUse">
<stop stop-color="#323232"/>
<stop offset="1" stop-color="#959595" stop-opacity="0.16"/>
</linearGradient>
<linearGradient id="paint43_linear_418_1335" x1="-39.2111" y1="77.1018" x2="81.474" y2="544.079" gradientUnits="userSpaceOnUse">
<stop stop-color="#323232"/>
<stop offset="1" stop-color="#959595" stop-opacity="0.16"/>
</linearGradient>
<linearGradient id="paint44_linear_418_1335" x1="-36.9845" y1="67.4718" x2="57.7288" y2="533.401" gradientUnits="userSpaceOnUse">
<stop stop-color="#323232"/>
<stop offset="1" stop-color="#959595" stop-opacity="0.16"/>
</linearGradient>
<linearGradient id="paint45_linear_418_1335" x1="-34.9719" y1="58.5263" x2="34.2137" y2="521.988" gradientUnits="userSpaceOnUse">
<stop stop-color="#323232"/>
<stop offset="1" stop-color="#959595" stop-opacity="0.16"/>
</linearGradient>
<linearGradient id="paint46_linear_418_1335" x1="-33.2104" y1="50.2442" x2="10.9683" y2="509.863" gradientUnits="userSpaceOnUse">
<stop stop-color="#323232"/>
<stop offset="1" stop-color="#959595" stop-opacity="0.16"/>
</linearGradient>
<linearGradient id="paint47_linear_418_1335" x1="-31.7349" y1="42.602" x2="-11.9695" y2="497.048" gradientUnits="userSpaceOnUse">
<stop stop-color="#323232"/>
<stop offset="1" stop-color="#959595" stop-opacity="0.16"/>
</linearGradient>
<linearGradient id="paint48_linear_418_1335" x1="-30.5791" y1="35.5757" x2="-34.5636" y2="483.573" gradientUnits="userSpaceOnUse">
<stop stop-color="#323232"/>
<stop offset="1" stop-color="#959595" stop-opacity="0.16"/>
</linearGradient>
<linearGradient id="paint49_linear_418_1335" x1="-29.7746" y1="29.1375" x2="-56.7801" y2="469.464" gradientUnits="userSpaceOnUse">
<stop stop-color="#323232"/>
<stop offset="1" stop-color="#959595" stop-opacity="0.16"/>
</linearGradient>
<linearGradient id="paint50_linear_418_1335" x1="-29.3514" y1="23.2601" x2="-78.5869" y2="454.754" gradientUnits="userSpaceOnUse">
<stop stop-color="#323232"/>
<stop offset="1" stop-color="#959595" stop-opacity="0.16"/>
</linearGradient>
<linearGradient id="paint51_linear_418_1335" x1="-29.3369" y1="17.9133" x2="-99.954" y2="439.472" gradientUnits="userSpaceOnUse">
<stop stop-color="#323232"/>
<stop offset="1" stop-color="#959595" stop-opacity="0.16"/>
</linearGradient>
<linearGradient id="paint52_linear_418_1335" x1="-29.7571" y1="13.0662" x2="-120.854" y2="423.653" gradientUnits="userSpaceOnUse">
<stop stop-color="#323232"/>
<stop offset="1" stop-color="#959595" stop-opacity="0.16"/>
</linearGradient>
<linearGradient id="paint53_linear_418_1335" x1="-30.6355" y1="8.68625" x2="-141.262" y2="407.332" gradientUnits="userSpaceOnUse">
<stop stop-color="#323232"/>
<stop offset="1" stop-color="#959595" stop-opacity="0.16"/>
</linearGradient>
<linearGradient id="paint54_linear_418_1335" x1="-31.9934" y1="4.74075" x2="-161.153" y2="390.545" gradientUnits="userSpaceOnUse">
<stop stop-color="#323232"/>
<stop offset="1" stop-color="#959595" stop-opacity="0.16"/>
</linearGradient>
<linearGradient id="paint55_linear_418_1335" x1="-33.8503" y1="1.19478" x2="-180.509" y2="373.327" gradientUnits="userSpaceOnUse">
<stop stop-color="#323232"/>
<stop offset="1" stop-color="#959595" stop-opacity="0.16"/>
</linearGradient>
<linearGradient id="paint56_linear_418_1335" x1="-36.2227" y1="-1.98646" x2="-199.31" y2="355.718" gradientUnits="userSpaceOnUse">
<stop stop-color="#323232"/>
<stop offset="1" stop-color="#959595" stop-opacity="0.16"/>
</linearGradient>
<linearGradient id="paint57_linear_418_1335" x1="-39.1256" y1="-4.83897" x2="-217.541" y2="337.754" gradientUnits="userSpaceOnUse">
<stop stop-color="#323232"/>
<stop offset="1" stop-color="#959595" stop-opacity="0.16"/>
</linearGradient>
<linearGradient id="paint58_linear_418_1335" x1="-42.5711" y1="-7.39851" x2="-235.189" y2="319.477" gradientUnits="userSpaceOnUse">
<stop stop-color="#323232"/>
<stop offset="1" stop-color="#959595" stop-opacity="0.16"/>
</linearGradient>
<linearGradient id="paint59_linear_418_1335" x1="-46.5693" y1="-9.70202" x2="-252.243" y2="300.924" gradientUnits="userSpaceOnUse">
<stop stop-color="#323232"/>
<stop offset="1" stop-color="#959595" stop-opacity="0.16"/>
</linearGradient>
<linearGradient id="paint60_linear_418_1335" x1="-51.1276" y1="-11.7866" x2="-268.694" y2="282.135" gradientUnits="userSpaceOnUse">
<stop stop-color="#323232"/>
<stop offset="1" stop-color="#959595" stop-opacity="0.16"/>
</linearGradient>
<linearGradient id="paint61_linear_418_1335" x1="-56.2515" y1="-13.6885" x2="-284.538" y2="263.151" gradientUnits="userSpaceOnUse">
<stop stop-color="#323232"/>
<stop offset="1" stop-color="#959595" stop-opacity="0.16"/>
</linearGradient>
<linearGradient id="paint62_linear_418_1335" x1="-61.9439" y1="-15.4448" x2="-299.77" y2="244.01" gradientUnits="userSpaceOnUse">
<stop stop-color="#323232"/>
<stop offset="1" stop-color="#959595" stop-opacity="0.16"/>
</linearGradient>
<linearGradient id="paint63_linear_418_1335" x1="-68.2056" y1="-17.0927" x2="-314.39" y2="224.751" gradientUnits="userSpaceOnUse">
<stop stop-color="#323232"/>
<stop offset="1" stop-color="#959595" stop-opacity="0.16"/>
</linearGradient>
<linearGradient id="paint64_linear_418_1335" x1="-75.0354" y1="-18.6675" x2="-328.4" y2="205.415" gradientUnits="userSpaceOnUse">
<stop stop-color="#323232"/>
<stop offset="1" stop-color="#959595" stop-opacity="0.16"/>
</linearGradient>
<linearGradient id="paint65_linear_418_1335" x1="-82.4288" y1="-20.2058" x2="-341.804" y2="186.04" gradientUnits="userSpaceOnUse">
<stop stop-color="#323232"/>
<stop offset="1" stop-color="#959595" stop-opacity="0.16"/>
</linearGradient>
</defs>
</svg>
