<svg width="1760" height="1889" viewBox="0 0 1760 1889" fill="none" xmlns="http://www.w3.org/2000/svg">
<g opacity="0.2">
<path d="M1737.83 1263.42C1711.65 1241.43 1637.53 1211.65 1550.47 1268.47C1441.64 1339.49 1422.74 1465.33 1330.54 1549.65C1262.5 1611.9 1067.34 1726.87 928.922 1681.84" stroke="url(#paint0_linear_418_1048)" stroke-width="7.78561"/>
<path d="M1692.09 1239.56C1665.91 1217.57 1591.78 1187.79 1504.72 1244.61C1395.9 1315.63 1376.99 1441.46 1284.8 1525.79C1216.76 1588.03 1021.6 1703.01 883.179 1657.97" stroke="url(#paint1_linear_418_1048)" stroke-width="7.78561"/>
<path d="M1646.96 1214.54C1620.78 1192.54 1546.66 1162.77 1459.6 1219.59C1350.78 1290.61 1331.87 1416.44 1239.68 1500.77C1171.63 1563.01 976.473 1677.99 838.056 1632.95" stroke="url(#paint2_linear_418_1048)" stroke-width="7.78561"/>
<path d="M1602.48 1188.4C1576.3 1166.41 1502.18 1136.63 1415.12 1193.45C1306.29 1264.48 1287.39 1390.31 1195.19 1474.64C1127.15 1536.88 931.989 1651.85 793.572 1606.82" stroke="url(#paint3_linear_418_1048)" stroke-width="7.78561"/>
<path d="M1558.68 1161.13C1532.5 1139.14 1458.38 1109.36 1371.32 1166.18C1262.49 1237.21 1243.59 1363.04 1151.4 1447.37C1083.35 1509.61 888.191 1624.58 749.774 1579.55" stroke="url(#paint4_linear_418_1048)" stroke-width="7.78561"/>
<path d="M1515.64 1132.69C1489.46 1110.69 1415.34 1080.92 1328.28 1137.74C1219.45 1208.76 1200.55 1334.59 1108.36 1418.92C1040.31 1481.16 845.151 1596.14 706.735 1551.1" stroke="url(#paint5_linear_418_1048)" stroke-width="7.78561"/>
<path d="M1473.46 1102.99C1447.28 1081 1373.15 1051.22 1286.09 1108.04C1177.27 1179.06 1158.36 1304.89 1066.17 1389.22C998.126 1451.47 802.966 1566.44 664.55 1521.4" stroke="url(#paint6_linear_418_1048)" stroke-width="7.78561"/>
<path d="M1432.25 1071.94C1406.08 1049.95 1331.95 1020.17 1244.89 1076.99C1136.07 1148.02 1117.16 1273.85 1024.97 1358.18C956.924 1420.42 761.764 1535.4 623.347 1490.36" stroke="url(#paint7_linear_418_1048)" stroke-width="7.78561"/>
<path d="M1392.2 1039.44C1366.02 1017.45 1291.89 987.667 1204.83 1044.49C1096.01 1115.51 1077.1 1241.34 984.911 1325.67C916.866 1387.92 721.706 1502.89 583.29 1457.85" stroke="url(#paint8_linear_418_1048)" stroke-width="7.78561"/>
<path d="M1353.5 1005.33C1327.32 983.338 1253.19 953.559 1166.13 1010.38C1057.31 1081.4 1038.4 1207.24 946.211 1291.57C878.166 1353.81 683.006 1468.78 544.589 1423.75" stroke="url(#paint9_linear_418_1048)" stroke-width="7.78561"/>
<path d="M1316.43 969.457C1290.25 947.465 1216.13 917.686 1129.07 974.506C1020.24 1045.53 1001.34 1171.36 909.143 1255.69C841.098 1317.93 645.938 1432.91 507.521 1387.87" stroke="url(#paint10_linear_418_1048)" stroke-width="7.78561"/>
<path d="M1281.36 931.632C1255.18 909.639 1181.05 879.86 1093.99 936.68C985.17 1007.71 966.264 1133.54 874.071 1217.87C806.026 1280.11 610.866 1395.08 472.45 1350.05" stroke="url(#paint11_linear_418_1048)" stroke-width="7.78561"/>
<path d="M1248.76 891.652C1222.58 869.66 1148.46 839.88 1061.4 896.701C952.577 967.726 933.672 1093.56 841.479 1177.89C773.433 1240.13 578.273 1355.1 439.857 1310.07" stroke="url(#paint12_linear_418_1048)" stroke-width="7.78561"/>
<path d="M1219.29 849.323C1193.11 827.33 1118.99 797.551 1031.93 854.371C923.102 925.397 904.196 1051.23 812.004 1135.56C743.958 1197.8 548.798 1312.77 410.382 1267.74" stroke="url(#paint13_linear_418_1048)" stroke-width="7.78561"/>
<path d="M1193.77 804.495C1167.59 782.502 1093.47 752.723 1006.41 809.543C897.586 880.569 878.681 1006.4 786.488 1090.73C718.443 1152.97 523.283 1267.95 384.866 1222.91" stroke="url(#paint14_linear_418_1048)" stroke-width="7.78561"/>
<path d="M1173.28 757.157C1147.11 735.164 1072.98 705.385 985.923 762.205C877.099 833.231 858.193 959.063 766 1043.39C697.955 1105.63 502.795 1220.61 364.378 1175.57" stroke="url(#paint15_linear_418_1048)" stroke-width="7.78561"/>
<path d="M1159.08 707.567C1132.9 685.575 1058.77 655.795 971.714 712.616C862.889 783.641 843.984 909.473 751.791 993.803C683.746 1056.04 488.585 1171.02 350.169 1125.98" stroke="url(#paint16_linear_418_1048)" stroke-width="7.78561"/>
<path d="M1151.08 647.2C1124.9 625.208 1050.77 595.428 963.714 652.248C854.889 723.274 835.983 849.106 743.791 933.435C675.745 995.677 480.585 1110.65 342.169 1065.62" stroke="url(#paint17_linear_418_1048)" stroke-width="7.78561"/>
<path d="M1142.93 596.258C1116.75 574.266 1042.63 544.486 955.57 601.307C846.745 672.332 827.839 798.164 735.646 882.493C667.601 944.735 472.441 1059.71 334.025 1014.67" stroke="url(#paint18_linear_418_1048)" stroke-width="7.78561"/>
<path d="M1130.6 546.167C1104.42 524.175 1030.3 494.395 943.242 551.216C834.417 622.241 815.512 748.073 723.319 832.403C655.273 894.644 460.113 1009.62 321.697 964.583" stroke="url(#paint19_linear_418_1048)" stroke-width="7.78561"/>
<path d="M1114.19 497.266C1088.01 475.274 1013.88 445.494 926.824 502.315C817.999 573.34 799.094 699.172 706.901 783.502C638.856 845.743 443.696 960.717 305.279 915.682" stroke="url(#paint20_linear_418_1048)" stroke-width="7.78561"/>
<path d="M1093.86 449.857C1067.68 427.864 993.561 398.085 906.501 454.905C797.676 525.931 778.771 651.763 686.578 736.092C618.532 798.333 423.372 913.307 284.956 868.272" stroke="url(#paint21_linear_418_1048)" stroke-width="7.78561"/>
<path d="M1069.89 404.187C1043.71 382.194 969.586 352.415 882.527 409.235C773.702 480.261 754.796 606.093 662.603 690.422C594.558 752.664 399.398 867.637 260.982 822.602" stroke="url(#paint22_linear_418_1048)" stroke-width="7.78561"/>
<path d="M1042.56 360.44C1016.38 338.448 942.258 308.668 855.198 365.489C746.374 436.514 727.468 562.346 635.275 646.676C567.23 708.917 372.07 823.891 233.653 778.856" stroke="url(#paint23_linear_418_1048)" stroke-width="7.78561"/>
<path d="M1012.19 318.745C986.015 296.753 911.892 266.973 824.832 323.794C716.007 394.819 697.102 520.651 604.909 604.981C536.864 667.222 341.704 782.196 203.287 737.161" stroke="url(#paint24_linear_418_1048)" stroke-width="7.78561"/>
<path d="M979.1 279.179C952.921 257.187 878.798 227.407 791.739 284.228C682.914 355.253 664.008 481.085 571.815 565.415C503.77 627.656 308.61 742.63 170.194 697.595" stroke="url(#paint25_linear_418_1048)" stroke-width="7.78561"/>
<path d="M943.57 241.783C917.391 219.791 843.268 190.011 756.208 246.832C647.384 317.857 628.478 443.689 536.285 528.019C468.24 590.26 273.08 705.234 134.663 660.199" stroke="url(#paint26_linear_418_1048)" stroke-width="7.78561"/>
<path d="M905.861 206.583C879.682 184.591 805.559 154.811 718.499 211.632C609.674 282.657 590.769 408.489 498.576 492.818C430.531 555.06 235.371 670.034 96.9541 624.999" stroke="url(#paint27_linear_418_1048)" stroke-width="7.78561"/>
<path d="M866.2 173.613C840.021 151.621 765.898 121.841 678.838 178.662C570.013 249.687 551.108 375.519 458.915 459.849C390.87 522.09 195.71 637.064 57.2931 592.029" stroke="url(#paint28_linear_418_1048)" stroke-width="7.78561"/>
</g>
<defs>
<linearGradient id="paint0_linear_418_1048" x1="1724.88" y1="1242" x2="947.205" y2="1712.08" gradientUnits="userSpaceOnUse">
<stop stop-color="#0096D7" stop-opacity="0"/>
<stop offset="0.59375" stop-color="#39C3FE"/>
<stop offset="1" stop-color="#7007F4" stop-opacity="0"/>
</linearGradient>
<linearGradient id="paint1_linear_418_1048" x1="1679.14" y1="1218.14" x2="901.462" y2="1688.22" gradientUnits="userSpaceOnUse">
<stop stop-color="#0096D7" stop-opacity="0"/>
<stop offset="0.59375" stop-color="#39C3FE"/>
<stop offset="1" stop-color="#7007F4" stop-opacity="0"/>
</linearGradient>
<linearGradient id="paint2_linear_418_1048" x1="1634.01" y1="1193.11" x2="856.34" y2="1663.2" gradientUnits="userSpaceOnUse">
<stop stop-color="#0096D7" stop-opacity="0"/>
<stop offset="0.59375" stop-color="#39C3FE"/>
<stop offset="1" stop-color="#7007F4" stop-opacity="0"/>
</linearGradient>
<linearGradient id="paint3_linear_418_1048" x1="1589.53" y1="1166.98" x2="811.856" y2="1637.06" gradientUnits="userSpaceOnUse">
<stop stop-color="#0096D7" stop-opacity="0"/>
<stop offset="0.59375" stop-color="#39C3FE"/>
<stop offset="1" stop-color="#7007F4" stop-opacity="0"/>
</linearGradient>
<linearGradient id="paint4_linear_418_1048" x1="1545.73" y1="1139.71" x2="768.058" y2="1609.8" gradientUnits="userSpaceOnUse">
<stop stop-color="#0096D7" stop-opacity="0"/>
<stop offset="0.59375" stop-color="#39C3FE"/>
<stop offset="1" stop-color="#7007F4" stop-opacity="0"/>
</linearGradient>
<linearGradient id="paint5_linear_418_1048" x1="1502.69" y1="1111.26" x2="725.018" y2="1581.35" gradientUnits="userSpaceOnUse">
<stop stop-color="#0096D7" stop-opacity="0"/>
<stop offset="0.59375" stop-color="#39C3FE"/>
<stop offset="1" stop-color="#7007F4" stop-opacity="0"/>
</linearGradient>
<linearGradient id="paint6_linear_418_1048" x1="1460.51" y1="1081.57" x2="682.833" y2="1551.65" gradientUnits="userSpaceOnUse">
<stop stop-color="#0096D7" stop-opacity="0"/>
<stop offset="0.59375" stop-color="#39C3FE"/>
<stop offset="1" stop-color="#7007F4" stop-opacity="0"/>
</linearGradient>
<linearGradient id="paint7_linear_418_1048" x1="1419.3" y1="1050.52" x2="641.631" y2="1520.61" gradientUnits="userSpaceOnUse">
<stop stop-color="#0096D7" stop-opacity="0"/>
<stop offset="0.59375" stop-color="#39C3FE"/>
<stop offset="1" stop-color="#7007F4" stop-opacity="0"/>
</linearGradient>
<linearGradient id="paint8_linear_418_1048" x1="1379.25" y1="1018.02" x2="601.573" y2="1488.1" gradientUnits="userSpaceOnUse">
<stop stop-color="#0096D7" stop-opacity="0"/>
<stop offset="0.59375" stop-color="#39C3FE"/>
<stop offset="1" stop-color="#7007F4" stop-opacity="0"/>
</linearGradient>
<linearGradient id="paint9_linear_418_1048" x1="1340.55" y1="983.908" x2="562.873" y2="1453.99" gradientUnits="userSpaceOnUse">
<stop stop-color="#0096D7" stop-opacity="0"/>
<stop offset="0.59375" stop-color="#39C3FE"/>
<stop offset="1" stop-color="#7007F4" stop-opacity="0"/>
</linearGradient>
<linearGradient id="paint10_linear_418_1048" x1="1303.48" y1="948.034" x2="525.805" y2="1418.12" gradientUnits="userSpaceOnUse">
<stop stop-color="#0096D7" stop-opacity="0"/>
<stop offset="0.59375" stop-color="#39C3FE"/>
<stop offset="1" stop-color="#7007F4" stop-opacity="0"/>
</linearGradient>
<linearGradient id="paint11_linear_418_1048" x1="1268.41" y1="910.209" x2="490.733" y2="1380.29" gradientUnits="userSpaceOnUse">
<stop stop-color="#0096D7" stop-opacity="0"/>
<stop offset="0.59375" stop-color="#39C3FE"/>
<stop offset="1" stop-color="#7007F4" stop-opacity="0"/>
</linearGradient>
<linearGradient id="paint12_linear_418_1048" x1="1235.81" y1="870.229" x2="458.14" y2="1340.31" gradientUnits="userSpaceOnUse">
<stop stop-color="#0096D7" stop-opacity="0"/>
<stop offset="0.59375" stop-color="#39C3FE"/>
<stop offset="1" stop-color="#7007F4" stop-opacity="0"/>
</linearGradient>
<linearGradient id="paint13_linear_418_1048" x1="1206.34" y1="827.9" x2="428.665" y2="1297.98" gradientUnits="userSpaceOnUse">
<stop stop-color="#0096D7" stop-opacity="0"/>
<stop offset="0.59375" stop-color="#39C3FE"/>
<stop offset="1" stop-color="#7007F4" stop-opacity="0"/>
</linearGradient>
<linearGradient id="paint14_linear_418_1048" x1="1180.82" y1="783.072" x2="403.149" y2="1253.16" gradientUnits="userSpaceOnUse">
<stop stop-color="#0096D7" stop-opacity="0"/>
<stop offset="0.59375" stop-color="#39C3FE"/>
<stop offset="1" stop-color="#7007F4" stop-opacity="0"/>
</linearGradient>
<linearGradient id="paint15_linear_418_1048" x1="1160.34" y1="735.734" x2="382.662" y2="1205.82" gradientUnits="userSpaceOnUse">
<stop stop-color="#0096D7" stop-opacity="0"/>
<stop offset="0.59375" stop-color="#39C3FE"/>
<stop offset="1" stop-color="#7007F4" stop-opacity="0"/>
</linearGradient>
<linearGradient id="paint16_linear_418_1048" x1="1146.13" y1="686.144" x2="368.452" y2="1156.23" gradientUnits="userSpaceOnUse">
<stop stop-color="#0096D7" stop-opacity="0"/>
<stop offset="0.59375" stop-color="#39C3FE"/>
<stop offset="1" stop-color="#7007F4" stop-opacity="0"/>
</linearGradient>
<linearGradient id="paint17_linear_418_1048" x1="1138.13" y1="625.777" x2="360.452" y2="1095.86" gradientUnits="userSpaceOnUse">
<stop stop-color="#0096D7" stop-opacity="0"/>
<stop offset="0.59375" stop-color="#39C3FE"/>
<stop offset="1" stop-color="#7007F4" stop-opacity="0"/>
</linearGradient>
<linearGradient id="paint18_linear_418_1048" x1="1129.98" y1="574.835" x2="352.308" y2="1044.92" gradientUnits="userSpaceOnUse">
<stop stop-color="#0096D7" stop-opacity="0"/>
<stop offset="0.59375" stop-color="#39C3FE"/>
<stop offset="1" stop-color="#7007F4" stop-opacity="0"/>
</linearGradient>
<linearGradient id="paint19_linear_418_1048" x1="1117.65" y1="524.744" x2="339.98" y2="994.829" gradientUnits="userSpaceOnUse">
<stop stop-color="#0096D7" stop-opacity="0"/>
<stop offset="0.59375" stop-color="#39C3FE"/>
<stop offset="1" stop-color="#7007F4" stop-opacity="0"/>
</linearGradient>
<linearGradient id="paint20_linear_418_1048" x1="1101.24" y1="475.843" x2="323.563" y2="945.929" gradientUnits="userSpaceOnUse">
<stop stop-color="#0096D7" stop-opacity="0"/>
<stop offset="0.59375" stop-color="#39C3FE"/>
<stop offset="1" stop-color="#7007F4" stop-opacity="0"/>
</linearGradient>
<linearGradient id="paint21_linear_418_1048" x1="1080.91" y1="428.434" x2="303.239" y2="898.519" gradientUnits="userSpaceOnUse">
<stop stop-color="#0096D7" stop-opacity="0"/>
<stop offset="0.59375" stop-color="#39C3FE"/>
<stop offset="1" stop-color="#7007F4" stop-opacity="0"/>
</linearGradient>
<linearGradient id="paint22_linear_418_1048" x1="1056.94" y1="382.764" x2="279.265" y2="852.849" gradientUnits="userSpaceOnUse">
<stop stop-color="#0096D7" stop-opacity="0"/>
<stop offset="0.59375" stop-color="#39C3FE"/>
<stop offset="1" stop-color="#7007F4" stop-opacity="0"/>
</linearGradient>
<linearGradient id="paint23_linear_418_1048" x1="1029.61" y1="339.017" x2="251.937" y2="809.102" gradientUnits="userSpaceOnUse">
<stop stop-color="#0096D7" stop-opacity="0"/>
<stop offset="0.59375" stop-color="#39C3FE"/>
<stop offset="1" stop-color="#7007F4" stop-opacity="0"/>
</linearGradient>
<linearGradient id="paint24_linear_418_1048" x1="999.244" y1="297.322" x2="221.571" y2="767.407" gradientUnits="userSpaceOnUse">
<stop stop-color="#0096D7" stop-opacity="0"/>
<stop offset="0.59375" stop-color="#39C3FE"/>
<stop offset="1" stop-color="#7007F4" stop-opacity="0"/>
</linearGradient>
<linearGradient id="paint25_linear_418_1048" x1="966.151" y1="257.756" x2="188.477" y2="727.841" gradientUnits="userSpaceOnUse">
<stop stop-color="#0096D7" stop-opacity="0"/>
<stop offset="0.59375" stop-color="#39C3FE"/>
<stop offset="1" stop-color="#7007F4" stop-opacity="0"/>
</linearGradient>
<linearGradient id="paint26_linear_418_1048" x1="930.62" y1="220.36" x2="152.947" y2="690.445" gradientUnits="userSpaceOnUse">
<stop stop-color="#0096D7" stop-opacity="0"/>
<stop offset="0.59375" stop-color="#39C3FE"/>
<stop offset="1" stop-color="#7007F4" stop-opacity="0"/>
</linearGradient>
<linearGradient id="paint27_linear_418_1048" x1="892.911" y1="185.16" x2="115.237" y2="655.245" gradientUnits="userSpaceOnUse">
<stop stop-color="#0096D7" stop-opacity="0"/>
<stop offset="0.59375" stop-color="#39C3FE"/>
<stop offset="1" stop-color="#7007F4" stop-opacity="0"/>
</linearGradient>
<linearGradient id="paint28_linear_418_1048" x1="853.25" y1="152.19" x2="75.5764" y2="622.275" gradientUnits="userSpaceOnUse">
<stop stop-color="#0096D7" stop-opacity="0"/>
<stop offset="0.59375" stop-color="#39C3FE"/>
<stop offset="1" stop-color="#7007F4" stop-opacity="0"/>
</linearGradient>
</defs>
</svg>
