<svg width="173" height="35" viewBox="0 0 173 35" fill="none" xmlns="http://www.w3.org/2000/svg">
<g filter="url(#filter0_d_418_1195)">
<path d="M13.5781 12.4609L9.99219 8.78125V5.07812H13.5898L13.5781 12.4609ZM16.0625 22V10.1172H12.5469V5.07812H21.5703L25.2734 12.1094L28.9531 5.07812H34.4609V22H28.9531V14.9688L25.4141 22H25.1094L21.5703 14.9688V22H16.0625ZM35.6328 22V10.1172H32.1172V5.07812H50.1406V10.1172H41.1406V12.0625H46.9531V15.0156H41.1406V16.9609H51.5703V22H35.6328ZM65.2578 5.07812V10.1172H59.8906V22H54.3828V10.1172H49.0156V5.07812H65.2578ZM72.2539 8.82812L69.8281 15.5312H74.4922L72.2539 8.82812ZM62.2344 10.1172V5.07812H76.4375L82.0977 22H75.6992L74.6328 18.9531H69.6055L68.5391 22H62.4688L66.3711 10.1172H62.2344ZM82.2472 5.07812L88.2003 22H97.1886L103.224 5.07812H96.4386L92.548 18.0742L88.7042 5.07812H82.2472ZM106.682 22V10.1172H103.167V5.07812H121.19V10.1172H112.19V12.0625H118.003V15.0156H112.19V16.9609H122.62V22H106.682ZM122.62 22V5.07812H133.635C134.995 5.20312 136.112 5.5625 136.987 6.15625C137.862 6.75 138.503 7.54688 138.909 8.54688C139.221 10.0469 139.237 11.2031 138.956 12.0156C138.674 12.8281 138.182 13.5078 137.479 14.0547C136.776 14.6016 135.768 15.0312 134.456 15.3438L135.721 16.9609H140.784V22H134.104L128.737 16.4102V22H122.62ZM128.737 9.29688V12.4141H133.003C133.229 12.4141 133.475 12.332 133.741 12.168C134.006 11.9961 134.147 11.5703 134.163 10.8906C134.124 10.2422 133.963 9.81641 133.682 9.61328C133.409 9.40234 133.178 9.29688 132.991 9.29688H128.737ZM142.073 12.4727V5.07812H145.67V12.4727H142.073ZM163.328 5.07812L157.117 13.5391L163.328 22H156.648L153.156 16.7734L149.711 22H143.031L149.242 13.5391L143.031 5.07812H149.711L153.156 10.3047L156.648 5.07812H163.328Z" fill="white"/>
</g>
<defs>
<filter id="filter0_d_418_1195" x="0.992188" y="0.078125" width="171.336" height="34.9219" filterUnits="userSpaceOnUse" color-interpolation-filters="sRGB">
<feFlood flood-opacity="0" result="BackgroundImageFix"/>
<feColorMatrix in="SourceAlpha" type="matrix" values="0 0 0 0 0 0 0 0 0 0 0 0 0 0 0 0 0 0 127 0" result="hardAlpha"/>
<feOffset dy="4"/>
<feGaussianBlur stdDeviation="4.5"/>
<feComposite in2="hardAlpha" operator="out"/>
<feColorMatrix type="matrix" values="0 0 0 0 0 0 0 0 0 0 0 0 0 0 0 0 0 0 0.25 0"/>
<feBlend mode="normal" in2="BackgroundImageFix" result="effect1_dropShadow_418_1195"/>
<feBlend mode="normal" in="SourceGraphic" in2="effect1_dropShadow_418_1195" result="shape"/>
</filter>
</defs>
</svg>
