<svg width="296" height="81" viewBox="0 0 296 81" fill="none" xmlns="http://www.w3.org/2000/svg">
<g clip-path="url(#clip0_415_124)" filter="url(#filter0_d_415_124)">
<path d="M101.993 53.1364C99.0281 53.2058 96.2455 52.6107 93.7111 51.3496C91.2425 50.087 89.2228 48.2858 87.6504 45.8799C86.1438 43.4725 85.3558 40.7842 85.2864 37.815C85.2169 34.8458 85.8783 32.1236 87.2722 29.7143C88.6661 27.305 90.5993 25.4113 93.0705 23.9671C95.5432 22.5889 98.2289 21.8659 101.26 21.795C104.224 21.7256 107.007 22.3207 109.475 23.5833C112.01 24.8444 114.03 26.6456 115.47 29.0546C116.975 31.396 117.763 34.0843 117.833 37.0535C117.902 40.0227 117.241 42.7449 115.848 45.2202C114.455 47.6294 112.521 49.5232 110.116 50.9658C107.643 52.344 104.958 53.0671 101.993 53.1364ZM101.834 46.3403C104.337 46.2817 106.361 45.4421 107.838 43.7571C109.315 42.0721 110.056 39.9422 109.993 37.237C109.929 34.5317 109.088 32.3728 107.535 30.8247C105.981 29.2106 103.986 28.465 101.417 28.5251C98.8476 28.5853 96.8237 29.4248 95.3455 31.0438C93.8672 32.6629 93.1934 34.8572 93.2567 37.5625C93.32 40.2677 94.0957 42.4282 95.648 43.9763C97.2035 45.6564 99.2644 46.4004 101.834 46.3403Z" fill="black"/>
<path d="M129.695 31.2965C130.394 30.1579 131.426 29.2095 132.727 28.4528C134.028 27.6962 135.601 27.3293 137.38 27.2877C139.488 27.2384 141.345 27.7231 143.081 28.6727C144.818 29.6224 146.169 31.0431 147.136 32.935C148.169 34.8254 148.747 36.9905 148.806 39.4978C148.865 42.0051 148.389 44.1948 147.445 46.1314C146.502 48.068 145.218 49.5505 143.596 50.6447C141.906 51.6745 140.073 52.2455 137.965 52.2948C136.252 52.3349 134.663 52.042 133.263 51.3486C131.928 50.6536 130.854 49.8205 130.103 48.7158L130.353 59.4048L122.645 59.5852L121.907 28.0458L129.615 27.8655L129.695 31.2965ZM140.9 39.6827C140.857 37.8353 140.296 36.396 139.151 35.3665C138.072 34.3354 136.742 33.8384 135.161 33.8754C133.646 33.9108 132.34 34.4695 131.245 35.5514C130.216 36.6318 129.724 38.1617 129.767 40.0092C129.811 41.8567 130.372 43.296 131.452 44.393C132.531 45.4241 133.861 45.9211 135.442 45.8841C137.023 45.8471 138.263 45.29 139.358 44.2081C140.452 43.0602 140.945 41.5962 140.9 39.6827Z" fill="black"/>
<path d="M176.535 38.519C176.552 39.2448 176.503 39.9721 176.454 40.6995L158.995 41.1079C159.163 42.6224 159.651 43.7993 160.592 44.5695C161.533 45.3397 162.597 45.7109 163.914 45.6801C165.825 45.6354 167.19 44.8113 167.878 43.2107L176.113 43.0181C175.755 44.6109 174.998 46.081 173.907 47.3609C172.883 48.6392 171.524 49.7273 169.894 50.4916C168.264 51.2559 166.428 51.695 164.386 51.7428C161.948 51.7998 159.696 51.3243 157.762 50.3793C155.828 49.4343 154.279 48.0181 153.18 46.1293C152.081 44.2405 151.437 42.077 151.379 39.5696C151.32 37.0623 151.794 34.8066 152.805 32.9345C153.815 30.9963 155.296 29.5093 157.184 28.4748C159.071 27.4404 161.299 26.8601 163.802 26.8016C166.24 26.7445 168.425 27.1556 170.359 28.1006C172.292 29.0456 173.774 30.3973 174.872 32.2202C175.902 33.9786 176.478 36.0776 176.535 38.519ZM168.583 36.7245C168.554 35.4708 168.068 34.4259 167.128 33.7217C166.189 33.0175 165.06 32.6478 163.742 32.6786C162.424 32.7094 161.379 33.13 160.474 33.8774C159.635 34.6232 159.132 35.6912 158.9 37.017L168.584 36.7905L168.583 36.7245Z" fill="black"/>
<path d="M195.624 26.0571C198.589 25.9877 200.916 26.8575 202.738 28.6634C204.56 30.4693 205.475 32.9565 205.551 36.1897L205.883 50.3758L198.241 50.5546L197.932 37.3582C197.893 35.7086 197.403 34.4658 196.526 33.628C195.648 32.7243 194.453 32.3562 193.003 32.3901C191.554 32.424 190.379 32.9136 189.543 33.7914C188.708 34.7352 188.276 35.9997 188.313 37.5832L188.622 50.7796L180.913 50.96L180.345 26.6786L188.054 26.4983L188.129 29.7314C188.895 28.6572 189.929 27.7747 191.233 27.1501C192.535 26.4594 193.977 26.0956 195.624 26.0571Z" fill="black"/>
<path d="M222.757 50.3111C220.451 50.3651 218.333 50.0185 216.472 49.3358C214.61 48.6532 213.136 47.6314 211.982 46.206C210.894 44.7791 210.261 43.0774 210.148 41.0995L218.384 40.9068C218.542 42.0254 218.957 42.8739 219.697 43.5168C220.37 44.0952 221.299 44.3376 222.419 44.3114C223.539 44.2852 224.455 43.9997 225.103 43.5224C225.749 42.9791 226.062 42.2456 226.042 41.3878C226.025 40.662 225.746 40.0084 225.208 39.5588C224.67 39.1093 224 38.6628 223.27 38.4159C222.537 38.1029 221.409 37.7992 220.015 37.3697C217.959 36.8236 216.298 36.2683 214.965 35.6393C213.633 35.0763 212.491 34.1788 211.541 33.0127C210.591 31.8466 210.093 30.2738 210.048 28.3603C209.982 25.5231 210.983 23.2551 213.121 21.6206C215.19 19.9218 218.005 19.0637 221.431 18.9836C224.922 18.9019 227.774 19.6274 229.921 21.2276C232.066 22.7618 233.304 24.9775 233.504 27.8776L225.137 28.0734C225.048 27.0852 224.634 26.3026 223.963 25.7902C223.29 25.2118 222.362 24.9694 221.308 24.9941C220.385 25.0157 219.601 25.2981 219.084 25.7723C218.502 26.248 218.254 26.914 218.276 27.8378C218.299 28.8275 218.779 29.6085 219.779 30.1132C220.78 30.618 222.243 31.1779 224.301 31.7899C226.359 32.402 228.021 33.0232 229.287 33.5878C230.619 34.1508 231.76 35.0484 232.709 36.1485C233.659 37.3146 234.154 38.7554 234.197 40.6029C234.238 42.3184 233.813 43.9128 232.925 45.3859C232.037 46.8591 230.745 48.0116 229.052 48.9095C227.162 49.8119 225.129 50.2556 222.757 50.3111Z" fill="black"/>
<path d="M262.513 36.5075C262.53 37.2333 262.481 37.9606 262.432 38.688L244.973 39.0964C245.14 40.6109 245.629 41.7878 246.57 42.558C247.511 43.3282 248.574 43.6995 249.892 43.6686C251.803 43.6239 253.168 42.7998 253.855 41.1993L262.091 41.0066C261.732 42.5994 260.976 44.0695 259.885 45.3494C258.86 46.6277 257.501 47.7158 255.871 48.4801C254.241 49.2444 252.406 49.6835 250.363 49.7313C247.926 49.7883 245.673 49.3129 243.74 48.3678C241.806 47.4228 240.257 46.0067 239.158 44.1178C238.059 42.229 237.415 40.0655 237.356 37.5582C237.298 35.0509 237.772 32.7951 238.783 30.923C239.792 28.9848 241.274 27.4978 243.161 26.4634C245.049 25.4289 247.276 24.8487 249.78 24.7901C252.218 24.7331 254.403 25.1441 256.336 26.0891C258.27 27.0341 259.752 28.3859 260.849 30.2087C261.813 31.9686 262.456 34.0662 262.513 36.5075ZM254.56 34.713C254.531 33.4593 254.045 32.4144 253.106 31.7102C252.167 31.006 251.037 30.6363 249.72 30.6671C248.402 30.6979 247.357 31.1185 246.452 31.8659C245.612 32.6117 245.11 33.6798 244.877 35.0056L254.562 34.779L254.56 34.713Z" fill="black"/>
<path d="M265.024 36.7788C264.965 34.2715 265.376 32.0833 266.319 30.1467C267.263 28.2101 268.546 26.7277 270.236 25.6979C271.926 24.6681 273.758 24.0971 275.867 24.0477C277.645 24.0061 279.168 24.3006 280.569 24.994C281.97 25.6874 282.978 26.5221 283.73 27.6928L283.65 24.2618L291.358 24.0814L291.926 48.3628L284.218 48.5431L284.138 45.112C283.439 46.2507 282.407 47.1991 281.04 47.9573C279.74 48.7139 278.166 49.0808 276.387 49.1224C274.345 49.1702 272.488 48.6855 270.752 47.7359C269.014 46.7202 267.662 45.2994 266.629 43.4091C265.596 41.5187 265.083 39.2861 265.024 36.7788ZM283.868 36.404C283.825 34.5565 283.264 33.1172 282.118 32.0217C281.039 30.9907 279.709 30.4936 278.194 30.5291C276.678 30.5645 275.373 31.1232 274.278 32.2051C273.248 33.2855 272.755 34.7494 272.798 36.5969C272.841 38.4444 273.404 39.9497 274.483 40.9807C275.562 42.0118 276.892 42.5088 278.473 42.4718C279.988 42.4364 281.294 41.8777 282.323 40.7973C283.418 39.7154 283.911 38.2515 283.868 36.404Z" fill="black"/>
<path fill-rule="evenodd" clip-rule="evenodd" d="M38.3788 72.7796C56.5626 72.3542 70.9747 57.229 70.5486 39.018C70.1226 20.807 55.0189 6.37227 36.8352 6.79768C18.6514 7.2231 4.23934 22.3483 4.66539 40.5593C5.09144 58.7704 20.1951 73.205 38.3788 72.7796ZM59.1698 42.9152L59.2192 45.0266C59.2223 45.1586 59.158 45.2261 59.0278 45.2951C58.3751 45.5745 56.0939 46.6841 55.2024 48.0254C54.6782 48.7858 54.1849 49.6173 53.6899 50.4517L53.6899 50.4518C51.9574 53.3722 50.2036 56.3286 47.0266 56.4029L29.897 56.8036C23.8357 56.9454 18.7787 52.1124 18.6352 45.9761L18.6305 45.7781C18.6274 45.6462 18.7561 45.5111 18.8879 45.508L28.5068 45.283C28.7045 45.2784 28.8409 45.4732 28.844 45.6052C28.792 46.2006 28.9392 46.8573 29.2166 47.445C29.8374 48.6188 31.0387 49.2509 32.2905 49.2216L37.0341 49.1106L36.9476 45.4156L32.2699 45.525C32.0064 45.5312 31.8684 45.2704 31.9956 45.0693C32.0599 45.0018 32.1242 44.9343 32.187 44.8008C32.6328 44.1302 33.2041 43.1926 33.8367 42.0555C34.2809 41.3189 34.6562 40.4518 34.967 39.6524C35.0298 39.5189 35.0926 39.3853 35.1539 39.1859C35.1914 39.0193 35.2548 38.8521 35.3119 38.7013L35.312 38.7012C35.3459 38.6118 35.3776 38.5282 35.4004 38.4539L35.5842 37.8554C35.7005 37.1925 35.7494 36.4652 35.7309 35.6734L35.7309 35.6734C35.7247 35.4095 35.717 35.0796 35.6434 34.7512C35.6396 34.5862 35.6192 34.4217 35.5989 34.2571C35.5786 34.0925 35.5582 33.928 35.5544 33.763C35.5482 33.4991 35.4746 33.1707 35.4025 32.9083C35.3259 32.448 35.2507 32.0536 35.1081 31.5949L35.0392 31.4644C35.0275 31.4219 35.0158 31.3777 35.0038 31.3323L35.0037 31.332C34.9415 31.0972 34.8711 30.8313 34.7556 30.6128C34.4704 29.6953 34.1194 28.7792 33.7714 27.9951L33.353 27.0147C33.1445 26.5574 32.9361 26.1002 32.7292 25.7089C32.6939 25.6107 32.6426 25.5294 32.5912 25.448C32.5399 25.3667 32.4885 25.2854 32.4533 25.1872C32.418 25.089 32.3663 24.9912 32.3146 24.8934L32.3146 24.8934C32.2629 24.7955 32.2111 24.6977 32.1759 24.5995L31.969 24.2083L31.3513 23.1664C31.2823 23.036 31.4095 22.835 31.5428 22.8979L35.1895 23.8028L35.6538 23.924L36.1839 24.0436L36.3831 24.105L36.3322 21.9276C36.3075 20.8719 37.1439 19.9941 38.1322 19.9709C38.6592 19.9586 39.125 20.1458 39.4622 20.468C39.7993 20.7902 40.0078 21.2474 40.0201 21.7753L40.0942 24.9424L40.4926 25.0651C40.4926 25.0651 40.5585 25.0636 40.56 25.1296C40.6274 25.194 40.7623 25.3229 40.963 25.4502C41.0979 25.5791 41.2327 25.708 41.4335 25.8353C41.7691 26.0916 42.2395 26.4766 42.7099 26.8617L42.71 26.8618C42.7577 26.9074 42.8053 26.9448 42.8499 26.9798C42.9312 27.0437 43.0026 27.0997 43.0471 27.184C43.6524 27.698 44.3267 28.3424 45.0025 29.0527C45.1036 29.1494 45.1883 29.2465 45.2729 29.3435C45.3576 29.4405 45.4423 29.5376 45.5434 29.6343C45.6446 29.7309 45.7296 29.8444 45.8146 29.9579L45.8147 29.958C45.8997 30.0715 45.9848 30.1851 46.0859 30.2817C46.1878 30.4113 46.3064 30.5569 46.4251 30.7026L46.4254 30.7029C46.5442 30.8487 46.6629 30.9944 46.7648 31.1241C46.7905 31.1726 46.8253 31.221 46.8625 31.2726L46.8625 31.2727C46.9253 31.3598 46.9949 31.4565 47.0392 31.5798C47.1756 31.7747 47.2955 31.9699 47.4154 32.1652L47.4155 32.1653C47.5354 32.3605 47.6553 32.5557 47.7917 32.7505C47.8269 32.8487 47.8787 32.9465 47.9304 33.0444C47.9821 33.1422 48.0338 33.24 48.0691 33.3382C48.345 33.8599 48.555 34.3831 48.6348 34.9754C48.7037 35.1058 48.7068 35.2378 48.7084 35.3038C48.7773 35.4342 48.782 35.6321 48.7866 35.8301C48.8624 36.3926 48.8179 36.8984 48.7687 37.4578L48.7687 37.4579L48.7608 37.5472C48.731 37.6799 48.7008 37.7961 48.6705 37.9124L48.6704 37.9126C48.6402 38.0288 48.61 38.1449 48.5802 38.2776C48.5657 38.3247 48.5513 38.3755 48.5362 38.4291L48.5361 38.4291C48.487 38.6026 48.4296 38.8056 48.3336 39.0096C48.1468 39.476 47.8941 39.944 47.6414 40.412L47.6414 40.412L47.6413 40.4121C47.5785 40.5456 47.4514 40.7466 47.3243 40.9476L47.3243 40.9477C47.2863 41.0077 47.2482 41.0618 47.2118 41.1135C47.1263 41.2351 47.0502 41.3433 47.0072 41.4833C46.9436 41.5838 46.8636 41.6847 46.7835 41.7856L46.7834 41.7857C46.7034 41.8866 46.6234 41.9874 46.5599 42.0879C46.4328 42.2889 46.3056 42.4899 46.1126 42.6925C46.0169 42.8268 45.9047 42.9614 45.7925 43.096L45.7925 43.0961L45.7924 43.0962C45.6802 43.2308 45.568 43.3655 45.4723 43.4997C45.4316 43.5425 45.391 43.5918 45.3483 43.6437L45.3483 43.6437C45.2563 43.7556 45.1549 43.879 45.0219 43.9724C44.9812 44.0151 44.9406 44.0645 44.898 44.1163L44.898 44.1164L44.8979 44.1164C44.8059 44.2283 44.7045 44.3517 44.5715 44.445C44.3785 44.6476 44.1855 44.8502 43.9909 44.9868L43.6034 45.3259C43.539 45.3934 43.4731 45.395 43.4073 45.3965L40.5084 45.4643L40.5948 49.1593L44.2184 49.0746C45.009 49.0561 45.7934 48.7736 46.374 48.2319C46.4212 48.1824 46.5109 48.0963 46.6355 47.9768L46.6355 47.9768C47.0204 47.6076 47.738 46.9191 48.5631 46.0021C48.6001 45.9633 48.6159 45.9468 48.6351 45.9395C48.6493 45.9341 48.6654 45.9337 48.6934 45.933L58.8327 42.593C59.0288 42.5224 59.1652 42.7172 59.1698 42.9152ZM20.9648 41.3003L21.0919 41.0993L29.3434 27.5046C29.4705 27.3035 29.7341 27.2974 29.872 27.5582C31.3971 30.7574 32.6756 34.6886 32.2072 37.2083C31.9683 38.2701 31.3419 39.6712 30.5807 40.9433C30.5194 41.1428 30.3923 41.3438 30.2636 41.4789C30.1993 41.5464 30.1349 41.6139 30.0032 41.617L21.1748 41.8235C20.9756 41.7622 20.8377 41.5013 20.9648 41.3003Z" fill="black"/>
</g>
<defs>
<filter id="filter0_d_415_124" x="-0.106445" y="0.855774" width="296.465" height="80.6945" filterUnits="userSpaceOnUse" color-interpolation-filters="sRGB">
<feFlood flood-opacity="0" result="BackgroundImageFix"/>
<feColorMatrix in="SourceAlpha" type="matrix" values="0 0 0 0 0 0 0 0 0 0 0 0 0 0 0 0 0 0 127 0" result="hardAlpha"/>
<feOffset dy="4"/>
<feGaussianBlur stdDeviation="2"/>
<feComposite in2="hardAlpha" operator="out"/>
<feColorMatrix type="matrix" values="0 0 0 0 0 0 0 0 0 0 0 0 0 0 0 0 0 0 0.25 0"/>
<feBlend mode="normal" in2="BackgroundImageFix" result="effect1_dropShadow_415_124"/>
<feBlend mode="normal" in="SourceGraphic" in2="effect1_dropShadow_415_124" result="shape"/>
</filter>
<clipPath id="clip0_415_124">
<rect width="287" height="66" fill="white" transform="translate(3.89355 7.56836) rotate(-1.34021)"/>
</clipPath>
</defs>
</svg>
