<svg width="32" height="32" viewBox="0 0 32 32" fill="none" xmlns="http://www.w3.org/2000/svg">
<g clip-path="url(#clip0_418_1211)">
<path d="M22.6667 16C22.6665 16.236 22.6038 16.4677 22.4848 16.6715C22.3658 16.8753 22.1948 17.0439 21.9893 17.16L14.9867 21.1307C14.6821 21.3034 14.3375 21.3932 13.9874 21.3909C13.6373 21.3887 13.2939 21.2947 12.9915 21.1181C12.6891 20.9415 12.4384 20.6887 12.2644 20.3848C12.0904 20.081 11.9992 19.7368 12 19.3867V12.6107C12.0002 12.261 12.092 11.9175 12.2664 11.6143C12.4408 11.3112 12.6916 11.0592 12.9938 10.8832C13.296 10.7073 13.6391 10.6137 13.9887 10.6117C14.3384 10.6097 14.6825 10.6995 14.9867 10.872L21.9893 14.84C22.1948 14.9561 22.3658 15.1247 22.4848 15.3285C22.6038 15.5323 22.6665 15.764 22.6667 16ZM16 0C13.8989 -3.13096e-08 11.8183 0.413852 9.87707 1.21793C7.93586 2.022 6.17203 3.20055 4.68629 4.68629C3.20055 6.17203 2.022 7.93586 1.21793 9.87707C0.413852 11.8183 0 13.8989 0 16C0 18.1012 0.413852 20.1817 1.21793 22.1229C2.022 24.0641 3.20055 25.828 4.68629 27.3137C6.17203 28.7994 7.93586 29.978 9.87707 30.7821C11.8183 31.5861 13.8989 32 16 32C20.2435 32 24.3131 30.3143 27.3137 27.3137C30.3143 24.3131 32 20.2435 32 16C32 11.7565 30.3143 7.68687 27.3137 4.68629C24.3131 1.68571 20.2435 6.32325e-08 16 0ZM2.66667 16C2.66667 12.4638 4.07142 9.0724 6.57191 6.57191C9.0724 4.07142 12.4638 2.66667 16 2.66667C19.5362 2.66667 22.9276 4.07142 25.4281 6.57191C27.9286 9.0724 29.3333 12.4638 29.3333 16C29.3333 19.5362 27.9286 22.9276 25.4281 25.4281C22.9276 27.9286 19.5362 29.3333 16 29.3333C12.4638 29.3333 9.0724 27.9286 6.57191 25.4281C4.07142 22.9276 2.66667 19.5362 2.66667 16Z" fill="#FF9C00"/>
</g>
<defs>
<clipPath id="clip0_418_1211">
<rect width="32" height="32" fill="white"/>
</clipPath>
</defs>
</svg>
