<svg width="94" height="32" viewBox="0 0 94 32" fill="none" xmlns="http://www.w3.org/2000/svg">
<path d="M47.5847 5.66975L48.9715 5.62347L48.966 5.28714L48.6029 4.9417L46.8799 4.99919L46.5285 5.36846L46.574 8.1433L46.9368 8.46772L48.6598 8.41023L49.0115 8.06198L49.006 7.72561L47.6192 7.77189L47.6078 7.07819L48.9946 7.03192L48.9832 6.33821L47.5964 6.38448L47.5847 5.66975Z" fill="black"/>
<path d="M48.6779 1.82628L46.7238 1.89148L46.7558 3.84648L48.71 3.78128L48.6779 1.82628Z" fill="black"/>
<path d="M44.9258 5.06465L44.9485 6.45205L43.9189 6.48641L43.8962 5.099L43.2027 5.12213L42.8514 5.49141L42.8969 8.26625L43.2596 8.59067L43.9531 8.56753L43.9303 7.18012L44.9599 7.14577L44.9827 8.53318L45.6761 8.51004L46.0068 8.16249L45.9609 5.36663L45.6188 5.02049L44.9254 5.04363L44.9258 5.06465Z" fill="black"/>
<path d="M39.5044 5.24528L39.1531 5.61456L39.1586 5.95089L40.1882 5.91654L40.2279 8.334L40.5906 8.65845L40.9268 8.64723L41.2575 8.29965L41.2178 5.88219L42.2474 5.84783L42.2419 5.5115L41.8999 5.16536L39.5044 5.24528Z" fill="black"/>
<path d="M1.90516 11.1482L0.541097 12.5819L0.632138 18.1315L2.04173 19.4727L7.58904 19.2876L7.63456 22.0624L4.8609 22.155L4.83814 20.7675L0.677658 20.9063L0.723179 23.6812L2.13277 25.0223L10.4327 24.7454L11.7968 23.3117L11.7057 17.7621L10.2962 16.4209L4.76986 16.6053L4.72434 13.8305L7.498 13.7379L7.52076 15.1254L11.6812 14.9865L11.6357 12.2117L10.2261 10.8706L1.90516 11.1482Z" fill="black"/>
<path d="M39.2865 9.90088L39.5138 23.754L49.2006 23.4308L50.5646 21.9971L50.3829 10.9188L48.9733 9.57768L39.2865 9.90088ZM43.4925 12.5369L46.2662 12.4443L46.4024 20.7478L43.6287 20.8403L43.4925 12.5369Z" fill="black"/>
<path d="M51.747 9.48513L51.9742 23.3382L61.661 23.015L63.0251 21.5814L62.9568 17.4191L61.5472 16.078L62.9113 14.6443L62.843 10.4821L61.4334 9.14091L51.747 9.48513ZM56.044 17.6708L58.8177 17.5782L58.8632 20.3531L56.0895 20.4456L56.044 17.6708ZM55.9985 14.896L55.953 12.1211L58.7266 12.0286L58.7721 14.8034L55.9985 14.896Z" fill="black"/>
<path d="M65.5942 9.02319L64.2301 10.4569L64.4119 21.5352L65.8215 22.8763L74.1214 22.5994L75.4855 21.1657L75.3037 10.0874L73.8942 8.74626L65.5942 9.02319ZM68.4134 11.7055L71.187 11.6129L71.3232 19.9164L68.5496 20.0089L68.4134 11.7055Z" fill="black"/>
<path d="M90.4383 12.5078L87.8662 15.2112L90.5241 17.7401L93.0962 15.0367L90.4383 12.5078Z" fill="black"/>
<path d="M18.5951 25.2228L16.0231 27.9261L18.681 30.455L21.2531 27.7517L18.5951 25.2228Z" fill="black"/>
<path d="M83.602 8.42233L83.6703 12.5846L82.3062 14.0183L80.8966 12.6771L80.8284 8.51487L78.0547 8.60742L76.6906 10.0411L76.7589 14.2033L78.1685 15.5445L76.8044 16.9782L76.8727 21.1404L78.2823 22.4815L81.056 22.389L80.9877 18.2268L82.3517 16.7931L83.7613 18.1342L83.8296 22.2965L86.6033 22.2039L87.9673 20.7702L87.8991 16.608L86.4895 15.2669L87.8535 13.8332L87.7853 9.67092L86.3757 8.32979L83.602 8.42233Z" fill="black"/>
<path d="M33.7392 10.086L33.8075 14.2483L29.5788 10.2248L26.8051 10.3174L25.441 11.7511L25.6228 22.8294L27.0324 24.1705L29.806 24.0779L29.6698 15.7745L33.8986 19.7979L33.9668 23.9601L36.7405 23.8676L38.1046 22.4339L37.9228 11.3556L36.5132 10.0145L33.7396 10.107L33.7392 10.086Z" fill="black"/>
<path d="M22.6664 10.4976L14.3664 10.7745L13.0023 12.2082L13.1841 23.2865L14.5937 24.6276L17.3673 24.5351L17.2763 18.9854L20.0499 18.8929L20.141 24.4426L22.9146 24.35L24.2787 22.9163L24.097 11.8381L22.6664 10.4976ZM18.6259 16.6689L16.8318 14.962L18.5679 13.1373L20.3619 14.8442L18.6259 16.6689Z" fill="black"/>
</svg>
