<svg width="17" height="20" viewBox="0 0 17 20" fill="none" xmlns="http://www.w3.org/2000/svg">
<path d="M11.0124 0.401846C10.8203 0.246077 10.5981 0.131571 10.3598 0.0654721C10.1215 -0.00062685 9.87208 -0.0169002 9.62717 0.0176674C9.38227 0.0522349 9.14712 0.136902 8.9364 0.266385C8.72567 0.395868 8.54389 0.567389 8.4024 0.770246L4.752 5.99865H6.216L9.384 1.45665C9.43119 1.38888 9.49187 1.33158 9.56223 1.28834C9.63259 1.2451 9.71112 1.21686 9.7929 1.20537C9.87467 1.19388 9.95795 1.19939 10.0375 1.22157C10.117 1.24375 10.1912 1.2821 10.2552 1.33425L11.2248 2.12145L8.544 5.99865H10.0032L12.1584 2.87865L14.1792 4.51905C14.2969 4.61477 14.374 4.75155 14.395 4.90185C14.4159 5.05215 14.3791 5.20479 14.292 5.32905L13.824 5.99865H15.288C15.5424 5.62563 15.6474 5.17061 15.582 4.72384C15.5167 4.27706 15.2858 3.87116 14.9352 3.58665L11.0112 0.401846H11.0124ZM1.8 4.79985C1.32261 4.79985 0.864773 4.98949 0.527208 5.32705C0.189642 5.66462 0 6.12246 0 6.59985V16.1998C0 16.9955 0.316071 17.7586 0.87868 18.3212C1.44129 18.8838 2.20435 19.1998 3 19.1998H14.4C15.0365 19.1998 15.647 18.947 16.0971 18.4969C16.5471 18.0468 16.8 17.4364 16.8 16.7998V9.59985C16.8 8.96333 16.5471 8.35288 16.0971 7.90279C15.647 7.4527 15.0365 7.19985 14.4 7.19985H1.8C1.64087 7.19985 1.48826 7.13663 1.37574 7.02411C1.26321 6.91159 1.2 6.75898 1.2 6.59985C1.2 6.44072 1.26321 6.2881 1.37574 6.17558C1.48826 6.06306 1.64087 5.99985 1.8 5.99985H3.5628L4.4028 4.79985H1.8ZM12.6 13.1998H13.8C13.9591 13.1998 14.1117 13.2631 14.2243 13.3756C14.3368 13.4881 14.4 13.6407 14.4 13.7998C14.4 13.959 14.3368 14.1116 14.2243 14.2241C14.1117 14.3366 13.9591 14.3998 13.8 14.3998H12.6C12.4409 14.3998 12.2883 14.3366 12.1757 14.2241C12.0632 14.1116 12 13.959 12 13.7998C12 13.6407 12.0632 13.4881 12.1757 13.3756C12.2883 13.2631 12.4409 13.1998 12.6 13.1998Z" fill="white"/>
</svg>
