<svg width="51" height="52" viewBox="0 0 51 52" fill="none" xmlns="http://www.w3.org/2000/svg">
<rect x="0.975952" y="0.976074" width="49.3018" height="50.8922" rx="24.6509" fill="#FF9C00"/>
<circle cx="25.6269" cy="26.0244" r="1.98798" fill="black"/>
<path d="M26.5614 43.1798L24.2539 43.4821L24.328 44.0479L25.9976 43.8292L26.4321 47.1463L27.07 47.0627L26.5614 43.1798Z" fill="black"/>
<path d="M23.2539 45.4023C23.3998 45.1959 23.4891 44.9481 23.5273 44.6598C23.5655 44.3714 23.5439 44.1089 23.4506 43.8764C23.358 43.6384 23.2137 43.45 23.008 43.2986C22.8024 43.1471 22.5546 43.0579 22.2552 43.0181C21.9169 42.9733 21.6223 43.0245 21.3699 43.1829C21.1182 43.3358 20.948 43.5558 20.8543 43.8369L21.4532 43.9163C21.5189 43.7614 21.6183 43.6504 21.752 43.5778C21.8914 43.506 22.0518 43.4878 22.2348 43.5121C22.4677 43.5429 22.6467 43.64 22.7663 43.8026C22.8913 43.9659 22.9432 44.1703 22.9212 44.4214L22.9168 44.4546L20.7761 44.1708C20.7547 44.2469 20.7396 44.3183 20.7293 44.3959C20.6988 44.6684 20.7282 44.915 20.823 45.1364C20.9185 45.3522 21.058 45.5343 21.2541 45.6732C21.4501 45.8121 21.6812 45.8991 21.953 45.9352C22.2247 45.9712 22.4713 45.9418 22.6982 45.8478C22.9251 45.7537 23.108 45.6087 23.2539 45.4023ZM21.3114 44.6876L22.8365 44.8898C22.7879 45.0865 22.6896 45.2315 22.5293 45.3344C22.3689 45.4373 22.1944 45.4762 21.9948 45.4498C21.784 45.4218 21.6202 45.338 21.497 45.2032C21.3738 45.0683 21.3119 44.8964 21.3114 44.6876Z" fill="black"/>
<path d="M17.5123 41.9181L17.6208 41.9632C17.7396 42.0126 17.7707 42.0982 17.7191 42.2222L17.2854 43.2657C17.1566 43.5756 17.1559 43.8541 17.2784 44.0988C17.406 44.3457 17.6454 44.5422 17.9967 44.6882C18.3325 44.8278 18.6333 44.8619 18.9 44.8032C19.1668 44.7444 19.3715 44.5872 19.5068 44.3345L18.9593 44.1069C18.8914 44.2119 18.7907 44.2791 18.6573 44.3085C18.524 44.3379 18.3746 44.3182 18.2093 44.2495C18.0285 44.1744 17.9032 44.0677 17.8342 43.9421C17.7653 43.8165 17.763 43.6763 17.8231 43.5316L17.8897 43.3715L18.5561 43.6485C18.928 43.8031 19.2392 43.8415 19.4904 43.7763C19.7469 43.7133 19.9279 43.5401 20.0396 43.2715C20.1405 43.0287 20.1321 42.8011 20.0071 42.5916C19.8895 42.3791 19.6797 42.2132 19.3801 42.0886C18.9978 41.9297 18.6463 41.9593 18.3181 42.1804C18.3761 42.0409 18.3829 41.9225 18.3355 41.818C18.2932 41.7156 18.1842 41.6279 18.0086 41.5549L17.7141 41.4325L17.5123 41.9181ZM18.0615 42.9582L18.1001 42.8652C18.1912 42.6607 18.327 42.5233 18.5077 42.453C18.6884 42.3827 18.895 42.3959 19.1223 42.4904C19.2772 42.5548 19.3832 42.6352 19.4409 42.744C19.5008 42.8477 19.5035 42.9578 19.4563 43.0715C19.4026 43.2006 19.3153 43.2794 19.1944 43.3079C19.0735 43.3365 18.9293 43.3189 18.7537 43.2459L18.0615 42.9582Z" fill="black"/>
<path d="M13.3996 41.9875L13.5087 42.0658C13.6905 42.1962 13.8543 42.2654 14.0045 42.2768C14.1592 42.2914 14.3043 42.2715 14.4462 42.2081L14.2497 42.5972L14.6861 42.9102L16.3555 40.5827L15.8645 40.2306L15.0266 41.3989C14.8831 41.5989 14.717 41.7345 14.5315 41.8011C14.346 41.8677 14.1517 41.8316 13.9471 41.6849L13.7289 41.5284L13.3996 41.9875Z" fill="black"/>
<path d="M10.1913 38.3998C10.1734 38.696 10.2757 38.9772 10.495 39.2314C10.7544 39.5321 11.0613 39.6737 11.4035 39.6592L11.1636 39.9549L11.5071 40.3531L13.6758 38.4819L13.2811 38.0245L12.1883 38.9674C11.968 39.1574 11.7547 39.2528 11.54 39.2607C11.3252 39.2687 11.1374 39.1795 10.9802 38.9974C10.8341 38.828 10.7795 38.6534 10.8086 38.4731C10.8457 38.2933 10.9622 38.1115 11.1655 37.9361L12.3346 36.9274L11.9362 36.4657L10.7417 37.4963C10.3944 37.796 10.2134 38.1 10.1913 38.3998Z" fill="black"/>
<path d="M7.3858 32.7241L8.86876 32.2555C9.12481 32.1746 9.29298 32.0569 9.37325 31.9025C9.45885 31.7464 9.45685 31.5358 9.37425 31.2744L9.19894 30.7196L8.69218 30.8798L8.8304 31.3172C8.86411 31.4239 8.86469 31.5 8.8355 31.5561C8.80631 31.6123 8.73304 31.6589 8.62635 31.6926L7.20207 32.1427L6.99473 31.4866L6.48796 31.6467L6.6953 32.3028L5.93248 32.5439L6.11622 33.1253L6.87904 32.8843L7.02906 33.359L7.53583 33.1989L7.3858 32.7241Z" fill="black"/>
<path d="M8.59356 28.3339C8.70083 28.1021 8.7392 27.8471 8.71904 27.5569C8.69927 27.2723 8.62602 27.025 8.48773 26.8103C8.34944 26.5956 8.17039 26.4398 7.93862 26.3325C7.70686 26.2252 7.44587 26.1817 7.15566 26.2018C6.87103 26.2216 6.62415 26.3004 6.40944 26.4387C6.19473 26.577 6.03335 26.7564 5.92608 26.9882C5.8188 27.22 5.77486 27.4754 5.79463 27.76C5.81479 28.0502 5.89362 28.2971 6.03191 28.5118C6.17019 28.7265 6.35483 28.8819 6.5866 28.9892C6.81836 29.0965 7.07338 29.1348 7.35801 29.1151C7.64822 29.0949 7.90106 29.0213 8.11577 28.883C8.33048 28.7447 8.48628 28.5656 8.59356 28.3339ZM7.90104 27.0024C8.09048 27.1463 8.18815 27.3414 8.20559 27.5925C8.22343 27.8493 8.15367 28.056 7.98554 28.2191C7.81781 28.3878 7.59403 28.4762 7.31498 28.4956C7.03593 28.515 6.80766 28.4579 6.61821 28.3141C6.42916 28.1758 6.32591 27.9811 6.30807 27.7243C6.29063 27.4732 6.36597 27.2661 6.53371 27.0974C6.70144 26.9287 6.91925 26.8351 7.1983 26.8157C7.47735 26.7963 7.71159 26.8586 7.90104 27.0024Z" fill="black"/>
<path d="M5.65722 20.028L9.30789 21.4451L10.2574 18.9992L9.72541 18.7927L9.00875 20.6389L7.95005 20.2279L8.52095 18.7572L8.00465 18.5568L7.43375 20.0275L6.42199 19.6348L7.11436 17.8511L6.5824 17.6447L5.65722 20.028Z" fill="black"/>
<path d="M12.3833 14.7922L12.3139 14.887C12.2378 14.9908 12.1473 15.0007 12.039 14.9214L11.1275 14.2535C10.8567 14.0551 10.5863 13.9887 10.3196 14.0499C10.0495 14.1155 9.80205 14.3018 9.5772 14.6086C9.36227 14.902 9.25802 15.1862 9.25211 15.4593C9.2462 15.7324 9.35065 15.9685 9.56426 16.1597L9.91476 15.6813C9.82871 15.5905 9.78716 15.4768 9.79012 15.3403C9.79307 15.2038 9.84745 15.0633 9.95326 14.9189C10.069 14.7609 10.2022 14.6643 10.3405 14.627C10.4789 14.5897 10.6157 14.6206 10.7421 14.7132L10.882 14.8157L10.4554 15.3978C10.2173 15.7227 10.1065 16.016 10.1105 16.2755C10.1112 16.5396 10.2367 16.7564 10.4713 16.9283C10.6834 17.0837 10.9066 17.1294 11.1397 17.0574C11.3739 16.9933 11.5847 16.8287 11.7765 16.5669C12.0212 16.233 12.0755 15.8844 11.9382 15.5133C12.06 15.6026 12.1734 15.6371 12.2862 15.6157C12.3957 15.5989 12.5066 15.5137 12.619 15.3603L12.8075 15.103L12.3833 14.7922ZM11.243 15.0802L11.3242 15.1397C11.5014 15.2765 11.6028 15.441 11.6284 15.6331C11.6541 15.8253 11.5925 16.0229 11.447 16.2215C11.3478 16.3569 11.2447 16.4408 11.1253 16.4712C11.0104 16.505 10.9028 16.4815 10.8035 16.4088C10.6907 16.3261 10.6347 16.2227 10.6355 16.0985C10.6364 15.9743 10.6875 15.8383 10.7999 15.6849L11.243 15.0802Z" fill="black"/>
<path d="M13.2871 10.7796L13.1853 10.8671C13.0157 11.013 12.9097 11.1558 12.8632 11.299C12.8124 11.446 12.7975 11.5916 12.8256 11.7445L12.4939 11.4616L12.0867 11.8118L13.9541 13.9837L14.4122 13.5897L13.4749 12.4996C13.3144 12.3129 13.2218 12.1195 13.2009 11.9235C13.18 11.7276 13.261 11.5472 13.4519 11.3831L13.6555 11.208L13.2871 10.7796Z" fill="black"/>
<path d="M17.5312 8.50919C17.2476 8.4219 16.9502 8.45484 16.6514 8.60788C16.2979 8.78899 16.0878 9.05376 16.0211 9.38968L15.7904 9.08669L15.3224 9.32647L16.6284 11.8757L17.1661 11.6002L16.508 10.3157C16.3754 10.0567 16.3331 9.82698 16.3761 9.61639C16.4191 9.4058 16.5501 9.24439 16.7642 9.1347C16.9633 9.03267 17.1459 9.02087 17.3142 9.09178C17.4801 9.17022 17.6292 9.32639 17.7517 9.56538L18.4557 10.9396L18.9984 10.6616L18.2791 9.25747C18.0699 8.84919 17.8173 8.60147 17.5312 8.50919Z" fill="black"/>
<path d="M20.7859 9.41995C20.7338 9.5086 20.7237 9.60367 20.7518 9.71198C20.7799 9.82029 20.8362 9.90393 20.9235 9.95066C21.0121 10.0028 21.1126 10.0114 21.2209 9.98337C21.3292 9.95529 21.4075 9.90034 21.465 9.81029C21.5186 9.72706 21.5326 9.62517 21.5046 9.51686C21.4765 9.40855 21.4161 9.33173 21.3275 9.27958C21.2348 9.23425 21.1383 9.2188 21.03 9.24687C20.9217 9.27495 20.8395 9.33672 20.7859 9.41995Z" fill="black"/>
<path d="M26.5819 9.35867L28.8905 9.65302L28.9627 9.08697L27.2923 8.874L27.7154 5.55542L27.0772 5.47405L26.5819 9.35867Z" fill="black"/>
<path d="M31.6445 8.09976C31.4509 8.26228 31.3016 8.47919 31.1913 8.74838C31.081 9.01756 31.0352 9.2769 31.0663 9.52545C31.0954 9.77919 31.187 9.99812 31.3474 10.1969C31.5078 10.3956 31.7247 10.5449 32.0043 10.6595C32.32 10.7889 32.618 10.8142 32.9024 10.7252C33.1846 10.6413 33.4052 10.4718 33.5673 10.2238L33.0082 9.99471C32.9053 10.1279 32.781 10.2099 32.6332 10.2461C32.4802 10.2801 32.3204 10.257 32.1495 10.187C31.9321 10.0979 31.7837 9.95846 31.7094 9.77084C31.63 9.58109 31.6317 9.37021 31.7168 9.13302L31.7296 9.10196L33.7278 9.92076C33.7678 9.85252 33.8006 9.78735 33.8303 9.71488C33.929 9.4591 33.9633 9.21317 33.9279 8.97497C33.8904 8.74194 33.8018 8.5303 33.6475 8.34617C33.4932 8.16203 33.2918 8.01905 33.0381 7.91511C32.7845 7.81117 32.5386 7.7769 32.2952 7.81018C32.0518 7.84346 31.838 7.93724 31.6445 8.09976ZM33.3414 9.28483L31.9179 8.70149C32.0149 8.52362 32.1468 8.40837 32.3281 8.34963C32.5093 8.2909 32.6879 8.29759 32.8743 8.37396C33.071 8.45457 33.2082 8.57727 33.293 8.73901C33.3779 8.90075 33.394 9.08269 33.3414 9.28483Z" fill="black"/>
<path d="M37.4004 13.3309L37.3069 13.2597C37.2045 13.1817 37.1963 13.091 37.2776 12.9842L37.9624 12.0853C38.1658 11.8183 38.2372 11.5491 38.181 11.2813C38.1204 11.0101 37.9388 10.7592 37.6362 10.5287C37.3469 10.3083 37.0646 10.1988 36.7917 10.1878C36.5188 10.1768 36.2808 10.2768 36.0857 10.4869L36.5574 10.8462C36.6498 10.7618 36.7642 10.7224 36.9007 10.7279C37.0371 10.7334 37.1766 10.7904 37.319 10.8989C37.4747 11.0175 37.5688 11.1525 37.6036 11.2915C37.6384 11.4305 37.6049 11.5668 37.51 11.6914L37.4049 11.8293L36.8308 11.392C36.5104 11.1479 36.2192 11.0316 35.9596 11.0308C35.6956 11.0266 35.4765 11.148 35.3002 11.3795C35.1409 11.5886 35.0911 11.8109 35.1587 12.0453C35.2185 12.2807 35.3792 12.4945 35.6373 12.6911C35.9666 12.942 36.3141 13.0027 36.6877 12.8724C36.5962 12.9926 36.5595 13.1053 36.5788 13.2184C36.5936 13.3282 36.6767 13.4407 36.828 13.556L37.0817 13.7492L37.4004 13.3309ZM37.1337 12.1854L37.0727 12.2655C36.9326 12.4401 36.7663 12.5384 36.5737 12.5605C36.381 12.5825 36.1846 12.5173 35.9888 12.3681C35.8553 12.2664 35.7733 12.1618 35.7451 12.0418C35.7135 11.9263 35.7389 11.8191 35.8135 11.7212C35.8982 11.61 36.0027 11.5559 36.1269 11.5591C36.2511 11.5622 36.386 11.6158 36.5373 11.7311L37.1337 12.1854Z" fill="black"/>
<path d="M41.3956 14.3094L41.31 14.206C41.1673 14.0336 41.0265 13.925 40.8842 13.8758C40.7382 13.8224 40.5929 13.8047 40.4395 13.83L40.7285 13.5036L40.386 13.0899L38.1797 14.9166L38.565 15.382L39.6725 14.4651C39.8621 14.3081 40.0572 14.2192 40.2535 14.2019C40.4498 14.1846 40.6286 14.269 40.7892 14.4629L40.9604 14.6697L41.3956 14.3094Z" fill="black"/>
<path d="M43.5863 18.5948C43.6789 18.3129 43.6515 18.0149 43.504 17.7133C43.3295 17.3565 43.0687 17.1416 42.7341 17.0685L43.0413 16.8436L42.8103 16.3712L40.2372 17.6295L40.5026 18.1722L41.7992 17.5382C42.0605 17.4104 42.2911 17.3724 42.5008 17.4193C42.7106 17.4662 42.8695 17.6002 42.9752 17.8163C43.0735 18.0173 43.0819 18.2 43.0079 18.367C42.9263 18.5314 42.7674 18.6776 42.5262 18.7956L41.1391 19.4739L41.407 20.0217L42.8242 19.3286C43.2363 19.1271 43.4887 18.8791 43.5863 18.5948Z" fill="black"/>
<path d="M44.8568 24.7972L43.3034 24.8734C43.0352 24.8865 42.8427 24.9576 42.7258 25.0865C42.6033 25.2158 42.5517 25.4199 42.5651 25.6937L42.5936 26.2749L43.1245 26.2488L43.102 25.7906C43.0965 25.6789 43.1153 25.6051 43.1578 25.5582C43.2003 25.5114 43.283 25.4849 43.3948 25.4794L44.8867 25.4062L44.9204 26.0935L45.4512 26.0675L45.4175 25.3802L46.2165 25.341L46.1867 24.7319L45.3876 24.7711L45.3632 24.2738L44.8324 24.2999L44.8568 24.7972Z" fill="black"/>
<path d="M42.5725 28.7363C42.4098 28.9332 42.3079 29.1701 42.2536 29.4559C42.2003 29.7362 42.2083 29.994 42.2875 30.2368C42.3666 30.4796 42.5002 30.6758 42.6971 30.8385C42.894 31.0011 43.1353 31.1096 43.4211 31.1639C43.7014 31.2171 43.9602 31.2037 44.203 31.1245C44.4458 31.0453 44.6475 30.9128 44.8102 30.7159C44.9729 30.5191 45.0803 30.2832 45.1336 30.0029C45.1878 29.7171 45.1744 29.4583 45.0952 29.2155C45.016 28.9727 44.877 28.7755 44.6801 28.6128C44.4832 28.4501 44.2463 28.3482 43.966 28.2949C43.6802 28.2406 43.417 28.2476 43.1742 28.3267C42.9314 28.4059 42.7352 28.5395 42.5725 28.7363ZM42.9038 30.2001C42.7571 30.0128 42.7123 29.7993 42.7592 29.5519C42.8072 29.2991 42.9273 29.1169 43.1313 29.0019C43.3364 28.8814 43.5754 28.8528 43.8502 28.905C44.125 28.9572 44.3312 29.0704 44.4779 29.2577C44.6256 29.4395 44.6759 29.6541 44.6279 29.9069C44.5809 30.1542 44.4554 30.3354 44.2503 30.4559C44.0452 30.5763 43.8107 30.6115 43.5359 30.5593C43.2611 30.5071 43.0504 30.3874 42.9038 30.2001Z" fill="black"/>
<path d="M43.3007 37.5156L40.1303 35.2169L38.5901 37.3411L39.0521 37.6761L40.2146 36.0727L41.134 36.7393L40.208 38.0166L40.6564 38.3417L41.5824 37.0644L42.4611 37.7015L41.338 39.2505L41.8 39.5854L43.3007 37.5156Z" fill="black"/>
<path d="M35.4645 40.8693L35.5557 40.7953C35.6556 40.7143 35.7457 40.7277 35.8303 40.832L36.5421 41.7097C36.7535 41.9704 36.9982 42.1033 37.2717 42.112C37.5496 42.1172 37.8362 41.9999 38.1317 41.7603C38.4141 41.5313 38.5872 41.2829 38.6624 41.0202C38.7375 40.7576 38.6965 40.5028 38.5385 40.2636L38.0779 40.6371C38.1381 40.7468 38.1494 40.8673 38.1118 40.9986C38.0742 41.1299 37.9859 41.2519 37.8469 41.3647C37.6948 41.488 37.5414 41.5475 37.3981 41.5485C37.2548 41.5494 37.1303 41.4847 37.0317 41.3631L36.9225 41.2284L37.483 40.7738C37.7958 40.5201 37.9776 40.2647 38.0397 40.0126C38.1062 39.757 38.0399 39.5155 37.8567 39.2895C37.6911 39.0853 37.4868 38.9844 37.2431 38.9948C37.0003 38.9973 36.7546 39.1029 36.5025 39.3072C36.181 39.568 36.0399 39.8913 36.0783 40.2851C35.9832 40.1678 35.8823 40.1056 35.7678 40.0976C35.6576 40.0861 35.5286 40.1402 35.3809 40.26L35.1332 40.4609L35.4645 40.8693ZM36.6406 40.8808L36.5771 40.8025C36.4405 40.6252 36.3843 40.4404 36.4083 40.248C36.4324 40.0556 36.5422 39.8801 36.7334 39.7251C36.8637 39.6194 36.9848 39.5644 37.108 39.5653C37.2277 39.5619 37.3259 39.6119 37.4034 39.7075C37.4915 39.8162 37.5193 39.9304 37.4869 40.0504C37.4545 40.1703 37.3705 40.2888 37.2228 40.4086L36.6406 40.8808Z" fill="black"/>
<path d="M34.2315 44.3027L34.3522 44.2439C34.5534 44.146 34.6922 44.0348 34.7736 43.9081C34.86 43.7789 34.9115 43.6418 34.9231 43.4868L35.1721 43.8447L35.6549 43.6096L34.401 41.0343L33.8578 41.2988L34.4872 42.5915C34.595 42.8128 34.6353 43.0234 34.6057 43.2183C34.5761 43.4131 34.4519 43.5669 34.2256 43.6771L33.9841 43.7947L34.2315 44.3027Z" fill="black"/>
<path d="M30.718 45.4312C30.9825 45.5656 31.2812 45.584 31.6017 45.4842C31.9809 45.3662 32.2331 45.1412 32.3563 44.8216L32.5318 45.1596L33.0339 45.0033L32.1827 42.2684L31.6058 42.4479L32.0347 43.8261C32.1212 44.1038 32.1236 44.3375 32.0453 44.5376C31.9669 44.7378 31.8103 44.8744 31.5806 44.9459C31.3669 45.0124 31.185 44.9928 31.0313 44.8942C30.8812 44.7886 30.761 44.6092 30.6812 44.3528L30.2223 42.8785L29.6401 43.0598L30.1089 44.5661C30.2452 45.0041 30.4518 45.2914 30.718 45.4312Z" fill="black"/>
<path d="M28.6699 44.0729C28.7428 44.0005 28.7767 43.9111 28.7771 43.7992C28.7775 43.6873 28.7442 43.5921 28.6717 43.5247C28.5993 43.4517 28.5043 43.4178 28.3924 43.4174C28.2805 43.4171 28.1909 43.4503 28.1123 43.5228C28.0393 43.5897 27.9999 43.6846 27.9995 43.7965C27.9991 43.9084 28.0379 43.9981 28.1104 44.071C28.1885 44.1384 28.2779 44.1779 28.3898 44.1783C28.5017 44.1787 28.5969 44.1398 28.6699 44.0729Z" fill="black"/>
</svg>
