<svg width="137" height="56" viewBox="0 0 137 56" fill="none" xmlns="http://www.w3.org/2000/svg">
<path d="M2.06578 38.1201C2.06578 37.7907 1.79876 37.5237 1.46938 37.5237C1.14 37.5237 0.872989 37.7907 0.87299 38.1201L2.06578 38.1201ZM130.603 50.7791C130.806 52.5241 132.385 53.7746 134.13 53.5722C135.875 53.3698 137.125 51.7911 136.923 50.0461C136.72 48.3011 135.142 47.0506 133.397 47.253C131.652 47.4554 130.401 49.0341 130.603 50.7791ZM1.46944 55.0165L0.873047 55.0165C0.873048 55.3459 1.14006 55.6129 1.46944 55.6129L1.46944 55.0165ZM57.3545 55.0165L57.3545 55.6129C57.6839 55.6129 57.9509 55.3459 57.9509 55.0165L57.3545 55.0165ZM57.3545 0.74473L57.3545 0.148337C57.0251 0.148337 56.7581 0.415352 56.7581 0.74473L57.3545 0.74473ZM133.763 0.74473L134.359 0.74473C134.359 0.586558 134.297 0.434863 134.185 0.323016C134.073 0.211171 133.921 0.148338 133.763 0.148338L133.763 0.74473ZM0.87299 38.1201L0.873047 55.0165L2.06583 55.0165L2.06578 38.1201L0.87299 38.1201ZM1.46944 55.6129L57.3545 55.6129L57.3545 54.4201L1.46944 54.4201L1.46944 55.6129ZM57.9509 55.0165L57.9509 0.74473L56.7581 0.74473L56.7581 55.0165L57.9509 55.0165ZM57.3545 1.34112L133.763 1.34112L133.763 0.148338L57.3545 0.148337L57.3545 1.34112ZM133.167 0.744731L133.167 50.4126L134.359 50.4126L134.359 0.74473L133.167 0.744731Z" fill="#FF9C00"/>
</svg>
